<svg width="27" height="27" viewBox="0 0 27 27" fill="none" xmlns="http://www.w3.org/2000/svg">
<circle cx="13.5" cy="13.5" r="13" stroke="#999999"/>
<path d="M8.375 15.6875C7.92745 15.6875 7.49822 15.5097 7.18176 15.1932C6.86529 14.8768 6.6875 14.4476 6.6875 14C6.6875 13.5524 6.86529 13.1232 7.18176 12.8068C7.49822 12.4903 7.92745 12.3125 8.375 12.3125C8.82255 12.3125 9.25178 12.4903 9.56824 12.8068C9.88471 13.1232 10.0625 13.5524 10.0625 14C10.0625 14.4476 9.88471 14.8768 9.56824 15.1932C9.25178 15.5097 8.82255 15.6875 8.375 15.6875ZM14 15.6875C13.5524 15.6875 13.1232 15.5097 12.8068 15.1932C12.4903 14.8768 12.3125 14.4476 12.3125 14C12.3125 13.5524 12.4903 13.1232 12.8068 12.8068C13.1232 12.4903 13.5524 12.3125 14 12.3125C14.4476 12.3125 14.8768 12.4903 15.1932 12.8068C15.5097 13.1232 15.6875 13.5524 15.6875 14C15.6875 14.4476 15.5097 14.8768 15.1932 15.1932C14.8768 15.5097 14.4476 15.6875 14 15.6875ZM19.625 15.6875C19.1774 15.6875 18.7482 15.5097 18.4318 15.1932C18.1153 14.8768 17.9375 14.4476 17.9375 14C17.9375 13.5524 18.1153 13.1232 18.4318 12.8068C18.7482 12.4903 19.1774 12.3125 19.625 12.3125C20.0726 12.3125 20.5018 12.4903 20.8182 12.8068C21.1347 13.1232 21.3125 13.5524 21.3125 14C21.3125 14.4476 21.1347 14.8768 20.8182 15.1932C20.5018 15.5097 20.0726 15.6875 19.625 15.6875Z" fill="#4A4A4A"/>
</svg>
