<svg xmlns="http://www.w3.org/2000/svg" width="24.012" height="26.701" viewBox="0 0 24.012 26.701"><defs><style>.a{fill:#014783;}</style></defs><path class="a" d="M21.323,3.106a2.669,2.669,0,0,1,2.689,2.689V24.428a2.67,2.67,0,0,1-2.689,2.689H2.689a2.6,2.6,0,0,1-1.907-.782A2.592,2.592,0,0,1,0,24.429V5.794A2.6,2.6,0,0,1,.782,3.887a2.592,2.592,0,0,1,1.907-.781H4V.417H6.69V3.106H17.321V.417H20.01V3.106h1.313Zm-9.317,4a3.95,3.95,0,0,0-4,4,3.95,3.95,0,0,0,4,4,3.95,3.95,0,0,0,4-4,3.952,3.952,0,0,0-4-4Zm8,16.008V21.8a2.785,2.785,0,0,0-1.469-2.251,9.9,9.9,0,0,0-3.284-1.438,14.03,14.03,0,0,0-3.251-.437,14.03,14.03,0,0,0-3.251.437,9.887,9.887,0,0,0-3.283,1.438A2.791,2.791,0,0,0,4,21.8v1.313H20.01Z" transform="translate(0 -0.417)"/></svg>