<svg xmlns="http://www.w3.org/2000/svg" width="392.351" height="371.914" viewBox="0 0 392.351 371.914"><defs><style>.a{fill:#ff5940;}.b,.c,.e,.f,.l,.q,.r{fill:none;stroke-miterlimit:10;}.b{stroke:#d15036;stroke-width:1.759px;}.c,.f,.r{stroke:#fff;}.c{stroke-width:3.519px;}.d{fill:#f6a915;}.e{stroke:#f67215;stroke-width:1.398px;}.f{stroke-width:1.859px;}.g{fill:#4b53e4;}.h{fill:#221660;}.i{fill:#f68e15;}.j{fill:#fe9da7;}.k{fill:#f68;}.l{stroke:#221660;stroke-width:0.536px;}.m{fill:#fcde98;}.n{fill:#3a4b73;}.o{fill:#f65015;}.p{fill:#30b47a;}.q{stroke:#0c8563;stroke-width:2px;}.r{stroke-width:4.666px;}</style></defs><g transform="translate(-83.828 -305.698)"><g transform="translate(421.059 557.971)"><ellipse class="a" cx="26.451" cy="26.009" rx="26.451" ry="26.009" transform="translate(2.219 2.91)"/><ellipse class="b" cx="26.451" cy="26.009" rx="26.451" ry="26.009" transform="translate(0 0)"/><g transform="translate(14.36 12.471)"><ellipse class="c" cx="9.763" cy="9.6" rx="9.763" ry="9.6" transform="translate(5.138)"/><path class="c" d="M589.645,358.142l-8.1,7.961Z" transform="translate(-581.548 -340.555)"/></g></g><g transform="translate(349.027 306.396)"><g transform="translate(0)"><ellipse class="d" cx="23.107" cy="22.721" rx="23.107" ry="22.721" transform="translate(1.679 2.939)"/><ellipse class="e" cx="23.107" cy="22.721" rx="23.107" ry="22.721" transform="translate(0)"/></g><g transform="translate(13.04 11.066)"><path class="f" d="M623.023,122.456a10.222,10.222,0,0,0,5.331,9.447c1.56.827,2.986,7.141,2.986,7.141l6.762-.133s1.113-6.711,2.3-7.521a10.816,10.816,0,0,0,4.748-8.933,11.064,11.064,0,0,0-22.124,0Z" transform="translate(-623.023 -111.579)"/><path class="f" d="M636.042,131.536,637.8,121.7l-4.328,2.394L629.28,121.7l1.623,9.841" transform="translate(-621.91 -111.784)"/><line class="f" x1="12.045" transform="translate(5.331 19.81)"/><line class="f" x1="7.979" transform="translate(7.37 23.476)"/></g></g><g transform="translate(83.828 383.653)"><path class="g" d="M884.44,317.145l-43.222,66.279s-26.254-48.26-30.145-53.235-41.847,15.735-41.847,15.735,21.669,43.109,32.548,67.883c8.486,19.324,57.345,15.919,57.345,15.919l36.97-53.189Z" transform="translate(-741.396 -181.936)"/><path class="h" d="M882.38,345.87s37.956-20.709,41.847-15.735c0,0-6.615-14.122-9.244-15.354-7.256-3.4-62.008,25.928-60.4,27.115,3.316,2.445,25.81-1.82,25.81-1.82Z" transform="translate(-854.551 -181.883)"/><path class="g" d="M883.393,368.257c-6.97,13.637-54.446,92.464-74.293,104.326s-72.376-11.1-105.065-22.575l15.56-42.859,61.486,15.689L811.824,379.6s-19.016-44.547-5.033-62.452Z" transform="translate(-663.747 -181.936)"/><path class="h" d="M791.645,388.862l-75.7-40.6-2.553-14.977Z" transform="translate(-581.319 -182.263)"/><path class="d" d="M771.833,230.494c-5.056-2.406-52.849,6.708-52.849,6.708l5.213,36.173,24.911-5.127Z" transform="translate(-567.082 -180.172)"/><path class="i" d="M730.966,273.609l20.8-4.443,16.94-27.519a44.589,44.589,0,0,0-13.185,6.835c-.339.26-12.731,7.884-13.065,8.16-5.444,4.49-13.531,1.728-13.531,1.728Z" transform="translate(-573.852 -180.406)"/><path class="j" d="M549.557,254.48c6.179-4.515,10.77-13.368,10.593-18.75s-3.355-11.285-6.533-12.326-3.354,2.778-2.471,5.555.883,8.854.883,8.854Z" transform="translate(-186.594 -180.033)"/><path class="k" d="M554.833,229.077c.883,2.778.883,8.854.883,8.854L553.244,254.6a48.763,48.763,0,0,0,6.66-15.508C561.571,230.891,554.833,229.077,554.833,229.077Z" transform="translate(-190.28 -180.151)"/><path class="j" d="M700.1,199.508c5.023,9.218-3.567,36-4.255,37.662-1.538,3.717-4.255,14.048-24.317,5.977L667,251.741s-24.037-10.081-25.861-13.667c0,0,4.559-7.751,9.7-18.873,4.8-10.382,9.89-24.1,18.255-26.27C686.424,188.448,695.543,191.139,700.1,199.508Z" transform="translate(-419.359 -179.375)"/><path class="h" d="M680.871,210.032s-4.559,10.462-23.406,1.2c0,0-2.736,5.081-8.208,5.38l-.912,6.277-4.559-1.794s-1.824,17.635-5.168,19.13-19.758-5.68-21.886-8.968c-.8-1.233,1.644-14.1,2.128-20.326.807-10.382.631-20.552,11.089-15.41,0,0,3.615-7.905,7.263-10s7.487,1.8,7.487,1.8,3.344-9.266,13.071-8.07,11.855,7.174,11.855,7.174,14.591-11.059,25.534,3.288c8.326,10.915-3.04,22.716-9.12,21.521Z" transform="translate(-391.312 -179.139)"/><path class="j" d="M630.885,243.356c4.06.695,7.945-3.3,9-5.035s-.407-3.743-5.649-10.07c-3.885-4.687.176-6.944,4.59-4.86,0,0,9.357,4.34,11.3,10.937,2.591,8.8-6.357,22.569-6.357,22.569S635.828,282.07,618,303.424c-14.121,16.91-26.66,14.237-33.9,14.062s-29.515-9.73-29.515-9.73l21.751-30.392,15.18,6.095c12.712-10.763,26.66-35.763,26.66-35.763Z" transform="translate(-282.046 -180.02)"/><path class="k" d="M565.649,228.368c5.243,6.327,6.709,8.334,5.649,10.07s-4.944,5.729-9,5.035l6.673,2.214,1.906,4.088s4.331-7.326,3.292-12.1S565.649,228.368,565.649,228.368Z" transform="translate(-213.455 -180.137)"/><path class="k" d="M650.872,278.5l-21.751,30.392s8.1,3.474,16.117,6.271c1.743.608-4.337-2.307-3.5-7.658C643.427,296.649,650.872,278.5,650.872,278.5Z" transform="translate(-356.584 -181.153)"/><path class="j" d="M841.453,236.8c.343.123-17.844,4.7-22.688,2.411-6.772-3.2-16.469-26-16.469-26s3.765-12.533,1.158-13.672-4.924,5.412-4.924,5.412-4.055-20.792-6.662-20.508-3.577,4.5-3.631,10.523c0,0-.75,2.115-1.33-.163s-1.879-9.93-4.486-10.784-4.273,7.538-2.825,13.234c0,0-5.033-9.761-6.48-9.476s-3.263,6.35-.077,13.185c0,0-4.232-5.363-5.679-4.509s-.47,9.484,7.117,20.637c0,0,3.059,37.16,29.708,52.256,9.276,5.254,20.8,5.973,31.022,4.339a113.334,113.334,0,0,0,11.4-2.386Z" transform="translate(-689.487 -179.237)"/><path class="j" d="M677.411,224.959c-2.225-6.564-4.057-7.532-7.236-3.782s.561,11.283,5.011,10.97S677.411,224.959,677.411,224.959Z" transform="translate(-423.404 -179.947)"/><path class="h" d="M914.366,408.916s-15.048-5.725-18.324-4.293-29.008,60.962-27.552,69.194,24.472-24.31,24.472-24.31l5.845,2.269Z" transform="translate(-858.518 -183.704)"/><path class="d" d="M799.573,273.984c-.609,5.38-20.3,34.83-23.037,33.933-1.823-.6-14.895-7.174-14.895-7.174.214.072-23.578,53.387-44.955,87.225,0,0-65.755-40.873-88.857-62.991,0,0,73.018-90.291,80.921-94.475l62.011,30.189Z" transform="translate(-504 -180.18)"/><path class="l" d="M857.314,360.985a76.8,76.8,0,0,0,7.545,19.71l-30.37,43.031-58.25-15.2" transform="translate(-717.156 -182.824)"/><path class="h" d="M776.239,404.146,792.66,380.88a76.19,76.19,0,0,1-4.831-10.606C786.738,367.3,776.239,404.146,776.239,404.146Z" transform="translate(-644.956 -183.009)"/><path class="k" d="M766.794,274.779a113.329,113.329,0,0,0,11.4-2.386l-5.149-34.5s-.626,23.5-3.1,28.862A84.415,84.415,0,0,0,766.794,274.779Z" transform="translate(-621.075 -180.33)"/><path class="d" d="M578.719,252.187l-1.011-3.663-1.085-4.239-4.1-16.048a12.133,12.133,0,0,0-4.053-5.306,15.264,15.264,0,0,0-1.51-1.047,10.639,10.639,0,0,0-.888,1.624,14.294,14.294,0,0,0-1.273,6.484c.119,2.684,1.507,10.161,2.7,16.187.319,1.613.623,3.121.886,4.407.5,2.451.847,4.09.847,4.09a10.8,10.8,0,0,0,5.485,1.038C577.242,255.3,578.719,252.187,578.719,252.187Z" transform="translate(-220.326 -180.006)"/><path class="m" d="M571.016,229.991a14.3,14.3,0,0,1,1.273-6.484,10.652,10.652,0,0,1,.888-1.624,15.249,15.249,0,0,1,1.51,1.047,12.133,12.133,0,0,1,4.053,5.306l-2.354-1.55-.767,1.3-1.814-1.1-1.187,2.4-1.046-1.166Z" transform="translate(-226.547 -180.006)"/><path d="M575.071,223.507a10.652,10.652,0,0,1,.888-1.624,15.249,15.249,0,0,1,1.51,1.047Z" transform="translate(-229.329 -180.006)"/><path class="n" d="M566.683,251.038c-.263-1.285-.567-2.794-.886-4.407a9.091,9.091,0,0,1,3.758-2.075,9.279,9.279,0,0,1,5.371.181l1.085,4.239Z" transform="translate(-218.631 -180.459)"/><path class="o" d="M564.782,251.114c.5,2.451.847,4.09.847,4.09a10.8,10.8,0,0,0,5.485,1.038c2.532-.415,4.008-3.526,4.008-3.526l-1.012-3.663s-1.613-1.587-4.957-.906C565.648,248.86,564.782,251.114,564.782,251.114Z" transform="translate(-216.73 -180.534)"/><path class="j" d="M574.41,247.8c-1.942-6.251,2.119-10.764,5.3-15.8s5.12-4.514,6.533-3.472c1.216.9-2.019,10.806-.348,13.984a12.8,12.8,0,0,1,1.668,5.406c.147,3.7-.253,8.479-3.163,9.225-.979.252-.916-9.6-1.945-9.472A43.722,43.722,0,0,1,574.41,247.8Z" transform="translate(-238.284 -180.126)"/></g><g transform="translate(162.264 353.243)"><ellipse class="p" cx="30.069" cy="29.567" rx="30.069" ry="29.567" transform="translate(2.523 3.308)"/><ellipse class="q" cx="30.069" cy="29.567" rx="30.069" ry="29.567" transform="translate(0)"/><path class="r" d="M828.881,183.932l-7.352,7.229L799.808,169.8" transform="translate(-783.094 -148.539)"/></g></g></svg>