<svg xmlns="http://www.w3.org/2000/svg" width="408.839" height="68.356" viewBox="0 0 408.839 68.356"><defs><style>.a,.c{fill:#2680eb;}.a{font-size:42px;font-family:UTM Nokia;}.b{fill:#646464;}.d{fill:#1260bd;}.e{fill:#014783;}.f{fill:#47bbea;}</style></defs><g transform="translate(-139.292 -220.023)"><g transform="translate(206.131 227.38)"><text class="a" transform="translate(0 52)"><tspan x="0" y="0">R</tspan><tspan class="b" y="0">Sharing</tspan></text></g><g transform="translate(139.292 220.023)"><g transform="translate(0 0)"><path class="c" d="M373.922,254.247a61.24,61.24,0,0,0,3.458-6.408h-3.458Z" transform="translate(-352.865 -247.839)"/><path class="c" d="M322.072,247.839h-7.081v30.106a83.123,83.123,0,0,0,7.081-6.278Z" transform="translate(-314.991 -247.839)"/></g><g transform="translate(0 0)"><path class="d" d="M322.072,314.525a83.129,83.129,0,0,1-7.081,6.278v.27a30.227,30.227,0,0,0,4.489,15.894q1.265-.677,2.592-1.526Z" transform="translate(-314.991 -290.697)"/><path class="d" d="M373.922,269.892h8.76c5.05-7.19,8.681-14.672,9.182-20.8a30.379,30.379,0,0,0-8.625-1.249H377.38a61.24,61.24,0,0,1-3.458,6.408Z" transform="translate(-352.865 -247.839)"/></g><g transform="translate(4.489 1.25)"><path class="c" d="M373.922,348.672v18.515a92.307,92.307,0,0,0,18.448-18.515Z" transform="translate(-357.354 -313.892)"/><path class="c" d="M408.313,272.139V251.561c-.23-.074-.459-.156-.693-.225-.5,6.131-4.133,13.613-9.182,20.8Z" transform="translate(-373.11 -251.336)"/><path class="c" d="M330.147,373.06q-1.324.846-2.592,1.526a30.4,30.4,0,0,0,2.592,3.582Z" transform="translate(-327.555 -329.566)"/></g><g transform="translate(21.057 10.901)"><path class="e" d="M465.19,278.348V311.23a57.165,57.165,0,0,0,7.074-13.723A30.233,30.233,0,0,0,465.19,278.348Z" transform="translate(-432.578 -278.348)"/><path class="e" d="M392.557,348.672h-.187a92.307,92.307,0,0,1-18.448,18.515v4.734a30.227,30.227,0,0,0,9.317,1.473h8.614c.235-.214.468-.441.7-.661Z" transform="translate(-373.922 -323.544)"/></g><g transform="translate(38.989 30.061)"><path class="c" d="M472.264,331.968a57.166,57.166,0,0,1-7.074,13.723v16.967h7.082V332.283C472.272,332.177,472.266,332.073,472.264,331.968Z" transform="translate(-450.51 -331.968)"/><path class="f" d="M424.81,416.009c-.235.22-.468.447-.7.661h.7Z" transform="translate(-424.106 -385.98)"/></g></g></g></svg>