<svg xmlns="http://www.w3.org/2000/svg" width="21.963" height="24.403" viewBox="0 0 21.963 24.403"><defs><style>.a{fill:#014783;}</style></defs><path class="a" d="M24.023,3H6.94A2.442,2.442,0,0,0,4.5,5.44V20.082a2.442,2.442,0,0,0,2.44,2.44h4.271L15.481,27.4l4.271-4.881h4.271a2.442,2.442,0,0,0,2.44-2.44V5.44A2.442,2.442,0,0,0,24.023,3Zm-12.2,12.2a2.441,2.441,0,1,1,2.442-2.44A2.441,2.441,0,0,1,11.821,15.2Zm7.321,0a2.441,2.441,0,1,1,2.442-2.44A2.441,2.441,0,0,1,19.142,15.2Z" transform="translate(-4.5 -3)"/></svg>