<svg xmlns="http://www.w3.org/2000/svg" width="49.98" height="49.604" viewBox="0 0 49.98 49.604"><defs><style>.a{fill:#fce5ac;}.b{fill:#f99c1d;}.c{fill:#002541;}.d{fill:#004592;}.e{fill:#4fc2d9;}.f{fill:#96e0f4;}.g{fill:#fdc00e;}.h{fill:#1490bd;}</style></defs><g transform="translate(-146.432 -244.938)"><g transform="translate(146.432 244.938)"><rect class="a" width="29.98" height="40.594"/></g><g transform="translate(153.843 249.625)"><rect class="b" width="17.779" height="1.334"/></g><g transform="translate(153.843 252.71)"><rect class="b" width="17.779" height="1.335"/></g><g transform="translate(153.843 255.795)"><rect class="b" width="17.779" height="1.335"/></g><g transform="translate(153.843 258.88)"><rect class="b" width="17.779" height="1.334"/></g><g transform="translate(153.843 261.965)"><rect class="b" width="17.779" height="1.334"/></g><g transform="translate(153.843 265.049)"><rect class="b" width="17.779" height="1.335"/></g><g transform="translate(153.843 268.134)"><rect class="b" width="17.779" height="1.335"/></g><g transform="translate(153.843 271.219)"><rect class="b" width="17.779" height="1.334"/></g><g transform="translate(153.843 274.303)"><rect class="b" width="17.779" height="1.335"/></g><g transform="translate(164.351 263.067)"><g transform="translate(15.737 0)"><path class="c" d="M186.874,266.722a15.737,15.737,0,1,1,0,31.474Z" transform="translate(-186.874 -266.722)"/></g><g transform="translate(0 0)"><path class="d" d="M183.7,298.2a15.737,15.737,0,1,1,0-31.474Z" transform="translate(-167.964 -266.722)"/></g><g transform="translate(15.737 3.47)"><path class="e" d="M186.874,270.891a12.267,12.267,0,1,1,0,24.535Z" transform="translate(-186.874 -270.891)"/></g><g transform="translate(3.47 3.47)"><path class="f" d="M184.4,295.426a12.267,12.267,0,1,1,0-24.535Z" transform="translate(-172.133 -270.891)"/></g><g transform="translate(15.737 6.358)"><path class="c" d="M186.874,274.362a9.378,9.378,0,1,1,0,18.757Z" transform="translate(-186.874 -274.362)"/></g><g transform="translate(6.359 6.358)"><path class="d" d="M184.983,293.119a9.378,9.378,0,1,1,0-18.757Z" transform="translate(-175.605 -274.362)"/></g><g transform="translate(15.737 9.01)"><path class="e" d="M186.874,277.548a6.727,6.727,0,1,1,0,13.455Z" transform="translate(-186.874 -277.548)"/></g><g transform="translate(9.01 9.01)"><path class="f" d="M185.518,291a6.727,6.727,0,1,1,0-13.455Z" transform="translate(-178.79 -277.548)"/></g><g transform="translate(15.737 11.584)"><path class="b" d="M186.874,280.641a4.153,4.153,0,1,1,0,8.306Z" transform="translate(-186.874 -280.641)"/></g><g transform="translate(11.584 11.584)"><path class="g" d="M186.037,288.947a4.153,4.153,0,1,1,0-8.306Z" transform="translate(-181.883 -280.641)"/></g></g><g transform="translate(150.039 249.27)"><path class="c" d="M152.812,251.166a1.023,1.023,0,1,1-1.023-1.023A1.023,1.023,0,0,1,152.812,251.166Z" transform="translate(-150.766 -250.143)"/></g><g transform="translate(150.039 252.355)"><path class="c" d="M152.812,254.873a1.023,1.023,0,1,1-1.023-1.023A1.023,1.023,0,0,1,152.812,254.873Z" transform="translate(-150.766 -253.85)"/></g><g transform="translate(150.039 255.439)"><path class="c" d="M152.812,258.58a1.023,1.023,0,1,1-1.023-1.024A1.023,1.023,0,0,1,152.812,258.58Z" transform="translate(-150.766 -257.556)"/></g><g transform="translate(150.039 258.524)"><path class="c" d="M152.812,262.286a1.023,1.023,0,1,1-1.023-1.023A1.023,1.023,0,0,1,152.812,262.286Z" transform="translate(-150.766 -261.263)"/></g><g transform="translate(150.039 261.609)"><path class="c" d="M152.812,265.993a1.023,1.023,0,1,1-1.023-1.023A1.023,1.023,0,0,1,152.812,265.993Z" transform="translate(-150.766 -264.97)"/></g><g transform="translate(150.039 264.693)"><path class="c" d="M152.812,269.7a1.023,1.023,0,1,1-1.023-1.024A1.023,1.023,0,0,1,152.812,269.7Z" transform="translate(-150.766 -268.676)"/></g><g transform="translate(150.039 267.778)"><path class="c" d="M152.812,273.406a1.023,1.023,0,1,1-1.023-1.023A1.023,1.023,0,0,1,152.812,273.406Z" transform="translate(-150.766 -272.383)"/></g><g transform="translate(150.039 270.863)"><path class="c" d="M152.812,277.113a1.023,1.023,0,1,1-1.023-1.023A1.023,1.023,0,0,1,152.812,277.113Z" transform="translate(-150.766 -276.09)"/></g><g transform="translate(150.039 273.948)"><path class="c" d="M152.812,280.82a1.023,1.023,0,1,1-1.023-1.024A1.023,1.023,0,0,1,152.812,280.82Z" transform="translate(-150.766 -279.796)"/></g><g transform="translate(180.09 262.7)"><g transform="translate(4.227 0)"><path class="h" d="M192.32,278.129a.367.367,0,0,1-.259-.626L203.2,266.388a.366.366,0,0,1,.518.518l-11.143,11.115A.363.363,0,0,1,192.32,278.129Z" transform="translate(-191.954 -266.281)"/></g><g transform="translate(0 8.95)"><path class="h" d="M194,280.049l-7.124,4.1,4.118-7.115Z" transform="translate(-186.875 -277.035)"/></g></g><g transform="translate(194.044 262.535)"><path class="h" d="M205.644,268.427h-1.636a.366.366,0,0,1-.366-.366v-1.611a.366.366,0,0,1,.732,0V267.7h1.27a.366.366,0,1,1,0,.732Z" transform="translate(-203.642 -266.083)"/></g><g transform="translate(193.148 263.431)"><path class="h" d="M204.568,269.5h-1.636a.367.367,0,0,1-.366-.367v-1.61a.366.366,0,1,1,.732,0v1.245h1.27a.366.366,0,1,1,0,.732Z" transform="translate(-202.566 -267.159)"/></g></g></svg>