<svg xmlns="http://www.w3.org/2000/svg" xmlns:xlink="http://www.w3.org/1999/xlink" width="236.329" height="188.961" viewBox="0 0 236.329 188.961"><defs><style>.a{opacity:0.5;}.b{fill:#fff;}.c{fill:url(#a);}.d{fill:url(#b);}.e{fill:url(#c);}.f{fill:url(#d);}.g{fill:url(#e);}.h{fill:url(#f);}.i{fill:url(#g);}.j{fill:url(#h);}.k{fill:url(#i);}.l{fill:url(#j);}</style><linearGradient id="a" x1="-123.683" y1="23.212" x2="-122.542" y2="23.212" gradientUnits="objectBoundingBox"><stop offset="0" stop-color="#7bdaff"/><stop offset="1" stop-color="#59bdef"/></linearGradient><linearGradient id="b" x1="-218.68" y1="29.639" x2="-219.787" y2="28.904" gradientUnits="objectBoundingBox"><stop offset="0.768" stop-color="#59bdef"/><stop offset="0.845" stop-color="#54b8eb"/><stop offset="0.932" stop-color="#48aae1"/><stop offset="1" stop-color="#3a9bd5"/></linearGradient><linearGradient id="c" x1="-3.743" y1="30.656" x2="-4.843" y2="29.902" xlink:href="#b"/><linearGradient id="d" x1="-141.951" y1="41.212" x2="-141.951" y2="39.76" gradientUnits="objectBoundingBox"><stop offset="0.768" stop-color="#3a9bd5"/><stop offset="0.839" stop-color="#3796d1"/><stop offset="0.918" stop-color="#3088c8"/><stop offset="1" stop-color="#2573ba"/></linearGradient><linearGradient id="e" x1="-142.528" y1="39.781" x2="-141.397" y2="40.567" xlink:href="#a"/><linearGradient id="f" x1="-18.466" y1="-1.705" x2="-17.325" y2="-1.705" xlink:href="#a"/><linearGradient id="g" x1="-30.398" y1="-1.745" x2="-31.505" y2="-2.48" xlink:href="#b"/><linearGradient id="h" x1="-52.387" y1="-1.525" x2="-53.487" y2="-2.278" xlink:href="#b"/><linearGradient id="i" x1="-20.779" y1="-2.244" x2="-20.779" y2="-3.697" xlink:href="#d"/><linearGradient id="j" x1="-21.078" y1="-3.675" x2="-19.947" y2="-2.889" xlink:href="#a"/></defs><g transform="translate(-195.787 -128.982)"><g class="a" transform="translate(365.637 147.187)"><path class="b" d="M440.392,180.063h0c-.013-.034-.028-.069-.042-.1l-.03-.072c-.01-.025-.021-.05-.032-.074a4.3,4.3,0,0,0-1.7-2.09l-.208-.12h0l-25.153-14.527-25.152-14.528h0l-.207-.12a2.068,2.068,0,0,0-2.081-.094c-.017.008-.033.017-.049.026l-.05.028-3.321,1.915,1.914.812-6.642,35.218a4.986,4.986,0,0,0,.361,2.812l.031.076c.01.024.02.048.03.07a4.3,4.3,0,0,0,1.7,2.092l50.167,28.975-.463,2.209,3.146-1.822c.017-.01.033-.017.05-.028a2.586,2.586,0,0,0,1.248-1.884l6.8-36.061A4.955,4.955,0,0,0,440.392,180.063Z" transform="translate(-374.303 -148.098)"/><g transform="translate(0 1.885)"><path class="c" d="M427.059,222.661l-50.72-29.294a5.306,5.306,0,0,1-2.078-5.308l6.7-35.548c.386-2.046,1.942-2.986,3.476-2.1l50.719,29.295a5.3,5.3,0,0,1,2.079,5.307l-6.7,35.548C430.148,222.606,428.592,223.546,427.059,222.661Z" transform="translate(-374.141 -150.078)"/><path class="d" d="M436.342,180.336l-25.153-14.528L403.308,207.6l24.932,15.7a2.31,2.31,0,0,0,3.635-1.724l6.8-36.061A5.248,5.248,0,0,0,436.342,180.336Z" transform="translate(-375.53 -150.828)"/><path class="e" d="M384.646,150.534,409.8,165.06l-7.832,41.525-25.422-13.1a5.245,5.245,0,0,1-2.334-5.17l6.8-36.061A2.308,2.308,0,0,1,384.646,150.534Z" transform="translate(-374.14 -150.08)"/><path class="f" d="M374.55,192.582a4.956,4.956,0,0,0,2.014,2.459l50.3,29.056a2.391,2.391,0,0,0,2.455.122l-22.538-41.525Z" transform="translate(-374.159 -151.633)"/><path class="g" d="M437.369,182.047a4.956,4.956,0,0,0-2.014-2.459l-50.306-29.055a2.391,2.391,0,0,0-2.455-.123l22.539,41.525Z" transform="translate(-374.543 -150.08)"/></g></g><g transform="translate(195.787 128.982)"><path class="b" d="M196.771,209.731h0v0c.034-.086.07-.17.1-.256.025-.061.05-.121.075-.182s.053-.126.081-.188a10.873,10.873,0,0,1,4.3-5.283l.523-.3h0l63.54-36.7,63.54-36.7h0l.523-.3a5.226,5.226,0,0,1,5.256-.239c.044.02.084.044.127.065s.084.045.125.07l8.389,4.837-4.836,2.052,16.78,88.967a12.6,12.6,0,0,1-.912,7.105c-.025.065-.052.127-.079.191s-.049.12-.077.179a10.866,10.866,0,0,1-4.3,5.284L223.2,311.527l1.168,5.583-7.946-4.6c-.041-.024-.084-.045-.124-.07a6.531,6.531,0,0,1-3.151-4.76l-17.182-91.1A12.508,12.508,0,0,1,196.771,209.731Z" transform="translate(-195.787 -128.982)"/><g transform="translate(8.241 4.762)"><path class="h" d="M230.463,317.339l128.127-74c3.874-2.238,6.225-8.241,5.25-13.41l-16.937-89.8c-.974-5.168-4.905-7.543-8.78-5.306L210,208.827c-3.875,2.238-6.225,8.241-5.25,13.409l16.936,89.8C222.657,317.2,226.589,319.577,230.463,317.339Z" transform="translate(-204.444 -133.983)"/><path class="i" d="M210.515,210.42l63.54-36.7,19.91,105.562-62.983,39.649c-4.164,2.4-8.275.455-9.181-4.354l-17.182-91.1A13.251,13.251,0,0,1,210.515,210.42Z" transform="translate(-204.44 -135.878)"/><path class="j" d="M341.08,135.133l-63.54,36.7,19.786,104.9,64.221-33.086a13.254,13.254,0,0,0,5.9-13.062l-17.182-91.1C349.354,134.678,345.244,132.729,341.08,135.133Z" transform="translate(-207.925 -133.989)"/><path class="k" d="M364.169,241.356a12.52,12.52,0,0,1-5.089,6.211L232,320.965a6.041,6.041,0,0,1-6.2.31l56.937-104.9Z" transform="translate(-205.459 -137.911)"/><path class="l" d="M205.475,214.743a12.519,12.519,0,0,1,5.089-6.211l127.08-73.4a6.041,6.041,0,0,1,6.2-.31l-56.937,104.9Z" transform="translate(-204.49 -133.989)"/></g></g></g></svg>