<svg xmlns="http://www.w3.org/2000/svg" width="191.794" height="143.064" viewBox="0 0 191.794 143.064"><defs><style>.a{fill:#063b59;}.b,.c{fill:#26779b;}.c,.g{opacity:0.25;}.c,.d,.g{mix-blend-mode:multiply;isolation:isolate;}.d{opacity:0.2;}.e{fill:#014b7c;}.f{fill:#d2eff7;}</style></defs><g transform="translate(-44.518 -151.511)"><g transform="translate(44.518 151.511)"><ellipse class="a" cx="74.76" cy="17.348" rx="74.76" ry="17.348" transform="translate(21.137 108.369)"/><g transform="translate(0 0)"><g transform="translate(69.825 24.625)"><rect class="b" width="14.213" height="26.128" rx="6.088"/><path class="c" d="M127.434,215.434h-.971v26.127h.971a6.134,6.134,0,0,0,6.135-6.135V221.569A6.134,6.134,0,0,0,127.434,215.434Z" transform="translate(-119.357 -215.434)"/></g><g transform="translate(107.341 24.625)"><rect class="b" width="14.213" height="26.128" rx="6.088" transform="translate(14.213 26.128) rotate(-180)"/><path class="c" d="M168.944,215.434h.971v26.127h-.971a6.135,6.135,0,0,1-6.135-6.135V221.569A6.135,6.135,0,0,1,168.944,215.434Z" transform="translate(-162.809 -215.434)"/></g><path class="b" d="M185.316,243.326a13.254,13.254,0,0,0-11.19-9.628,326.152,326.152,0,0,0-37.53-2.407,318.342,318.342,0,0,0-37.177,2.4,13.25,13.25,0,0,0-11.144,9.541L74.169,292.943a12.479,12.479,0,0,0-.315,5.4l2.756,17.1a9.422,9.422,0,0,0,8.1,7.848c10.744,1.385,32.155,3.776,51.89,3.776s41.146-2.391,51.891-3.776a9.421,9.421,0,0,0,8.1-7.848l2.764-17.147a12.5,12.5,0,0,0-.293-5.316Z" transform="translate(-40.916 -193.398)"/><g transform="translate(65.615 51.18)"><g class="d" transform="translate(2.526 2.852)"><path class="b" d="M181.87,267.414l-16.835-16.835h-44.2l-4.874,42.495,17.871,17.87c3.17.168,6.391.264,9.671.264,14.383,0,31.387-2.765,46.317-5.979Z" transform="translate(-115.959 -250.579)"/></g><g transform="translate(2.526 0)"><path class="e" d="M164.6,258.352l.053.034c.017.012.035.023.053.033l.052.034.053.034.053.034.053.034.052.034.053.034.053.033.053.034.053.034.052.034.053.034.053.034.053.034.052.033a6.1,6.1,0,1,0,6.8-10.127l-.053-.034-.053-.034-.052-.034-.053-.033-.053-.034-.053-.034-.053-.034-.052-.034-.053-.033c-.018-.013-.035-.023-.053-.034l-.053-.034-.053-.034-.052-.034-.054-.034-.052-.034-.053-.034a6.1,6.1,0,1,0-6.8,10.127Z" transform="translate(-123.457 -247.171)"/><path class="e" d="M166.79,281.838l.053.034.052.034.053.034.053.034.053.034.052.033.053.034.053.034.053.034.053.034.052.034.053.034.053.034.053.033.053.034a6.1,6.1,0,1,0,6.8-10.127l-.053-.034-.052-.034-.053-.034-.053-.033c-.017-.013-.035-.023-.053-.035l-.053-.034-.052-.034-.053-.034-.053-.034-.053-.034-.053-.034-.052-.033-.053-.034-.053-.034-.053-.034-.053-.034a6.1,6.1,0,1,0-6.8,10.127Z" transform="translate(-123.806 -251.001)"/><path class="e" d="M131.665,248.772l-.052-.034-.053-.034-.053-.034-.053-.033-.052-.034-.053-.034-.053-.034-.053-.034-.053-.034-.052-.033-.053-.034-.053-.034-.053-.034-.053-.034-.053-.034-.052-.034a6.1,6.1,0,1,0-6.8,10.127l.053.034.053.033c.017.013.035.023.053.034l.052.034.053.034.053.034.053.034.053.034.052.033.053.034.053.034.053.034.053.034.052.034.053.033.053.034a6.1,6.1,0,1,0,6.8-10.127Z" transform="translate(-116.831 -247.171)"/><path class="e" d="M151.955,248.772l-.053-.034-.053-.034-.053-.034-.052-.033-.053-.034-.053-.034-.053-.034-.053-.034-.052-.034-.053-.033-.053-.034-.053-.034-.052-.034-.054-.034-.052-.034-.053-.034a6.1,6.1,0,1,0-6.8,10.127l.052.034.053.033c.018.013.035.023.053.034l.053.034.053.034.052.034.053.034.053.034.053.033.053.034.052.034.053.034.053.034.053.034.052.033c.018.013.035.023.053.034a6.1,6.1,0,1,0,6.8-10.127Z" transform="translate(-120.144 -247.171)"/><path class="e" d="M129.53,272.225l-.052-.034-.053-.034-.053-.034-.053-.034-.052-.033-.053-.034-.053-.034-.053-.034-.053-.034-.052-.034-.053-.034-.053-.033-.053-.034-.053-.034-.053-.034-.052-.034a6.1,6.1,0,1,0-6.8,10.127l.053.034.052.034.054.034.052.034.053.034.053.033c.017.013.035.023.053.035l.053.033.052.034.053.034.053.034.053.034.053.034.052.034.053.033.053.035a6.1,6.1,0,1,0,6.8-10.128Z" transform="translate(-116.482 -251.001)"/><path class="e" d="M151.955,272.225l-.053-.034-.053-.034-.053-.034-.052-.034-.053-.033-.053-.034-.053-.034-.053-.034-.052-.034-.053-.034-.053-.034-.053-.033-.052-.034-.053-.034-.053-.034-.053-.034a6.1,6.1,0,1,0-6.8,10.127l.052.034.053.034.053.034.053.034.053.034.052.034.053.033.053.034.053.034.053.034.052.034.053.034.053.034.053.034.052.033c.018.012.036.023.054.035a6.1,6.1,0,1,0,6.8-10.128Z" transform="translate(-120.144 -251.001)"/><path class="e" d="M126.327,295.677l-.053-.034-.053-.034-.053-.034-.053-.034-.052-.034-.053-.034-.053-.033-.053-.034-.053-.034-.052-.034-.053-.034-.053-.034-.053-.034-.052-.033-.053-.034-.053-.034a6.1,6.1,0,1,0-6.8,10.127l.052.034.053.034.053.034.053.034c.017.012.035.023.053.033s.034.023.052.034l.053.034.053.034.053.034.053.034.052.033.053.034.053.034.053.034.052.034.053.034a6.1,6.1,0,1,0,6.8-10.127Z" transform="translate(-115.959 -254.83)"/><path class="e" d="M177.582,295.677l-.053-.034-.053-.034-.053-.034-.052-.034-.053-.034-.053-.034-.053-.033-.053-.034-.052-.034-.053-.034L177,295.3l-.053-.034-.052-.033-.053-.034-.053-.034-.053-.034a6.1,6.1,0,1,0-6.8,10.127l.052.034.053.034.053.034.053.034.053.033c.017.013.035.023.052.034l.053.034.053.034.053.034.053.034.052.034.053.033.053.034.053.034.053.034.052.034a6.1,6.1,0,1,0,6.8-10.127Z" transform="translate(-124.329 -254.83)"/><path class="e" d="M151.955,295.677c-.018-.013-.035-.023-.053-.034l-.053-.034-.053-.034-.052-.034-.053-.034-.053-.034-.053-.033-.053-.034-.052-.034-.053-.034-.053-.034-.053-.034-.052-.033-.053-.034-.053-.034-.053-.034a6.1,6.1,0,1,0-6.8,10.127l.052.034.053.034.053.034.053.034c.017.012.035.023.053.033s.035.023.052.034l.053.034.053.034.053.034.053.034.052.033c.018.013.035.023.053.034l.053.034.053.034.052.034.053.034a6.1,6.1,0,1,0,6.8-10.127Z" transform="translate(-120.144 -254.83)"/></g><circle class="f" cx="6.1" cy="6.1" r="6.1" transform="translate(6.993 0)"/><circle class="f" cx="6.1" cy="6.1" r="6.1" transform="translate(40.945 0)"/><circle class="f" cx="6.1" cy="6.1" r="6.1" transform="translate(23.969)"/><circle class="f" cx="6.1" cy="6.1" r="6.1" transform="translate(5.207 19.623)"/><circle class="f" cx="6.1" cy="6.1" r="6.1" transform="translate(42.732 19.623)"/><circle class="f" cx="6.1" cy="6.1" r="6.1" transform="translate(23.969 19.623)"/><circle class="f" cx="6.1" cy="6.1" r="6.1" transform="translate(0 45.346) rotate(-45)"/><circle class="f" cx="6.1" cy="6.1" r="6.1" transform="translate(44.515 40.299) rotate(-9.196)"/><circle class="f" cx="6.1" cy="6.1" r="6.1" transform="translate(22.734 40.805) rotate(-13.24)"/></g><path class="e" d="M136.616,321c-23.972,0-45.023-4.73-62.823-10.445.025.242.038.484.077.725l2.756,17.1a9.422,9.422,0,0,0,8.1,7.848c10.744,1.385,32.155,3.776,51.89,3.776s41.146-2.391,51.891-3.776a9.421,9.421,0,0,0,8.1-7.848l2.764-17.147c.005-.031.005-.061.009-.092C181.875,315.625,156.683,321,136.616,321Z" transform="translate(-40.932 -206.341)"/><path class="c" d="M90.242,302.633l14.546-69.2c-1.955.207-3.755.413-5.368.61a13.25,13.25,0,0,0-11.144,9.541L74.169,293.292a12.479,12.479,0,0,0-.315,5.4l2.756,17.1a9.422,9.422,0,0,0,8.1,7.848c3.014.388,6.868.856,11.288,1.328Z" transform="translate(-40.916 -193.747)"/><path class="c" d="M201.445,302.633,186.9,233.43c1.955.207,3.755.413,5.368.61a13.251,13.251,0,0,1,11.144,9.541l14.106,49.711a12.479,12.479,0,0,1,.315,5.4l-2.757,17.1a9.42,9.42,0,0,1-8.1,7.848c-3.014.388-6.868.856-11.288,1.328Z" transform="translate(-59.401 -193.747)"/><path class="b" d="M219.161,206.024a206.634,206.634,0,0,0-177.492,0c-6.1,2.9-8.776,9.395-6.137,14.068l1.687,3.069q4.607,4.919,9.026,9.97a6.722,6.722,0,0,0,7.95,1.411,175.551,175.551,0,0,1,16.818-7.057,6.627,6.627,0,0,0,4.476-6.632q-.536-6.683-.857-13.407a193.54,193.54,0,0,1,111.569,0q-.32,6.723-.857,13.407a6.628,6.628,0,0,0,4.476,6.632,175.565,175.565,0,0,1,16.819,7.057,6.72,6.72,0,0,0,7.949-1.411q4.419-5.05,9.026-9.97l1.688-3.069C227.938,215.419,225.261,208.921,219.161,206.024Z" transform="translate(-34.518 -186.002)"/><g class="g" transform="translate(0.014)"><path class="b" d="M68.588,202.505a214.366,214.366,0,0,1,153.9,11.667,14.179,14.179,0,0,1,3.793,2.626c.305-4.066-2.355-8.515-7.113-10.774a206.634,206.634,0,0,0-177.492,0c-4.758,2.259-7.419,6.708-7.114,10.774a14.183,14.183,0,0,1,3.794-2.626A214.244,214.244,0,0,1,68.588,202.505Z" transform="translate(-34.535 -186.002)"/></g><g transform="translate(8.084 30.959)"><path class="e" d="M44.18,235.081c1.222,1.359,2.441,2.72,3.642,4.093a6.722,6.722,0,0,0,7.95,1.411,175.551,175.551,0,0,1,16.818-7.057,6.627,6.627,0,0,0,4.476-6.632c-.1-1.3-.188-2.595-.28-3.893q-2.2.61-4.392,1.264A206.421,206.421,0,0,0,44.18,235.081Z" transform="translate(-44.18 -223.003)"/><path class="e" d="M219.25,233.528a175.561,175.561,0,0,1,16.819,7.057,6.72,6.72,0,0,0,7.949-1.411c1.2-1.373,2.421-2.734,3.643-4.093a206.475,206.475,0,0,0-28.214-10.814q-2.19-.659-4.392-1.263c-.091,1.3-.177,2.6-.28,3.892A6.628,6.628,0,0,0,219.25,233.528Z" transform="translate(-72.034 -223.003)"/></g></g></g></g></svg>