<svg width="35" height="35" viewBox="0 0 35 35" fill="none" xmlns="http://www.w3.org/2000/svg">
<path fill-rule="evenodd" clip-rule="evenodd" d="M5.86572 16.6252C6.31317 10.5905 11.3511 5.8335 17.5001 5.8335C16.5307 5.8335 15.6677 6.25841 14.9577 6.90814C14.2512 7.55462 13.6542 8.45707 13.1714 9.52384C12.6857 10.5969 12.3084 11.852 12.0531 13.214C11.8484 14.3058 11.7238 15.4568 11.6823 16.6252H5.86572ZM5.86572 18.3752H11.6823C11.7238 19.5436 11.8484 20.6946 12.0531 21.7864C12.3084 23.1484 12.6857 24.4034 13.1714 25.4765C13.6542 26.5433 14.2512 27.4457 14.9577 28.0922C15.6677 28.7419 16.5307 29.1668 17.5001 29.1668C11.3511 29.1668 6.31317 24.4098 5.86572 18.3752Z" fill="white"/>
<path d="M17.5001 5.8335C18.4694 5.8335 19.3325 6.25841 20.0425 6.90815C20.7489 7.55463 21.3459 8.45707 21.8288 9.52384C22.3145 10.5969 22.6917 11.852 22.9471 13.214C23.1518 14.3058 23.2764 15.4568 23.3179 16.6252H29.1344C28.687 10.5905 23.6491 5.8335 17.5001 5.8335Z" fill="white"/>
<path d="M22.9471 21.7864C22.6917 23.1484 22.3145 24.4034 21.8288 25.4765C21.3459 26.5433 20.7489 27.4457 20.0425 28.0922C19.3325 28.7419 18.4694 29.1668 17.5001 29.1668C23.6491 29.1668 28.687 24.4098 29.1344 18.3752H23.3179C23.2764 19.5436 23.1518 20.6946 22.9471 21.7864Z" fill="white"/>
<g opacity="0.5">
<path d="M17.5001 7.46143C17.1793 7.46143 16.7648 7.59794 16.2828 8.039C15.7973 8.48332 15.3112 9.17969 14.8818 10.1285C14.4552 11.0709 14.1088 12.2087 13.8704 13.4801C13.6827 14.4813 13.5663 15.5427 13.5254 16.6252H21.4749C21.434 15.5427 21.3175 14.4813 21.1298 13.4801C20.8914 12.2087 20.5451 11.0709 20.1185 10.1285C19.689 9.17969 19.203 8.48332 18.7174 8.039C18.2355 7.59794 17.821 7.46143 17.5001 7.46143Z" fill="white"/>
<path d="M13.8704 21.5203C14.1088 22.7917 14.4552 23.9294 14.8818 24.8719C15.3112 25.8207 15.7973 26.517 16.2828 26.9614C16.7648 27.4024 17.1793 27.5389 17.5001 27.5389C17.821 27.5389 18.2355 27.4024 18.7174 26.9614C19.203 26.517 19.689 25.8207 20.1185 24.8719C20.5451 23.9294 20.8914 22.7917 21.1298 21.5203C21.3175 20.519 21.434 19.4576 21.4749 18.3752H13.5254C13.5663 19.4576 13.6827 20.519 13.8704 21.5203Z" fill="white"/>
</g>
</svg>
