<svg width="25" height="25" viewBox="0 0 25 25" fill="none" xmlns="http://www.w3.org/2000/svg">
<path fill-rule="evenodd" clip-rule="evenodd" d="M12.0837 4.7915C8.05658 4.7915 4.79199 8.05609 4.79199 12.0832C4.79199 16.1102 8.05658 19.3748 12.0837 19.3748C16.1107 19.3748 19.3753 16.1102 19.3753 12.0832C19.3753 8.05609 16.1107 4.7915 12.0837 4.7915ZM3.54199 12.0832C3.54199 7.36574 7.36623 3.5415 12.0837 3.5415C16.8011 3.5415 20.6253 7.36574 20.6253 12.0832C20.6253 14.2169 19.8429 16.168 18.5494 17.665L21.2756 20.3912C21.5197 20.6353 21.5197 21.031 21.2756 21.2751C21.0315 21.5192 20.6358 21.5192 20.3917 21.2751L17.6655 18.5489C16.1684 19.8424 14.2174 20.6248 12.0837 20.6248C7.36623 20.6248 3.54199 16.8006 3.54199 12.0832Z" fill="white"/>
</svg>
