<svg width="30" height="30" viewBox="0 0 30 30" fill="none" xmlns="http://www.w3.org/2000/svg">
<path d="M15.5575 20.5017C15.4152 20.6598 15.2126 20.75 15 20.75C14.7874 20.75 14.5848 20.6598 14.4425 20.5017L11.4425 17.1684C11.1654 16.8605 11.1904 16.3863 11.4983 16.1092C11.8062 15.8321 12.2804 15.8571 12.5575 16.1649L14.25 18.0455L14.25 10H7C6.84905 10 6.6452 10.0001 6.5 9.99805V16C6.5 19.7713 6.5 21.6569 7.67157 22.8284C8.84315 24 10.7288 24 14.5 24H15.5C19.2712 24 21.1569 24 22.3284 22.8284C23.5 21.6569 23.5 19.7713 23.5 16V9.99805C23.3548 10.0001 23.1509 10 23 10H15.75L15.75 18.0455L17.4425 16.1649C17.7196 15.8571 18.1938 15.8321 18.5017 16.1092C18.8096 16.3863 18.8346 16.8605 18.5575 17.1684L15.5575 20.5017Z" fill="#1C274C"/>
<path opacity="0.5" d="M5 8C5 7.05719 5 6.58579 5.29289 6.29289C5.58579 6 6.05719 6 7 6H23C23.9428 6 24.4142 6 24.7071 6.29289C25 6.58579 25 7.05719 25 8C25 8.94281 25 9.41421 24.7071 9.70711C24.4142 10 23.9428 10 23 10H7C6.05719 10 5.58579 10 5.29289 9.70711C5 9.41421 5 8.94281 5 8Z" fill="#1C274C"/>
</svg>
