<svg width="35" height="35" viewBox="0 0 35 35" fill="none" xmlns="http://www.w3.org/2000/svg">
<path opacity="0.5" d="M19.8334 8.16602H15.1667C10.7669 8.16602 8.56704 8.16602 7.20021 9.53285C5.83337 10.8997 5.83337 13.0996 5.83337 17.4993C5.83337 21.8991 5.83337 24.099 7.20021 25.4658C8.56704 26.8327 10.7669 26.8327 15.1667 26.8327H19.8334C24.2332 26.8327 26.433 26.8327 27.7999 25.4658C29.1667 24.099 29.1667 21.8991 29.1667 17.4993C29.1667 13.0996 29.1667 10.8997 27.7999 9.53285C26.433 8.16602 24.2332 8.16602 19.8334 8.16602Z" fill="white"/>
<path d="M21.2917 20.9993C21.2917 20.5161 21.6835 20.1243 22.1667 20.1243H25.6667C26.15 20.1243 26.5417 20.5161 26.5417 20.9993C26.5417 21.4826 26.15 21.8743 25.6667 21.8743H22.1667C21.6835 21.8743 21.2917 21.4826 21.2917 20.9993Z" fill="white"/>
<path d="M14 16.3327C15.2887 16.3327 16.3334 15.288 16.3334 13.9993C16.3334 12.7107 15.2887 11.666 14 11.666C12.7114 11.666 11.6667 12.7107 11.6667 13.9993C11.6667 15.288 12.7114 16.3327 14 16.3327Z" fill="white"/>
<path d="M14 23.3327C18.6667 23.3327 18.6667 22.288 18.6667 20.9993C18.6667 19.7107 16.5774 18.666 14 18.666C11.4227 18.666 9.33337 19.7107 9.33337 20.9993C9.33337 22.288 9.33337 23.3327 14 23.3327Z" fill="white"/>
<path d="M22.8334 18.666V15.666H19.8334V14.666H22.8334V11.666H23.8334V14.666H26.8334V15.666H23.8334V18.666H22.8334Z" fill="white"/>
</svg>
