<svg width="35" height="35" viewBox="0 0 35 35" fill="none" xmlns="http://www.w3.org/2000/svg">
<path d="M16.7709 21.875V13.125H18.9584V21.875H16.7709ZM8.75008 21.875C8.31258 21.875 7.96015 21.7229 7.69279 21.4185C7.42543 21.1142 7.29175 20.7803 7.29175 20.4167V14.5833C7.29175 14.2188 7.42543 13.8843 7.69279 13.58C7.96015 13.2757 8.31258 13.124 8.75008 13.125H13.1251C13.5626 13.125 13.915 13.2772 14.1824 13.5815C14.4497 13.8858 14.5834 14.2197 14.5834 14.5833V15.3125H9.47925V19.6875H12.3959V17.5H14.5834V20.4167C14.5834 20.7813 14.4497 21.1157 14.1824 21.42C13.915 21.7243 13.5626 21.876 13.1251 21.875H8.75008ZM21.1459 21.875V13.125H27.7084V15.3125H23.3334V16.7708H26.2501V18.9583H23.3334V21.875H21.1459Z" fill="black" fill-opacity="0.5"/>
</svg>
