<svg width="35" height="35" viewBox="0 0 35 35" fill="none" xmlns="http://www.w3.org/2000/svg">
<path d="M21.5834 12.2498C21.5834 14.505 19.7552 16.3332 17.5001 16.3332C15.2449 16.3332 13.4167 14.505 13.4167 12.2498C13.4167 9.99467 15.2449 8.1665 17.5001 8.1665C19.7552 8.1665 21.5834 9.99467 21.5834 12.2498Z" fill="white"/>
<path opacity="0.5" d="M26.2501 12.2502C26.2501 13.861 24.9442 15.1668 23.3334 15.1668C21.7226 15.1668 20.4167 13.861 20.4167 12.2502C20.4167 10.6393 21.7226 9.3335 23.3334 9.3335C24.9442 9.3335 26.2501 10.6393 26.2501 12.2502Z" fill="white"/>
<path opacity="0.5" d="M8.74992 12.2502C8.74992 13.861 10.0558 15.1668 11.6666 15.1668C13.2774 15.1668 14.5833 13.861 14.5833 12.2502C14.5833 10.6393 13.2774 9.3335 11.6666 9.3335C10.0558 9.3335 8.74992 10.6393 8.74992 12.2502Z" fill="white"/>
<path d="M24.5 22.7498C24.5 25.005 21.366 26.8332 17.5 26.8332C13.634 26.8332 10.5 25.005 10.5 22.7498C10.5 20.4947 13.634 18.6665 17.5 18.6665C21.366 18.6665 24.5 20.4947 24.5 22.7498Z" fill="white"/>
<path opacity="0.5" d="M29.1666 22.7502C29.1666 24.361 27.0772 25.6668 24.4999 25.6668C21.9226 25.6668 19.8333 24.361 19.8333 22.7502C19.8333 21.1393 21.9226 19.8335 24.4999 19.8335C27.0772 19.8335 29.1666 21.1393 29.1666 22.7502Z" fill="white"/>
<path opacity="0.5" d="M5.83342 22.7502C5.83342 24.361 7.92275 25.6668 10.5001 25.6668C13.0774 25.6668 15.1667 24.361 15.1667 22.7502C15.1667 21.1393 13.0774 19.8335 10.5001 19.8335C7.92275 19.8335 5.83342 21.1393 5.83342 22.7502Z" fill="white"/>
</svg>
