<svg width="26" height="26" viewBox="0 0 26 26" fill="none" xmlns="http://www.w3.org/2000/svg">
<g clip-path="url(#clip0_482_2)">
<path d="M22.1527 22.1536H18.3004V16.1205C18.3004 14.6818 18.2747 12.8298 16.2967 12.8298C14.2903 12.8298 13.9832 14.3974 13.9832 16.0158V22.1532H10.131V9.74671H13.8292V11.4422H13.881C14.2511 10.8094 14.7859 10.2888 15.4285 9.93584C16.071 9.58291 16.7973 9.41088 17.5299 9.43807C21.4345 9.43807 22.1544 12.0064 22.1544 15.3476L22.1527 22.1536ZM5.78411 8.05092C4.54941 8.05113 3.54831 7.05033 3.54811 5.81564C3.5479 4.58094 4.5486 3.57984 5.78329 3.57963C7.01799 3.57933 8.01909 4.58013 8.01929 5.81482C8.0194 6.40775 7.78397 6.97643 7.3648 7.39578C6.94562 7.81513 6.37703 8.05079 5.78411 8.05092ZM7.71034 22.1537H3.85391V9.74671H7.71024V22.1536L7.71034 22.1537ZM24.0733 0.0018923H1.91813C0.871019 -0.00988895 0.0123086 0.828916 -0.000488281 1.87603V24.1236C0.0119023 25.1712 0.870512 26.0108 1.91803 25.9999H24.0733C25.123 26.0129 25.985 25.1732 25.9995 24.1236V1.8743C25.9846 0.825158 25.1225 -0.0135452 24.0733 0.000165739" fill="#0A66C2"/>
</g>
<defs>
<clipPath id="clip0_482_2">
<rect width="26" height="26" fill="white"/>
</clipPath>
</defs>
</svg>
