<svg width="35" height="35" viewBox="0 0 35 35" fill="none" xmlns="http://www.w3.org/2000/svg">
<path opacity="0.5" d="M5.83337 17.5007C5.83337 12.0009 5.83337 9.25107 7.54192 7.54253C9.25046 5.83398 12.0003 5.83398 17.5 5.83398C22.9998 5.83398 25.7496 5.83398 27.4582 7.54253C29.1667 9.25107 29.1667 12.0009 29.1667 17.5007C29.1667 23.0004 29.1667 25.7502 27.4582 27.4588C25.7496 29.1673 22.9998 29.1673 17.5 29.1673C12.0003 29.1673 9.25046 29.1673 7.54192 27.4588C5.83337 25.7502 5.83337 23.0004 5.83337 17.5007Z" fill="#0A66C2"/>
<path d="M7.54197 27.4575C9.25056 29.166 12.0005 29.166 17.5004 29.166C23.0003 29.166 25.7502 29.166 27.4588 27.4575C29.042 25.8743 29.1582 23.3969 29.1667 18.666H25.4803C24.4242 18.666 23.8962 18.666 23.4321 18.8795C22.9679 19.093 22.6243 19.4938 21.937 20.2956L21.937 20.2957L21.2307 21.1197C20.5434 21.9215 20.1997 22.3224 19.7356 22.5359C19.2714 22.7493 18.7434 22.7493 17.6874 22.7493H17.3134C16.2573 22.7493 15.7293 22.7493 15.2652 22.5359C14.801 22.3224 14.4574 21.9215 13.7701 21.1197L13.0638 20.2957C12.3765 19.4939 12.0328 19.093 11.5687 18.8795C11.1045 18.666 10.5765 18.666 9.52045 18.666H5.83337C5.84189 23.3969 5.95872 25.8743 7.54197 27.4575Z" fill="#0A66C2"/>
<path d="M18.119 16.7191C17.9549 16.8832 17.7323 16.9754 17.5003 16.9754C17.2682 16.9754 17.0456 16.8832 16.8816 16.7191L13.0316 12.8691C12.6898 12.5274 12.6898 11.9734 13.0316 11.6317C13.3733 11.29 13.9273 11.29 14.269 11.6317L16.6253 13.988L16.6253 5.83426C16.9089 5.83398 17.2004 5.83398 17.5 5.83398C17.7999 5.83398 18.0915 5.83398 18.3753 5.83426V13.988L20.7315 11.6317C21.0733 11.29 21.6273 11.29 21.969 11.6317C22.3107 11.9734 22.3107 12.5274 21.969 12.8691L18.119 16.7191Z" fill="#0A66C2"/>
</svg>
