<svg width="35" height="35" viewBox="0 0 35 35" fill="none" xmlns="http://www.w3.org/2000/svg">
<path d="M29.0691 10.0027C29.1962 9.86799 29.3496 9.76064 29.5198 9.68726C29.6899 9.61389 29.8732 9.57605 30.0585 9.57605C30.2438 9.57605 30.4272 9.61389 30.5973 9.68726C30.7675 9.76064 30.9208 9.86799 31.048 10.0027C31.5949 10.5715 31.5949 11.4932 31.048 12.0619L14.2334 29.575C13.5978 30.2487 12.8312 30.7854 11.9807 31.1522C11.1302 31.5191 10.2137 31.7083 9.2875 31.7083C8.36127 31.7083 7.44481 31.5191 6.59431 31.1522C5.74382 30.7854 4.97723 30.2487 4.34156 29.575C1.6101 26.7313 1.6101 22.1186 4.34156 19.2734L19.1772 3.82086C19.5586 3.41665 20.0186 3.09463 20.5289 2.87453C21.0392 2.65443 21.5891 2.54089 22.1449 2.54089C22.7007 2.54089 23.2506 2.65443 23.7609 2.87453C24.2712 3.09463 24.7312 3.41665 25.1126 3.82086C26.7518 5.52711 26.7518 8.29503 25.1126 10.0027L12.253 23.3917C12.1259 23.5262 11.9726 23.6334 11.8026 23.7066C11.6326 23.7798 11.4494 23.8176 11.2643 23.8176C11.0792 23.8176 10.896 23.7798 10.726 23.7066C10.556 23.6334 10.4027 23.5262 10.2755 23.3917C10.0126 23.1134 9.86606 22.745 9.86606 22.3621C9.86606 21.9792 10.0126 21.6108 10.2755 21.3325L23.1351 7.94065C23.3985 7.66227 23.5453 7.29358 23.5453 6.91034C23.5453 6.5271 23.3985 6.15842 23.1351 5.88003C23.0079 5.74528 22.8546 5.63793 22.6844 5.56456C22.5143 5.49118 22.3309 5.45334 22.1456 5.45334C21.9603 5.45334 21.777 5.49118 21.6068 5.56456C21.4367 5.63793 21.2833 5.74528 21.1561 5.88003L6.3176 21.3354C4.6799 23.0417 4.6799 25.8096 6.3176 27.5159C6.69903 27.9201 7.15901 28.2421 7.66933 28.4622C8.17965 28.6823 8.72955 28.7958 9.28531 28.7958C9.84107 28.7958 10.391 28.6823 10.9013 28.4622C11.4116 28.2421 11.8716 27.9201 12.253 27.5159L29.0691 10.0027Z" fill="black" fill-opacity="0.5"/>
</svg>
