<svg width="35" height="35" viewBox="0 0 35 35" fill="none" xmlns="http://www.w3.org/2000/svg">
<path opacity="0.5" d="M5.8335 17.5C5.8335 12.0003 5.8335 9.25046 7.54204 7.54192C9.25058 5.83337 12.0004 5.83337 17.5002 5.83337C22.9999 5.83337 25.7497 5.83337 27.4583 7.54192C29.1668 9.25046 29.1668 12.0003 29.1668 17.5C29.1668 22.9998 29.1668 25.7496 27.4583 27.4582C25.7497 29.1667 22.9999 29.1667 17.5002 29.1667C12.0004 29.1667 9.25058 29.1667 7.54204 27.4582C5.8335 25.7496 5.8335 22.9998 5.8335 17.5Z" fill="white"/>
<path d="M7.54209 27.4581C9.25068 29.1666 12.0006 29.1666 17.5005 29.1666C23.0004 29.1666 25.7503 29.1666 27.4589 27.4581C29.0422 25.8749 29.1583 23.3975 29.1668 18.6666H25.4804C24.4244 18.6666 23.8963 18.6666 23.4322 18.8801C22.968 19.0936 22.6244 19.4945 21.9371 20.2962L21.9371 20.2963L21.2308 21.1203C20.5435 21.9221 20.1999 22.323 19.7357 22.5365C19.2716 22.75 18.7435 22.75 17.6875 22.75H17.3135C16.2575 22.75 15.7294 22.75 15.2653 22.5365C14.8011 22.323 14.4575 21.9221 13.7702 21.1203L13.0639 20.2963C12.3766 19.4945 12.033 19.0936 11.5688 18.8801C11.1047 18.6666 10.5766 18.6666 9.52057 18.6666H5.8335C5.84202 23.3975 5.95884 25.8749 7.54209 27.4581Z" fill="white"/>
<path d="M18.1191 16.7185C17.955 16.8826 17.7325 16.9748 17.5004 16.9748C17.2683 16.9748 17.0458 16.8826 16.8817 16.7185L13.0317 12.8685C12.69 12.5268 12.69 11.9728 13.0317 11.6311C13.3734 11.2894 13.9274 11.2894 14.2691 11.6311L16.6254 13.9874L16.6254 5.83365C16.909 5.83337 17.2005 5.83337 17.5002 5.83337C17.8 5.83337 18.0916 5.83337 18.3754 5.83365V13.9874L20.7317 11.6311C21.0734 11.2894 21.6274 11.2894 21.9691 11.6311C22.3108 11.9728 22.3108 12.5268 21.9691 12.8685L18.1191 16.7185Z" fill="white"/>
</svg>
