<svg width="35" height="35" viewBox="0 0 35 35" fill="none" xmlns="http://www.w3.org/2000/svg">
<path fill-rule="evenodd" clip-rule="evenodd" d="M17.5001 29.1667C20.5943 29.1667 23.5617 27.9375 25.7497 25.7496C27.9376 23.5617 29.1667 20.5942 29.1667 17.5C29.1667 14.4058 27.9376 11.4384 25.7497 9.25044C23.5617 7.06252 20.5943 5.83335 17.5001 5.83335C14.4059 5.83335 11.4384 7.06252 9.2505 9.25044C7.06258 11.4384 5.83341 14.4058 5.83341 17.5C5.83341 20.5942 7.06258 23.5617 9.2505 25.7496C11.4384 27.9375 14.4059 29.1667 17.5001 29.1667ZM17.5001 32.0834C9.44571 32.0834 2.91675 25.5544 2.91675 17.5C2.91675 9.44565 9.44571 2.91669 17.5001 2.91669C25.5545 2.91669 32.0834 9.44565 32.0834 17.5C32.0834 25.5544 25.5545 32.0834 17.5001 32.0834ZM13.1251 18.9584C13.1251 20.1187 13.586 21.2315 14.4065 22.0519C15.227 22.8724 16.3398 23.3334 17.5001 23.3334C18.6604 23.3334 19.7732 22.8724 20.5937 22.0519C21.4141 21.2315 21.8751 20.1187 21.8751 18.9584H23.3334C23.3334 20.5054 22.7188 21.9892 21.6249 23.0831C20.5309 24.1771 19.0472 24.7917 17.5001 24.7917C15.953 24.7917 14.4693 24.1771 13.3753 23.0831C12.2813 21.9892 11.6667 20.5054 11.6667 18.9584H13.1251ZM13.8542 16.0417C14.4344 16.0417 14.9908 15.8112 15.401 15.401C15.8113 14.9907 16.0417 14.4343 16.0417 13.8542C16.0417 13.274 15.8113 12.7176 15.401 12.3074C14.9908 11.8972 14.4344 11.6667 13.8542 11.6667C13.2741 11.6667 12.7177 11.8972 12.3075 12.3074C11.8972 12.7176 11.6667 13.274 11.6667 13.8542C11.6667 14.4343 11.8972 14.9907 12.3075 15.401C12.7177 15.8112 13.2741 16.0417 13.8542 16.0417ZM21.1459 16.0417C21.7261 16.0417 22.2825 15.8112 22.6927 15.401C23.1029 14.9907 23.3334 14.4343 23.3334 13.8542C23.3334 13.274 23.1029 12.7176 22.6927 12.3074C22.2825 11.8972 21.7261 11.6667 21.1459 11.6667C20.5658 11.6667 20.0094 11.8972 19.5991 12.3074C19.1889 12.7176 18.9584 13.274 18.9584 13.8542C18.9584 14.4343 19.1889 14.9907 19.5991 15.401C20.0094 15.8112 20.5658 16.0417 21.1459 16.0417Z" fill="black" fill-opacity="0.5"/>
</svg>
