<svg width="35" height="35" viewBox="0 0 35 35" fill="none" xmlns="http://www.w3.org/2000/svg">
<g clip-path="url(#clip0_1030_32)">
<path d="M13.1294 12.0312C13.1294 12.9015 12.7837 13.7361 12.1683 14.3514C11.553 14.9668 10.7184 15.3125 9.84814 15.3125C8.9779 15.3125 8.1433 14.9668 7.52795 14.3514C6.9126 13.7361 6.56689 12.9015 6.56689 12.0312C6.56689 11.161 6.9126 10.3264 7.52795 9.71106C8.1433 9.0957 8.9779 8.75 9.84814 8.75C10.7184 8.75 11.553 9.0957 12.1683 9.71106C12.7837 10.3264 13.1294 11.161 13.1294 12.0312Z" fill="black" fill-opacity="0.5"/>
<path d="M3.28125 4.375C2.41101 4.375 1.57641 4.7207 0.961056 5.33606C0.345702 5.95141 0 6.78601 0 7.65625L0 27.3438C0 28.214 0.345702 29.0486 0.961056 29.6639C1.57641 30.2793 2.41101 30.625 3.28125 30.625H31.7188C32.589 30.625 33.4236 30.2793 34.0389 29.6639C34.6543 29.0486 35 28.214 35 27.3438V7.65625C35 6.78601 34.6543 5.95141 34.0389 5.33606C33.4236 4.7207 32.589 4.375 31.7188 4.375H3.28125ZM31.7188 6.5625C32.0088 6.5625 32.287 6.67773 32.4921 6.88285C32.6973 7.08797 32.8125 7.36617 32.8125 7.65625V20.7812L24.5547 16.5222C24.3495 16.4194 24.1173 16.3838 23.8908 16.4203C23.6643 16.4568 23.455 16.5636 23.2925 16.7256L15.1769 24.8412L9.35812 20.965C9.14804 20.8251 8.89604 20.7622 8.64487 20.7869C8.39369 20.8117 8.15879 20.9225 7.98 21.1006L2.19187 26.25V27.4312C2.18926 27.4022 2.1878 27.373 2.1875 27.3438V7.65625C2.1875 7.36617 2.30273 7.08797 2.50785 6.88285C2.71297 6.67773 2.99117 6.5625 3.28125 6.5625H31.7188Z" fill="black" fill-opacity="0.5"/>
</g>
<defs>
<clipPath id="clip0_1030_32">
<rect width="35" height="35" fill="white"/>
</clipPath>
</defs>
</svg>
