<svg width="39" height="39" viewBox="0 0 39 39" fill="none" xmlns="http://www.w3.org/2000/svg">
<path fill-rule="evenodd" clip-rule="evenodd" d="M25.0296 6.56957C25.0823 6.03368 25.5595 5.64198 26.0953 5.6947C28.2935 5.91091 29.9879 6.41679 31.2855 7.71446C32.4488 8.87772 32.9757 10.3597 33.2282 12.2379C33.4749 14.0728 33.4749 16.4246 33.4749 19.4255V19.5747C33.4749 19.9834 33.4749 20.38 33.4743 20.765C33.4747 20.7766 33.4749 20.7883 33.4749 20.8C33.4749 20.8128 33.4747 20.8256 33.4742 20.8384C33.4697 23.2461 33.4392 25.1932 33.2282 26.7623C32.9757 28.6404 32.4488 30.1225 31.2855 31.2857C30.1223 32.449 28.6402 32.9759 26.7621 33.2284C24.9272 33.4751 22.5754 33.4751 19.5745 33.4751H19.4253C16.4244 33.4751 14.0727 33.4751 12.2377 33.2284C10.3596 32.9759 8.87753 32.449 7.71428 31.2857C6.55103 30.1225 6.02408 28.6404 5.77157 26.7623C5.56061 25.1932 5.53006 23.2461 5.52565 20.8384C5.52515 20.8256 5.5249 20.8128 5.5249 20.8C5.5249 20.7883 5.52511 20.7766 5.52552 20.765C5.5249 20.38 5.5249 19.9834 5.5249 19.5747V19.4255C5.52489 16.4246 5.52487 14.0728 5.77157 12.2379C6.02408 10.3597 6.55103 8.87772 7.71428 7.71446C9.01195 6.41679 10.7063 5.91091 12.9045 5.6947C13.4404 5.64198 13.9175 6.03368 13.9702 6.56957C14.0229 7.10546 13.6312 7.58262 13.0953 7.63533C11.0681 7.83473 9.91831 8.26815 9.09314 9.09332C8.35258 9.83387 7.92762 10.8358 7.70418 12.4977C7.47697 14.1877 7.4749 16.4084 7.4749 19.5001C7.4749 19.6095 7.47491 19.7178 7.47492 19.825H10.6082C10.6671 19.825 10.7253 19.8249 10.7828 19.8249C11.7871 19.8238 12.5824 19.823 13.2979 20.152C14.0134 20.4811 14.5304 21.0855 15.1831 21.8487C15.2205 21.8924 15.2583 21.9366 15.2967 21.9813L16.0837 22.8996C16.9076 23.8607 17.1388 24.0985 17.4167 24.2263C17.6946 24.3541 18.0256 24.375 19.2916 24.375H19.7082C20.9742 24.375 21.3052 24.3541 21.5831 24.2263C21.861 24.0985 22.0922 23.8607 22.9161 22.8996L23.7032 21.9813C23.7415 21.9366 23.7793 21.8924 23.8167 21.8487C24.4694 21.0855 24.9864 20.4811 25.7019 20.152C26.4174 19.823 27.2127 19.8238 28.217 19.8249C28.2745 19.8249 28.3327 19.825 28.3916 19.825H31.5249C31.5249 19.7178 31.5249 19.6095 31.5249 19.5001C31.5249 16.4084 31.5228 14.1877 31.2956 12.4977C31.0722 10.8358 30.6472 9.83388 29.9067 9.09332C29.0815 8.26815 27.9317 7.83473 25.9045 7.63533C25.3686 7.58262 24.9769 7.10546 25.0296 6.56957ZM31.5204 21.775H28.3916C27.1256 21.775 26.7946 21.7958 26.5167 21.9236C26.2388 22.0515 26.0076 22.2892 25.1837 23.2504L24.3967 24.1686C24.3583 24.2133 24.3205 24.2575 24.2831 24.3012C23.6304 25.0644 23.1134 25.6688 22.3979 25.9979C21.6824 26.327 20.8871 26.3262 19.8828 26.3251C19.8253 26.325 19.7671 26.325 19.7082 26.325H19.2916C19.2327 26.325 19.1745 26.325 19.117 26.3251C18.1127 26.3262 17.3174 26.327 16.6019 25.9979C15.8864 25.6688 15.3694 25.0644 14.7167 24.3012C14.6793 24.2575 14.6415 24.2133 14.6032 24.1686L13.8161 23.2504C12.9922 22.2892 12.761 22.0515 12.4831 21.9236C12.2052 21.7958 11.8742 21.775 10.6082 21.775H7.47945C7.49172 23.7284 7.53702 25.2591 7.70418 26.5024C7.92762 28.1644 8.35258 29.1663 9.09314 29.9069C9.83369 30.6474 10.8356 31.0724 12.4976 31.2958C14.1875 31.523 16.4082 31.5251 19.4999 31.5251C22.5916 31.5251 24.8123 31.523 26.5023 31.2958C28.1642 31.0724 29.1661 30.6474 29.9067 29.9069C30.6472 29.1663 31.0722 28.1644 31.2956 26.5024C31.4628 25.2591 31.5081 23.7284 31.5204 21.775Z" fill="white"/>
<path d="M18.7916 19.4582V15.2082H14.5416V13.7915H18.7916V9.5415H20.2083V13.7915H24.4583V15.2082H20.2083V19.4582H18.7916Z" fill="white"/>
</svg>
