<svg width="43" height="43" viewBox="0 0 43 43" fill="none" xmlns="http://www.w3.org/2000/svg">
<circle cx="21.4999" cy="12.8998" r="5.73333" fill="white"/>
<path fill-rule="evenodd" clip-rule="evenodd" d="M31.5332 27.7148C32.1269 27.7148 32.6082 28.1961 32.6082 28.7898V29.7419H33.5602C34.1539 29.7419 34.6352 30.2232 34.6352 30.8169C34.6352 31.4106 34.1539 31.8919 33.5602 31.8919H32.6082V32.8439C32.6082 33.4376 32.1269 33.9189 31.5332 33.9189C30.9395 33.9189 30.4582 33.4376 30.4582 32.8439V31.8919H29.5062C28.9124 31.8919 28.4312 31.4106 28.4312 30.8169C28.4312 30.2232 28.9124 29.7419 29.5062 29.7419H30.4582L30.4582 28.7898C30.4582 28.1961 30.9395 27.7148 31.5332 27.7148Z" fill="white"/>
<path opacity="0.4" d="M27.4371 33.2902C25.7747 33.9886 23.7217 34.4012 21.5001 34.4012C15.9589 34.4012 11.4668 31.8343 11.4668 28.6679C11.4668 25.5015 15.9589 22.9346 21.5001 22.9346C25.2413 22.9346 28.5043 24.1046 30.2294 25.8393C29.4074 26.2032 28.766 26.9005 28.4766 27.7597C27.2006 28.1895 26.2816 29.3958 26.2816 30.8167C26.2816 31.8101 26.7308 32.6986 27.4371 33.2902Z" fill="white"/>
</svg>
