<svg width="35" height="35" viewBox="0 0 35 35" fill="none" xmlns="http://www.w3.org/2000/svg">
<path opacity="0.5" fill-rule="evenodd" clip-rule="evenodd" d="M20.1586 6.0116C19.7265 5.83398 19.1788 5.83398 18.0833 5.83398C16.9879 5.83398 16.4401 5.83398 16.0081 6.0116C15.432 6.24842 14.9743 6.70266 14.7356 7.27439C14.6267 7.53538 14.5841 7.8389 14.5674 8.28164C14.5429 8.93228 14.2067 9.53453 13.6385 9.86007C13.0704 10.1856 12.3767 10.1734 11.7967 9.8692C11.402 9.66217 11.1159 9.54704 10.8337 9.51017C10.2154 9.4294 9.59021 9.59566 9.09552 9.97238C8.72449 10.2549 8.45062 10.7257 7.90289 11.6672C7.35515 12.6088 7.08128 13.0795 7.02024 13.5397C6.93885 14.1533 7.10638 14.7738 7.48597 15.2647C7.65923 15.4888 7.90274 15.6772 8.28065 15.9128C8.83623 16.2593 9.19371 16.8495 9.19367 17.5007C9.19364 18.1518 8.83618 18.7419 8.28065 19.0883C7.90267 19.324 7.65913 19.5124 7.48586 19.7365C7.10626 20.2275 6.93873 20.848 7.02012 21.4615C7.08117 21.9217 7.35503 22.3924 7.90277 23.334C8.45051 24.2755 8.72438 24.7463 9.0954 25.0288C9.5901 25.4056 10.2153 25.5718 10.8335 25.4911C11.1157 25.4542 11.4019 25.3391 11.7966 25.1321C12.3766 24.8278 13.0703 24.8156 13.6385 25.1412C14.2067 25.4668 14.5429 26.069 14.5674 26.7197C14.5841 27.1624 14.6267 27.4659 14.7356 27.7269C14.9743 28.2986 15.432 28.7529 16.0081 28.9897C16.4401 29.1673 16.9879 29.1673 18.0833 29.1673C19.1788 29.1673 19.7265 29.1673 20.1586 28.9897C20.7347 28.7529 21.1924 28.2986 21.431 27.7269C21.5399 27.4659 21.5826 27.1624 21.5993 26.7196C21.6238 26.069 21.96 25.4668 22.5281 25.1412C23.0963 24.8156 23.79 24.8277 24.37 25.132C24.7647 25.339 25.0508 25.4541 25.333 25.491C25.9512 25.5717 26.5765 25.4055 27.0711 25.0288C27.4422 24.7462 27.716 24.2754 28.2638 23.3339C28.8115 22.3924 29.0854 21.9216 29.1464 21.4614C29.2278 20.8479 29.0603 20.2274 28.6807 19.7364C28.5074 19.5123 28.2639 19.3239 27.8859 19.0883C27.3304 18.7418 26.973 18.1517 26.973 17.5005C26.973 16.8495 27.3305 16.2594 27.8859 15.913C28.264 15.6773 28.5075 15.4889 28.6808 15.2648C29.0604 14.7738 29.2279 14.1533 29.1465 13.5398C29.0855 13.0796 28.8116 12.6089 28.2639 11.6673C27.7162 10.7258 27.4423 10.255 27.0713 9.97246C26.5766 9.59574 25.9513 9.42948 25.3331 9.51025C25.0509 9.54712 24.7648 9.66223 24.3701 9.86925C23.7901 10.1735 23.0964 10.1857 22.5282 9.86011C21.96 9.53454 21.6238 8.93226 21.5993 8.28158C21.5826 7.83887 21.5399 7.53537 21.431 7.27439C21.1924 6.70266 20.7347 6.24842 20.1586 6.0116Z" fill="#0079E9"/>
<path d="M21.6099 17.5C21.6099 19.433 20.031 21 18.0833 21C16.1356 21 14.5566 19.433 14.5566 17.5C14.5566 15.567 16.1356 14 18.0833 14C20.031 14 21.6099 15.567 21.6099 17.5Z" fill="#0079E9"/>
</svg>
