<svg width="35" height="35" viewBox="0 0 35 35" fill="none" xmlns="http://www.w3.org/2000/svg">
<path opacity="0.5" d="M7.5418 27.4588C9.25034 29.1673 12.0002 29.1673 17.4999 29.1673C22.9996 29.1673 25.7495 29.1673 27.458 27.4588C29.1666 25.7502 29.1666 23.0004 29.1666 17.5007C29.1666 12.0009 29.1666 9.25107 27.458 7.54253C25.7495 5.83398 22.9996 5.83398 17.4999 5.83398C12.0002 5.83398 9.25034 5.83398 7.5418 7.54253C5.83325 9.25107 5.83325 12.0009 5.83325 17.5007C5.83325 23.0004 5.83325 25.7502 7.5418 27.4588Z" fill="#0079E9"/>
<path fill-rule="evenodd" clip-rule="evenodd" d="M26.5417 12.25C26.5417 10.8003 25.3665 9.625 23.9167 9.625H11.0834C9.63367 9.625 8.45841 10.8003 8.45841 12.25V20.125H8.16675C7.6835 20.125 7.29175 20.5168 7.29175 21C7.29175 21.4832 7.6835 21.875 8.16675 21.875H10.8518C11.8656 21.875 12.1321 21.8901 12.3596 21.9827C12.3837 21.9925 12.4075 22.003 12.431 22.0141C12.6532 22.1188 12.8447 22.3047 13.5311 23.0508L13.5725 23.0957L13.661 23.192C14.171 23.7474 14.574 24.1862 15.1021 24.4511C15.2005 24.5004 15.3013 24.5447 15.4042 24.5836C15.9567 24.7929 16.5524 24.7924 17.3065 24.7917L17.4373 24.7917L17.5607 24.7917C18.2741 24.7923 18.8375 24.7928 19.3652 24.6038C19.4636 24.5686 19.5601 24.5286 19.6546 24.484C20.1613 24.2445 20.5594 23.8457 21.0634 23.3409L21.1507 23.2535L21.4186 22.9856C22.1435 22.2607 22.3446 22.0815 22.5752 21.986C22.8058 21.8905 23.0746 21.875 24.0997 21.875H26.8334C27.3167 21.875 27.7084 21.4832 27.7084 21C27.7084 20.5168 27.3167 20.125 26.8334 20.125H26.5417V12.25ZM11.0834 11.375C10.6002 11.375 10.2084 11.7668 10.2084 12.25V13.2744C10.4821 13.1776 10.7766 13.125 11.0834 13.125H23.9167C24.2236 13.125 24.5181 13.1776 24.7917 13.2744V12.25C24.7917 11.7668 24.4 11.375 23.9167 11.375H11.0834ZM24.7917 15.75C24.7917 15.2668 24.4 14.875 23.9167 14.875H11.0834C10.6002 14.875 10.2084 15.2668 10.2084 15.75V16.7744C10.4821 16.6776 10.7766 16.625 11.0834 16.625H23.9167C24.2236 16.625 24.5181 16.6776 24.7917 16.7744V15.75ZM24.7917 19.25C24.7917 18.7668 24.4 18.375 23.9167 18.375H11.0834C10.6002 18.375 10.2084 18.7668 10.2084 19.25V20.125H10.8518L10.9915 20.1249C11.7972 20.1242 12.4342 20.1235 13.0197 20.362C13.0727 20.3836 13.1251 20.4066 13.1768 20.431C13.7487 20.7004 14.1796 21.1696 14.7245 21.763L14.819 21.8659L14.8604 21.9109C15.5025 22.6088 15.6816 22.7839 15.8868 22.8869C15.9315 22.9093 15.9773 22.9294 16.0241 22.9471C16.2388 23.0284 16.4889 23.0417 17.4373 23.0417C18.3335 23.0417 18.5701 23.0298 18.7752 22.9563C18.8199 22.9403 18.8638 22.9221 18.9068 22.9018C19.1038 22.8087 19.2795 22.6498 19.9132 22.0161L20.1812 21.7481L20.2808 21.6484C20.8566 21.0715 21.3123 20.6149 21.9055 20.3692C22.4987 20.1235 23.1437 20.1241 23.9587 20.1249L24.0997 20.125H24.7917V19.25Z" fill="#0079E9"/>
</svg>
