<svg width="35" height="35" viewBox="0 0 35 35" fill="none" xmlns="http://www.w3.org/2000/svg">
<path fill-rule="evenodd" clip-rule="evenodd" d="M16.9163 6.7085C11.2784 6.7085 6.70801 11.2789 6.70801 16.9168C6.70801 22.5547 11.2784 27.1252 16.9163 27.1252C22.5542 27.1252 27.1247 22.5547 27.1247 16.9168C27.1247 11.2789 22.5542 6.7085 16.9163 6.7085ZM4.95801 16.9168C4.95801 10.3124 10.3119 4.9585 16.9163 4.9585C23.5207 4.9585 28.8747 10.3124 28.8747 16.9168C28.8747 19.9041 27.7793 22.6355 25.9684 24.7314L29.7851 28.5481C30.1268 28.8898 30.1268 29.4438 29.7851 29.7855C29.4433 30.1273 28.8893 30.1273 28.5476 29.7855L24.7309 25.9688C22.635 27.7798 19.9036 28.8752 16.9163 28.8752C10.3119 28.8752 4.95801 23.5212 4.95801 16.9168Z" fill="white"/>
</svg>
