<svg width="35" height="35" viewBox="0 0 35 35" fill="none" xmlns="http://www.w3.org/2000/svg">
<path opacity="0.5" d="M5.8335 17.5002C5.8335 12.0004 5.8335 9.25058 7.54204 7.54204C9.25058 5.8335 12.0004 5.8335 17.5002 5.8335C22.9999 5.8335 25.7497 5.8335 27.4583 7.54204C29.1668 9.25058 29.1668 12.0004 29.1668 17.5002C29.1668 22.9999 29.1668 25.7497 27.4583 27.4583C25.7497 29.1668 22.9999 29.1668 17.5002 29.1668C12.0004 29.1668 9.25058 29.1668 7.54204 27.4583C5.8335 25.7497 5.8335 22.9999 5.8335 17.5002Z" fill="#0079E9"/>
<path d="M7.54209 27.458C9.25068 29.1665 12.0006 29.1665 17.5005 29.1665C23.0004 29.1665 25.7503 29.1665 27.4589 27.458C29.0422 25.8748 29.1583 23.3974 29.1668 18.6665H25.4804C24.4244 18.6665 23.8963 18.6665 23.4322 18.88C22.968 19.0934 22.6244 19.4943 21.9371 20.2961L21.9371 20.2961L21.2308 21.1202C20.5435 21.922 20.1999 22.3229 19.7357 22.5364C19.2716 22.7498 18.7435 22.7498 17.6875 22.7498H17.3135C16.2575 22.7498 15.7294 22.7498 15.2653 22.5364C14.8011 22.3229 14.4575 21.922 13.7702 21.1202L13.0639 20.2961C12.3766 19.4943 12.033 19.0934 11.5688 18.88C11.1047 18.6665 10.5766 18.6665 9.52057 18.6665H5.8335C5.84202 23.3974 5.95884 25.8748 7.54209 27.458Z" fill="#0079E9"/>
<path d="M18.1191 16.7187C17.955 16.8827 17.7325 16.9749 17.5004 16.9749C17.2683 16.9749 17.0458 16.8827 16.8817 16.7187L13.0317 12.8687C12.69 12.5269 12.69 11.9729 13.0317 11.6312C13.3734 11.2895 13.9274 11.2895 14.2691 11.6312L16.6254 13.9875L16.6254 5.83377C16.909 5.8335 17.2005 5.8335 17.5002 5.8335C17.8 5.8335 18.0916 5.8335 18.3754 5.83377V13.9875L20.7317 11.6312C21.0734 11.2895 21.6274 11.2895 21.9691 11.6312C22.3108 11.9729 22.3108 12.5269 21.9691 12.8687L18.1191 16.7187Z" fill="#0079E9"/>
</svg>
