<svg xmlns="http://www.w3.org/2000/svg" width="24.011" height="28.012" viewBox="0 0 24.011 28.012"><defs><style>.a{fill:#014783;}</style></defs><path class="a" d="M25.008,4.06H7.831A1.891,1.891,0,0,0,6,6v24.16a1.891,1.891,0,0,0,1.831,1.911H28.18a1.871,1.871,0,0,0,1.831-1.911V9Zm-3,21.949a2.091,2.091,0,0,1-2.1-2.081v-.3l-5.632-2.621-.08.08a2.081,2.081,0,1,1,.08-2.951l5.642-2.661v-.23a2.141,2.141,0,0,1,.64-1.481,2.081,2.081,0,1,1-.06,2.941l-5.662,2.651v.44l5.722,2.661a2.079,2.079,0,1,1,1.451,3.552Zm2-16.007V5.841l4.2,4.222Z" transform="translate(-5.999 -4.06)"/></svg>