<svg width="30" height="30" viewBox="0 0 30 30" fill="none" xmlns="http://www.w3.org/2000/svg">
<path d="M18.5 10.5C18.5 12.433 16.933 14 15 14C13.067 14 11.5 12.433 11.5 10.5C11.5 8.567 13.067 7 15 7C16.933 7 18.5 8.567 18.5 10.5Z" fill="#1C274C"/>
<path opacity="0.5" d="M22.5 10.5C22.5 11.8807 21.3807 13 20 13C18.6193 13 17.5 11.8807 17.5 10.5C17.5 9.11929 18.6193 8 20 8C21.3807 8 22.5 9.11929 22.5 10.5Z" fill="#1C274C"/>
<path opacity="0.5" d="M7.5 10.5C7.5 11.8807 8.61929 13 10 13C11.3807 13 12.5 11.8807 12.5 10.5C12.5 9.11929 11.3807 8 10 8C8.61929 8 7.5 9.11929 7.5 10.5Z" fill="#1C274C"/>
<path d="M21 19.5C21 21.433 18.3137 23 15 23C11.6863 23 9 21.433 9 19.5C9 17.567 11.6863 16 15 16C18.3137 16 21 17.567 21 19.5Z" fill="#1C274C"/>
<path opacity="0.5" d="M25 19.5C25 20.8807 23.2091 22 21 22C18.7909 22 17 20.8807 17 19.5C17 18.1193 18.7909 17 21 17C23.2091 17 25 18.1193 25 19.5Z" fill="#1C274C"/>
<path opacity="0.5" d="M5 19.5C5 20.8807 6.79086 22 9 22C11.2091 22 13 20.8807 13 19.5C13 18.1193 11.2091 17 9 17C6.79086 17 5 18.1193 5 19.5Z" fill="#1C274C"/>
</svg>
