<svg width="35" height="35" viewBox="0 0 35 35" fill="none" xmlns="http://www.w3.org/2000/svg">
<path fill-rule="evenodd" clip-rule="evenodd" d="M22.4525 12.5535L28.486 6.52002L28.483 6.51699C27.0978 5.13184 24.4738 6.00653 19.2257 7.7559L13.2181 9.75842C8.98236 11.1703 6.86449 11.8763 6.26265 12.9115C5.69012 13.8964 5.69012 15.1127 6.26265 16.0975C6.86449 17.1327 8.98236 17.8387 13.2181 19.2506C13.743 19.4256 14.3336 19.3007 14.7267 18.9112L21.1499 12.5475C21.5113 12.1895 22.0945 12.1922 22.4525 12.5535Z" fill="white"/>
<path opacity="0.5" d="M25.2417 21.781L27.2442 15.7735C28.9923 10.5292 29.867 7.90511 28.4861 6.51917L22.4526 12.5527C22.8106 12.9141 22.8079 13.4972 22.4465 13.8552L16.127 20.1162C15.6937 20.5455 15.5566 21.2024 15.7495 21.781C17.1614 26.0167 17.8673 28.1346 18.9026 28.7365C19.8874 29.309 21.1037 29.309 22.0886 28.7365C23.1238 28.1346 23.8298 26.0167 25.2417 21.781Z" fill="white"/>
</svg>
