<svg width="35" height="35" viewBox="0 0 35 35" fill="none" xmlns="http://www.w3.org/2000/svg">
<path opacity="0.5" d="M29.1667 17.5007C29.1667 23.944 23.9434 29.1673 17.5 29.1673C11.0567 29.1673 5.83337 23.944 5.83337 17.5007C5.83337 11.0573 11.0567 5.83398 17.5 5.83398C23.9434 5.83398 29.1667 11.0573 29.1667 17.5007Z" fill="#0A66C2"/>
<path d="M23.1082 25.6797C21.5131 26.7754 19.5815 27.4167 17.5001 27.4167C15.4186 27.4167 13.487 26.7754 11.8919 25.6797C11.1874 25.1957 10.8863 24.2739 11.2959 23.5237C12.1451 21.9686 13.8947 21 17.5 21C21.1054 21 22.855 21.9686 23.7042 23.5238C24.1137 24.2739 23.8127 25.1958 23.1082 25.6797Z" fill="#0A66C2"/>
<path d="M17.5001 17.5C19.4331 17.5 21.0001 15.933 21.0001 14C21.0001 12.067 19.4331 10.5 17.5001 10.5C15.5671 10.5 14.0001 12.067 14.0001 14C14.0001 15.933 15.5671 17.5 17.5001 17.5Z" fill="#0A66C2"/>
</svg>
