<svg width="30" height="30" viewBox="0 0 30 30" fill="none" xmlns="http://www.w3.org/2000/svg">
<path fill-rule="evenodd" clip-rule="evenodd" d="M8 6H22L11.8156 16.1844C11.6559 15.7689 11.3999 15.4122 11.0375 15.0976C10.8097 14.8998 10.4915 14.7206 9.85504 14.3624L6.94202 12.7225C5.99347 12.1886 5.5192 11.9216 5.2596 11.4914C5 11.0612 5 10.5423 5 9.50448V8.81466C5 7.48782 5 6.8244 5.43934 6.4122C5.87868 6 6.58579 6 8 6Z" fill="#3461B6"/>
<path opacity="0.5" d="M24.9998 9.50448V8.81466C24.9998 7.48782 24.9998 6.8244 24.5605 6.4122C24.1211 6 23.414 6 21.9998 6L11.8154 16.1844C11.8648 16.3129 11.905 16.447 11.9362 16.5872C11.9998 16.8722 11.9998 17.2058 11.9998 17.8729L11.9998 20.5424C11.9998 21.452 11.9998 21.9067 12.2517 22.2613C12.5037 22.6158 12.9511 22.7907 13.846 23.1406C15.7246 23.875 16.6639 24.2422 17.3319 23.8244C17.9998 23.4066 17.9998 22.4519 17.9998 20.5424V17.8729C17.9998 17.2058 17.9998 16.8722 18.0634 16.5872C18.1957 15.9935 18.4878 15.5095 18.9623 15.0976C19.1901 14.8998 19.5083 14.7206 20.1448 14.3624L23.0578 12.7225C24.0063 12.1886 24.4806 11.9216 24.7402 11.4914C24.9998 11.0612 24.9998 10.5423 24.9998 9.50448Z" fill="#3461B6"/>
</svg>
