<svg width="19" height="19" viewBox="0 0 19 19" fill="none" xmlns="http://www.w3.org/2000/svg">
<path fill-rule="evenodd" clip-rule="evenodd" d="M9.49996 1.79163C5.24276 1.79163 1.79163 5.24276 1.79163 9.49996C1.79163 10.7342 2.08123 11.899 2.59562 12.9317C2.80208 13.3462 2.88158 13.8419 2.75132 14.3287L2.25498 16.1837C2.16382 16.5244 2.47551 16.8361 2.8162 16.7449L4.67123 16.2486C5.15807 16.1183 5.65371 16.1978 6.06822 16.4043C7.10096 16.9187 8.26574 17.2083 9.49996 17.2083C13.7572 17.2083 17.2083 13.7572 17.2083 9.49996C17.2083 5.24276 13.7572 1.79163 9.49996 1.79163ZM0.541626 9.49996C0.541626 4.55241 4.55241 0.541626 9.49996 0.541626C14.4475 0.541626 18.4583 4.55241 18.4583 9.49996C18.4583 14.4475 14.4475 18.4583 9.49996 18.4583C8.06804 18.4583 6.7129 18.1219 5.51092 17.5232C5.33155 17.4338 5.14841 17.4149 4.99433 17.4561L3.13929 17.9525C1.86943 18.2922 0.707687 17.1305 1.04746 15.8606L1.5438 14.0056C1.58502 13.8515 1.56607 13.6684 1.47673 13.489C0.878048 12.287 0.541626 10.9319 0.541626 9.49996ZM5.54163 8.24996C5.54163 7.90478 5.82145 7.62496 6.16663 7.62496H12.8333C13.1785 7.62496 13.4583 7.90478 13.4583 8.24996C13.4583 8.59514 13.1785 8.87496 12.8333 8.87496H6.16663C5.82145 8.87496 5.54163 8.59514 5.54163 8.24996ZM5.54163 11.1666C5.54163 10.8214 5.82145 10.5416 6.16663 10.5416H10.75C11.0951 10.5416 11.375 10.8214 11.375 11.1666C11.375 11.5118 11.0951 11.7916 10.75 11.7916H6.16663C5.82145 11.7916 5.54163 11.5118 5.54163 11.1666Z" fill="#2475C0"/>
</svg>
