<svg width="22" height="21" viewBox="0 0 22 21" fill="none" xmlns="http://www.w3.org/2000/svg">
<path d="M8.86403 15.3004C9.6827 14.3662 10.092 13.8991 10.5974 13.8688C10.6437 13.866 10.69 13.866 10.7362 13.8688C11.2416 13.8991 11.6509 14.3662 12.4696 15.3004C14.2509 17.333 15.1416 18.3493 14.8922 19.2262C14.8708 19.3015 14.8442 19.3749 14.8126 19.4455C14.4456 20.2667 13.186 20.2667 10.6668 20.2667C8.14764 20.2667 6.88805 20.2667 6.52098 19.4455C6.48943 19.3749 6.46282 19.3015 6.44138 19.2262C6.19203 18.3493 7.0827 17.333 8.86403 15.3004Z" fill="#1C274C"/>
<path d="M13.3335 10.1333C13.3335 11.6061 12.1396 12.8 10.6668 12.8C9.19405 12.8 8.00015 11.6061 8.00015 10.1333C8.00015 8.66058 9.19405 7.46667 10.6668 7.46667C12.1396 7.46667 13.3335 8.66058 13.3335 10.1333Z" fill="#1C274C"/>
<path opacity="0.7" fill-rule="evenodd" clip-rule="evenodd" d="M10.6664 5.37041C7.78941 5.37041 5.45712 7.66551 5.45712 10.4967C5.45712 11.9124 6.03938 13.193 6.98289 14.1215C7.27351 14.4075 7.27351 14.8711 6.98289 15.1571C6.69227 15.4431 6.22108 15.4431 5.93045 15.1571C4.71923 13.9652 3.96875 12.3165 3.96875 10.4967C3.96875 6.85661 6.9674 3.90576 10.6664 3.90576C14.3654 3.90576 17.3641 6.85661 17.3641 10.4967C17.3641 12.3165 16.6136 13.9652 15.4024 15.1571C15.1118 15.4431 14.6406 15.4431 14.35 15.1571C14.0593 14.8711 14.0593 14.4075 14.35 14.1215C15.2935 13.193 15.8757 11.9124 15.8757 10.4967C15.8757 7.66551 13.5434 5.37041 10.6664 5.37041Z" fill="#1C274C"/>
<path opacity="0.4" fill-rule="evenodd" clip-rule="evenodd" d="M10.6667 1.46464C5.59763 1.46464 1.48837 5.50839 1.48837 10.4966C1.48837 12.9909 2.51487 15.2479 4.17663 16.8832C4.46726 17.1692 4.46726 17.6329 4.17663 17.9188C3.88601 18.2048 3.41482 18.2048 3.12419 17.9188C1.19472 16.0201 0 13.395 0 10.4966C0 4.69949 4.77563 0 10.6667 0C16.5577 0 21.3333 4.69949 21.3333 10.4966C21.3333 13.395 20.1386 16.0201 18.2091 17.9188C17.9185 18.2048 17.4473 18.2048 17.1567 17.9188C16.8661 17.6329 16.8661 17.1692 17.1567 16.8832C18.8185 15.2479 19.845 12.9909 19.845 10.4966C19.845 5.50839 15.7357 1.46464 10.6667 1.46464Z" fill="#1C274C"/>
</svg>
