<svg xmlns="http://www.w3.org/2000/svg" width="59.288" height="55.056" viewBox="0 0 59.288 55.056"><defs><style>.a{fill:#1490bd;}.b{fill:#00609a;}.c{fill:#004592;}.d{fill:#002541;}.e{fill:#fdc00e;}.f{fill:#fce5ac;}.g{fill:#f99c1d;}</style></defs><g transform="translate(-244.372 -145.381)"><path class="a" d="M5.486,0h36.4a5.486,5.486,0,0,1,5.486,5.486V30.77a5.485,5.485,0,0,1-5.485,5.485H5.486A5.486,5.486,0,0,1,0,30.769V5.486A5.486,5.486,0,0,1,5.486,0Z" transform="translate(256.292 150.84)"/><path class="b" d="M298.174,150.84h-18.2V187.1h18.2a5.486,5.486,0,0,0,5.486-5.486V156.326A5.486,5.486,0,0,0,298.174,150.84Z"/><rect class="a" width="0.725" height="5.279" transform="translate(274.48 146.21)"/><rect class="b" width="0.725" height="5.279" transform="translate(284.469 146.21)"/><path class="c" d="M303.66,156.326v3.057a30.133,30.133,0,0,1-23.684,10.6c-11.951,0-19.309-5.6-23.684-11.215v-2.445a5.486,5.486,0,0,1,5.485-5.486h36.4A5.486,5.486,0,0,1,303.66,156.326Z"/><path class="d" d="M298.174,150.84H279.922v19.145h.054a30.133,30.133,0,0,0,23.684-10.6v-3.057A5.486,5.486,0,0,0,298.174,150.84Z"/><path class="e" d="M265.191,168.38H244.372v28.191h16.979l3.84-3.841Z"/><path class="f" d="M269.058,172.246H248.238v28.191h16.979l3.841-3.84Z"/><path class="e" d="M265.217,200.437l3.841-3.84h-3.841Z"/><rect class="g" width="16.057" height="0.541" transform="translate(250.824 182.979)"/><rect class="g" width="16.057" height="0.542" transform="translate(250.824 184.4)"/><rect class="g" width="16.057" height="0.542" transform="translate(250.824 185.823)"/><rect class="g" width="16.057" height="0.542" transform="translate(250.824 187.245)"/><rect class="g" width="16.057" height="0.542" transform="translate(250.824 175.898)"/><rect class="g" width="16.057" height="0.542" transform="translate(250.824 177.32)"/><rect class="g" width="16.057" height="0.542" transform="translate(250.824 178.742)"/><rect class="g" width="16.057" height="0.542" transform="translate(250.824 180.165)"/><rect class="g" width="16.073" height="0.542" transform="translate(250.808 189.525)"/><rect class="g" width="16.073" height="0.542" transform="translate(250.808 190.947)"/><rect class="g" width="16.073" height="0.542" transform="translate(250.808 192.37)"/><rect class="g" width="16.073" height="0.542" transform="translate(250.808 193.792)"/><path class="e" d="M281.984,166.644h-4.016a1.813,1.813,0,0,0-1.813,1.812v3.06a1.813,1.813,0,0,0,1.813,1.812h4.016a1.812,1.812,0,0,0,1.812-1.812v-3.06A1.812,1.812,0,0,0,281.984,166.644Zm.467,4.872a.467.467,0,0,1-.467.466h-4.016a.467.467,0,0,1-.467-.466v-3.06a.468.468,0,0,1,.467-.467h4.016a.468.468,0,0,1,.467.467Z"/><path class="g" d="M281.984,166.644h-2.062v1.345h2.062a.468.468,0,0,1,.467.467v3.06a.467.467,0,0,1-.467.466h-2.062v1.346h2.062a1.812,1.812,0,0,0,1.812-1.812v-3.06A1.812,1.812,0,0,0,281.984,166.644Z"/><path class="e" d="M285.537,147.969h-11.23a1.294,1.294,0,0,1-1.294-1.294h0a1.294,1.294,0,0,1,1.294-1.294h11.23a1.293,1.293,0,0,1,1.293,1.294h0A1.293,1.293,0,0,1,285.537,147.969Z"/><path class="g" d="M285.537,145.381h-5.615v2.588h5.615a1.294,1.294,0,0,0,0-2.588Z"/></g></svg>