<svg width="19" height="19" viewBox="0 0 19 19" fill="none" xmlns="http://www.w3.org/2000/svg">
<path fill-rule="evenodd" clip-rule="evenodd" d="M12.5675 3.95675C11.2102 3.95675 10.1055 5.05325 10.1055 6.41123C10.1055 7.76922 11.2102 8.86572 12.5675 8.86572C13.9248 8.86572 15.0295 7.76922 15.0295 6.41123C15.0295 5.05325 13.9248 3.95675 12.5675 3.95675ZM11.3555 6.41123C11.3555 5.74842 11.8957 5.20675 12.5675 5.20675C13.2393 5.20675 13.7795 5.74842 13.7795 6.41123C13.7795 7.07404 13.2393 7.61572 12.5675 7.61572C11.8957 7.61572 11.3555 7.07404 11.3555 6.41123Z" fill="#2475C0"/>
<path fill-rule="evenodd" clip-rule="evenodd" d="M7.44173 16.8986C7.71924 16.5117 7.80855 16.119 7.80194 15.7694C8.12874 15.8655 8.45209 15.8777 8.7618 15.8189C9.40216 15.6975 9.87598 15.2927 10.1274 14.9588L10.1317 14.953L10.136 14.9471C10.5737 14.3369 10.5728 13.7119 10.4656 13.2636C10.4131 13.044 10.3351 12.8633 10.2705 12.7371C10.2378 12.6734 10.2076 12.6217 10.184 12.5837C10.1778 12.5737 10.172 12.5646 10.1667 12.5564C10.0927 12.4184 10.0093 12.3099 9.93917 12.228L9.94668 12.2205L10.3335 11.8353C10.6515 11.9874 10.9965 12.0832 11.2986 12.1457C11.7867 12.2468 12.2643 12.2807 12.5673 12.2807C15.8184 12.2807 18.4584 9.65522 18.4584 6.41116C18.4584 3.16709 15.8184 0.541626 12.5673 0.541626C9.31621 0.541626 6.67629 3.16709 6.67629 6.41116C6.67629 7.17538 6.85023 7.82986 7.02165 8.29079C7.06529 8.40814 7.10909 8.51382 7.15038 8.60655L1.10434 14.6279C0.890658 14.8407 0.639989 15.2108 0.564227 15.6743C0.482059 16.1769 0.617005 16.7357 1.10434 17.2211L1.83914 17.9529C1.85047 17.9642 1.86222 17.975 1.87438 17.9854C2.08662 18.1666 2.44311 18.376 2.87152 18.4393C3.33101 18.5073 3.86281 18.4015 4.31324 17.9529L4.78535 17.4827C5.22944 17.7374 5.69886 17.7954 6.13293 17.7123C6.69589 17.6044 7.16413 17.2675 7.43312 16.9103L7.43749 16.9045L7.44173 16.8986ZM7.92629 6.41116C7.92629 3.86227 10.0017 1.79163 12.5673 1.79163C15.1329 1.79163 17.2084 3.86227 17.2084 6.41116C17.2084 8.96004 15.1329 11.0307 12.5673 11.0307C12.3397 11.0307 11.9477 11.0036 11.552 10.9217C11.1379 10.836 10.8128 10.7086 10.6396 10.5649C10.3916 10.3591 10.0278 10.3756 9.79944 10.603L9.06461 11.3348C8.89649 11.5023 8.73489 11.6921 8.64961 11.9111C8.54163 12.1884 8.57604 12.4552 8.69959 12.6767C8.77285 12.808 8.8908 12.9335 8.93992 12.9858L8.95639 13.0034C9.01449 13.0676 9.04632 13.1095 9.06955 13.1558L9.0916 13.1997L9.11675 13.2347L9.12241 13.2436C9.12995 13.2558 9.14279 13.2774 9.15797 13.307C9.18898 13.3676 9.22583 13.4537 9.24987 13.5543C9.2954 13.7447 9.29491 13.9713 9.12456 14.2125C9.00737 14.3653 8.78544 14.5422 8.52884 14.5908C8.31421 14.6316 7.96431 14.6051 7.49736 14.14C7.25349 13.8971 6.85916 13.8971 6.61529 14.14L6.37036 14.3839C6.13965 14.6137 6.12418 14.9818 6.33387 15.23C6.33504 15.2315 6.33825 15.2355 6.34308 15.2419C6.35311 15.2552 6.36958 15.278 6.38908 15.3087C6.42911 15.3717 6.47615 15.4589 6.50956 15.5588C6.57253 15.7469 6.58243 15.9478 6.43041 16.1638C6.33044 16.2932 6.12761 16.4406 5.8978 16.4846C5.7025 16.522 5.45245 16.4942 5.1705 16.2134C4.92663 15.9706 4.5323 15.9706 4.28843 16.2134L3.43117 17.0672C3.29376 17.204 3.17241 17.2202 3.05429 17.2028C2.91449 17.1821 2.77786 17.1077 2.70072 17.0468L1.98641 16.3354C1.78794 16.1377 1.78001 15.9851 1.79786 15.8759C1.82211 15.7275 1.91434 15.5853 1.98641 15.5136L8.35664 9.16937C8.56233 8.96452 8.5988 8.64455 8.44449 8.39866L8.44266 8.39564C8.44038 8.39184 8.43605 8.38454 8.42995 8.37387C8.41775 8.35251 8.39853 8.31779 8.37459 8.27088C8.32658 8.17687 8.26023 8.03519 8.19325 7.85508C8.05851 7.49275 7.92629 6.98856 7.92629 6.41116ZM6.33387 15.23C6.33501 15.2314 6.33617 15.2327 6.33733 15.2341L6.33636 15.233L6.33387 15.23Z" fill="#2475C0"/>
</svg>
