<svg xmlns="http://www.w3.org/2000/svg" width="26.361" height="25.922" viewBox="0 0 26.361 25.922"><defs><style>.a{fill:#014783;}</style></defs><path class="a" d="M17.821,1.688H1.125v16.7h9.666V27.61h16.7v-16.7H17.821ZM8.391,5.642l-2.758,7.87H7.5l.448-1.279h2.847v4.394H2.882V3.445H16.063v7.469H12.4L10.555,5.642Zm1.995,4.833H8.561l.912-2.606Zm15.343,2.2V25.852H12.548V12.671Z" transform="translate(-1.125 -1.688)"/><path class="a" d="M21.743,24.3a7.511,7.511,0,0,0,.554.776,4.5,4.5,0,0,1-2.171.516V27.35a6.144,6.144,0,0,0,3.515-1.034,6.149,6.149,0,0,0,3.516,1.034V25.592a4.5,4.5,0,0,1-2.171-.516,7.5,7.5,0,0,0,.554-.775,9.129,9.129,0,0,0,1.1-2.663H27.6V19.88H24.52V18.562H22.763V19.88H19.687v1.757h.952a9.129,9.129,0,0,0,1.1,2.663Zm3.081-2.663a7.3,7.3,0,0,1-.774,1.731,5.733,5.733,0,0,1-.408.574,5.687,5.687,0,0,1-.38-.53,7.27,7.27,0,0,1-.8-1.775Z" transform="translate(-5.189 -5.382)"/></svg>