<svg xmlns="http://www.w3.org/2000/svg" width="30.075" height="30.075" viewBox="0 0 30.075 30.075"><defs><style>.a{fill:#014783;}</style></defs><path class="a" d="M18.413,3.375A15.038,15.038,0,1,0,33.45,18.413,15.055,15.055,0,0,0,18.413,3.375ZM13.786,24.16a1.157,1.157,0,0,1-1.157,1.157H11.472a1.157,1.157,0,0,1-1.157-1.157V23a1.157,1.157,0,0,1,1.157-1.157h1.157A1.157,1.157,0,0,1,13.786,23Zm0-5.133a1.157,1.157,0,0,1-1.157,1.157H11.472a1.157,1.157,0,0,1-1.157-1.157V17.871a1.157,1.157,0,0,1,1.157-1.157h1.157a1.157,1.157,0,0,1,1.157,1.157Zm0-5.206a1.157,1.157,0,0,1-1.157,1.157H11.472a1.157,1.157,0,0,1-1.157-1.157V12.665a1.157,1.157,0,0,1,1.157-1.157h1.157a1.157,1.157,0,0,1,1.157,1.157ZM26.51,24.738H15.28V22.425H26.51Zm0-5.133H15.28V17.292H26.51Zm0-5.206H15.28V12.086H26.51Z" transform="translate(-3.375 -3.375)"/></svg>