<svg width="17" height="17" viewBox="0 0 17 17" fill="none" xmlns="http://www.w3.org/2000/svg">
<path d="M8.49996 10.9998C9.88067 10.9998 11 9.88055 11 8.49984C11 7.11913 9.88067 5.99984 8.49996 5.99984C7.11925 5.99984 5.99996 7.11913 5.99996 8.49984C5.99996 9.88055 7.11925 10.9998 8.49996 10.9998Z" fill="#FFA800"/>
<path fill-rule="evenodd" clip-rule="evenodd" d="M16.8333 8.49984C16.8333 13.1022 13.1023 16.8332 8.49996 16.8332C3.89759 16.8332 0.166626 13.1022 0.166626 8.49984C0.166626 3.89746 3.89759 0.166504 8.49996 0.166504C13.1023 0.166504 16.8333 3.89746 16.8333 8.49984ZM8.49996 13.4998C11.2614 13.4998 13.5 11.2613 13.5 8.49984C13.5 5.73841 11.2614 3.49984 8.49996 3.49984C5.73854 3.49984 3.49996 5.73841 3.49996 8.49984C3.49996 11.2613 5.73854 13.4998 8.49996 13.4998ZM11 8.49984C11 9.88055 9.88067 10.9998 8.49996 10.9998C7.11925 10.9998 5.99996 9.88055 5.99996 8.49984C5.99996 7.11913 7.11925 5.99984 8.49996 5.99984C9.88067 5.99984 11 7.11913 11 8.49984Z" fill="#FFA800"/>
</svg>
