<svg width="15" height="19" viewBox="0 0 15 19" fill="none" xmlns="http://www.w3.org/2000/svg">
<path fill-rule="evenodd" clip-rule="evenodd" d="M0.208374 7.9527C0.208374 3.87019 3.46255 0.541626 7.50004 0.541626C11.5375 0.541626 14.7917 3.87019 14.7917 7.9527C14.7917 9.92362 14.23 12.0399 13.2371 13.8682C12.2454 15.6942 10.7964 17.281 8.9838 18.1282C8.04218 18.5683 6.9579 18.5683 6.01628 18.1282C4.20368 17.281 2.75472 15.6942 1.763 13.8682C0.770065 12.0399 0.208374 9.92362 0.208374 7.9527ZM7.50004 1.79163C4.17373 1.79163 1.45837 4.53953 1.45837 7.9527C1.45837 9.70026 1.96057 11.6128 2.86146 13.2716C3.76357 14.9327 5.03839 16.2913 6.54558 16.9958C7.15175 17.2791 7.84833 17.2791 8.4545 16.9958C9.96169 16.2913 11.2365 14.9327 12.1386 13.2716C13.0395 11.6128 13.5417 9.70026 13.5417 7.9527C13.5417 4.53953 10.8263 1.79163 7.50004 1.79163ZM7.50004 5.95829C6.46451 5.95829 5.62504 6.79776 5.62504 7.83329C5.62504 8.86883 6.46451 9.70829 7.50004 9.70829C8.53557 9.70829 9.37504 8.86883 9.37504 7.83329C9.37504 6.79776 8.53557 5.95829 7.50004 5.95829ZM4.37504 7.83329C4.37504 6.1074 5.77415 4.70829 7.50004 4.70829C9.22593 4.70829 10.625 6.1074 10.625 7.83329C10.625 9.55918 9.22593 10.9583 7.50004 10.9583C5.77415 10.9583 4.37504 9.55918 4.37504 7.83329Z" fill="#2475C0"/>
</svg>
