<svg xmlns="http://www.w3.org/2000/svg" width="246.875" height="39.576" viewBox="0 0 246.875 39.576"><g transform="translate(389.422 -2256)"><path d="M2.331-5.5H4.458v-1.15H2.331A1.953,1.953,0,0,0,.381-4.7V0h1.15V-2.923a1.939,1.939,0,0,0,.8.172H4.458V-3.9H2.331a.8.8,0,0,1-.7-.4.8.8,0,0,1,0-.8A.8.8,0,0,1,2.331-5.5Zm14.547.018v-1.15h-.5v-.013h-1.15v.013h-.5v1.15h.5v4.339h-.5V.006h2.148v-1.15h-.5V-5.484ZM29.1-5.5h2.127v-1.15H29.1a1.953,1.953,0,0,0-1.95,1.95V-1.95A1.953,1.953,0,0,0,29.1,0h2.127V-1.15H29.1a.8.8,0,0,1-.8-.8v-.972a1.939,1.939,0,0,0,.8.172h2.127V-3.9H29.1a.8.8,0,0,1-.8-.8A.8.8,0,0,1,29.1-5.5ZM42.649-1.144v-5.5H41.5V.006h3.846v-1.15ZM58.041-6.652h-2.62V-5.5h.5V0h2.12a2.133,2.133,0,0,0,2.131-2.131v-2.39A2.133,2.133,0,0,0,58.041-6.652Zm.981,4.521a.982.982,0,0,1-.981.981h-.97V-5.5h.97a.982.982,0,0,1,.981.981ZM87.894-6.659a1.994,1.994,0,0,0-1.425.6,2,2,0,0,0-2.58-.23,1.122,1.122,0,0,0-.82-.356h-.575V-5.5h.549v5.49h1.15V-4.659a.85.85,0,0,1,.85-.85.85.85,0,0,1,.85.85V-.007h1.15V-4.659a.85.85,0,0,1,.85-.85.85.85,0,0,1,.85.85V-.007h1.15V-4.659A2,2,0,0,0,87.894-6.659Zm14.477.008a2.211,2.211,0,0,0-2.208,2.208V0h1.15V-2.367h2.116v2.36h1.15V-4.444A2.211,2.211,0,0,0,102.371-6.652Zm-1.058,3.135v-.926A1.058,1.058,0,0,1,102.371-5.5a1.058,1.058,0,0,1,1.058,1.058v.926Zm13.342-3.145v1.15H116v5.5h1.15v-5.5H118.5v-1.15Zm16.134,5.5a1.063,1.063,0,0,1-1.062-1.062V-4.454a1.062,1.062,0,0,1,1.062-1.062,1.062,1.062,0,0,1,1.062,1.062H133a2.212,2.212,0,0,0-2.212-2.212,2.212,2.212,0,0,0-2.212,2.212v2.228a2.212,2.212,0,0,0,2.212,2.212A2.212,2.212,0,0,0,133-2.225h-1.15A1.063,1.063,0,0,1,130.788-1.164Zm15.755-5.483V-3.9h-2.125V-6.646h-1.15V.006h1.15V-2.749h2.125V0h1.15V-6.646Zm13.564,1.163v-1.15h-.5v-.013h-1.15v.013h-.5v1.15h.5v4.339h-.5V.006h2.148v-1.15h-.5V-5.484Zm12.743-1.176a2.1,2.1,0,0,0-1.237.4,1.122,1.122,0,0,0-.85-.389h-.575V-5.5h.549v5.49h1.15v-4.54a.962.962,0,0,1,.476-.846.962.962,0,0,1,.971,0,.962.962,0,0,1,.476.846v4.54h1.15v-4.54a2.114,2.114,0,0,0-2.111-2.112ZM187.445-3.9v1.15h1.062v.539a1.062,1.062,0,0,1-1.062,1.062,1.062,1.062,0,0,1-1.062-1.062V-4.44a1.062,1.062,0,0,1,.656-.981,1.062,1.062,0,0,1,1.157.23L189.009-6a2.212,2.212,0,0,0-2.411-.48,2.212,2.212,0,0,0-1.365,2.044v2.228a2.212,2.212,0,0,0,2.212,2.2,2.212,2.212,0,0,0,2.212-2.2V-3.9Z" transform="translate(-336.731 2293.967)" fill="#5daf5d"/><path d="M-291.524,2270.365h-10.828a1.663,1.663,0,0,0-1.661,1.661,1.663,1.663,0,0,0,1.661,1.661h10.828a1.663,1.663,0,0,0,1.661-1.661A1.663,1.663,0,0,0-291.524,2270.365Z" fill="#5daf5d"/><path d="M-252.416,2269.572h-10.828a1.663,1.663,0,0,0-1.661,1.661,1.664,1.664,0,0,0,1.661,1.662h10.828a1.664,1.664,0,0,0,1.661-1.662A1.663,1.663,0,0,0-252.416,2269.572Z" fill="#5daf5d"/><path d="M-263.032,2263.876a1.663,1.663,0,0,0-1.661-1.661,1.663,1.663,0,0,0-1.661,1.661v16.3a1.663,1.663,0,0,0,1.661,1.661,1.663,1.663,0,0,0,1.661-1.661Z" fill="#5daf5d"/><path d="M-253.681,2265.893v-2.018a1.663,1.663,0,0,0-1.661-1.661,1.663,1.663,0,0,0-1.661,1.661v2.018a1.663,1.663,0,0,0,1.661,1.661A1.663,1.663,0,0,0-253.681,2265.893Z" fill="#5daf5d"/><path d="M-248.637,2265.893v-2.018a1.663,1.663,0,0,0-1.661-1.661,1.663,1.663,0,0,0-1.661,1.661v2.018a1.663,1.663,0,0,0,1.661,1.661A1.663,1.663,0,0,0-248.637,2265.893Z" fill="#5daf5d"/><path d="M-197.338,2271.591h2.375a1.663,1.663,0,0,0,1.661-1.661h0a1.663,1.663,0,0,0-1.661-1.661h-2.375v-2.731h.357a1.663,1.663,0,0,0,1.661-1.661,1.663,1.663,0,0,0-1.661-1.662H-207.34a1.663,1.663,0,0,0-1.661,1.661,1.664,1.664,0,0,0,1.661,1.662h6.68v2.731h-8.7a1.663,1.663,0,0,0-1.661,1.661,1.663,1.663,0,0,0,1.661,1.661h8.7v2.533a4.4,4.4,0,0,1-4.392,4.393h-4.306a1.663,1.663,0,0,0-1.661,1.661,1.663,1.663,0,0,0,1.661,1.661h4.306a7.723,7.723,0,0,0,7.714-7.715Z" fill="#af9874"/><path d="M-172.213,2263.875a1.663,1.663,0,0,0-1.662-1.661,1.663,1.663,0,0,0-1.661,1.661v4.522a10.13,10.13,0,0,1-10.118,10.119h-2.616a1.663,1.663,0,0,0-1.661,1.661,1.663,1.663,0,0,0,1.661,1.661h2.616a13.457,13.457,0,0,0,13.441-13.441Z" fill="#af9874"/><path d="M-188.269,2265.536h6.053a1.663,1.663,0,0,0,1.661-1.661,1.663,1.663,0,0,0-1.661-1.661h-6.053a1.663,1.663,0,0,0-1.661,1.661A1.663,1.663,0,0,0-188.269,2265.536Z" fill="#af9874"/><path d="M-283.112,2263.876a1.663,1.663,0,0,0-1.661-1.661,1.663,1.663,0,0,0-1.661,1.661v14.64h-2.035a1.663,1.663,0,0,0-1.662,1.661,1.665,1.665,0,0,0,1.662,1.662h1.766a3.6,3.6,0,0,0,3.591-3.592Z" fill="#5daf5d"/><path d="M-270.028,2274.523a1.631,1.631,0,0,0-.3-1.414,1.659,1.659,0,0,0-1.318-.646,1.639,1.639,0,0,0-1.6,1.223,6.4,6.4,0,0,1-1.94,3.2l-.6.532v-13.539a1.663,1.663,0,0,0-1.661-1.661,1.663,1.663,0,0,0-1.662,1.661v17.956a9.633,9.633,0,0,0,3.537-.806A9.8,9.8,0,0,0-270.028,2274.523Z" fill="#5daf5d"/><path d="M-228.519,2272.233a3.19,3.19,0,0,1-.83-2.145v-2.019a3.2,3.2,0,0,1,1.5-2.712v-3.143H-243.9a1.663,1.663,0,0,0-1.662,1.661,1.664,1.664,0,0,0,1.662,1.661h12.734v2.861a8.057,8.057,0,0,1-3.833,6.884l-.279.173-.2-.263a11.724,11.724,0,0,0-7.108-4.517,1.656,1.656,0,0,0-.321-.032,1.633,1.633,0,0,0-1.037.373,1.665,1.665,0,0,0-.612,1.293,1.669,1.669,0,0,0,1.361,1.633,8.433,8.433,0,0,1,3.853,1.932c.109.1.217.194.321.3a8.442,8.442,0,0,1,2.213,3.716c.06.209.112.424.155.638a1.6,1.6,0,0,0,1.569,1.314h.14a1.592,1.592,0,0,0,1.233-.582,1.571,1.571,0,0,0,.334-1.3,11.757,11.757,0,0,0-.318-1.264l-.085-.271.246-.143A11.47,11.47,0,0,0-228.519,2272.233Z" fill="#af9874"/><path d="M-152.459,2265.893v-2.018a3.183,3.183,0,0,1,.468-1.66h-13.824v3.679a3.38,3.38,0,0,1-2.067,3.117,1.526,1.526,0,0,0-.96,1.387v.126a1.622,1.622,0,0,0,.747,1.382,1.678,1.678,0,0,0,1.6.128,6.713,6.713,0,0,0,4.006-6.14v-.357h8.046v4.878a8.02,8.02,0,0,1-.728,3.351c-.055.122-.113.243-.174.362a8.153,8.153,0,0,1-2.656,2.989,8.051,8.051,0,0,1-4.543,1.4h-4.638a1.658,1.658,0,0,0-1.656,1.656,1.66,1.66,0,0,0,1.656,1.666h4.638a11.306,11.306,0,0,0,5.087-1.195,11.543,11.543,0,0,0,3.79-3.042,11.367,11.367,0,0,0,2.017-3.744,11.434,11.434,0,0,0,.529-3.436v-1.93A3.2,3.2,0,0,1-152.459,2265.893Z" fill="#af9874"/><path d="M-320.2,2273.115a3.207,3.207,0,0,1,1.742-2.849v-8.052h-17.455a1.662,1.662,0,0,0-1.66,1.661,1.663,1.663,0,0,0,1.66,1.662h14.133v4.878a8.11,8.11,0,0,1-8.1,8.1h-4.633a1.663,1.663,0,0,0-1.661,1.661,1.663,1.663,0,0,0,1.661,1.661h4.633a11.434,11.434,0,0,0,10.4-6.7A3.193,3.193,0,0,1-320.2,2273.115Z" fill="#5daf5d"/><path d="M-214.391,2268.069a1.663,1.663,0,0,0-1.661-1.661,1.664,1.664,0,0,0-1.662,1.661v4.037a6.417,6.417,0,0,1-6.41,6.41h-2.018a1.663,1.663,0,0,0-1.661,1.661,1.664,1.664,0,0,0,1.661,1.662h2.018a9.744,9.744,0,0,0,9.733-9.733Z" fill="#af9874"/><path d="M-222.759,2268.069v2.019a1.663,1.663,0,0,0,1.661,1.66,1.663,1.663,0,0,0,1.661-1.66v-2.019a1.663,1.663,0,0,0-1.661-1.661A1.663,1.663,0,0,0-222.759,2268.069Z" fill="#af9874"/><path d="M-227.8,2268.069v2.019a1.663,1.663,0,0,0,1.661,1.66,1.663,1.663,0,0,0,1.661-1.66v-2.019a1.663,1.663,0,0,0-1.661-1.661A1.663,1.663,0,0,0-227.8,2268.069Z" fill="#af9874"/><path d="M-149.252,2262.214a1.663,1.663,0,0,0-1.662,1.661v2.018a1.663,1.663,0,0,0,1.662,1.661,1.663,1.663,0,0,0,1.661-1.661v-2.018A1.663,1.663,0,0,0-149.252,2262.214Z" fill="#af9874"/><path d="M-144.208,2262.214a1.663,1.663,0,0,0-1.661,1.661v2.018a1.663,1.663,0,0,0,1.661,1.661,1.663,1.663,0,0,0,1.661-1.661v-2.018A1.663,1.663,0,0,0-144.208,2262.214Z" fill="#af9874"/><path d="M-310.943,2281.839a1.663,1.663,0,0,0,1.661-1.661v-6.54a.36.36,0,0,1,.144-.286,9.722,9.722,0,0,0,3.6-5.359,1.628,1.628,0,0,0-.3-1.408,1.655,1.655,0,0,0-1.314-.644,1.633,1.633,0,0,0-1.6,1.219,6.381,6.381,0,0,1-1.822,3.078l-.02.018a5.409,5.409,0,0,1-2.307,1.09,5.408,5.408,0,0,1-1.079.108H-317a1.663,1.663,0,0,0-1.661,1.661,1.663,1.663,0,0,0,1.661,1.661h3.027a8.71,8.71,0,0,0,.97-.055l.039,0a.357.357,0,0,1,.238.091.358.358,0,0,1,.118.266v5.1A1.663,1.663,0,0,0-310.943,2281.839Z" fill="#5daf5d"/><path d="M-347.554,2285.551a1.537,1.537,0,0,1-.657-.148l-7.551-3.566a1.538,1.538,0,0,1-.734-2.048,1.54,1.54,0,0,1,2.048-.734l5.356,2.53v-9.844l-10.369,5.093a1.536,1.536,0,0,1-1.388-.016l-4.336-2.252-11.584,5.835,4.043,1.91,4.378-2.067a1.538,1.538,0,0,1,2.048.734,1.538,1.538,0,0,1-.734,2.048l-5.035,2.377a1.532,1.532,0,0,1-1.313,0l-7.552-3.566a1.536,1.536,0,0,1-.881-1.371,1.537,1.537,0,0,1,.846-1.394l15.1-7.608a1.538,1.538,0,0,1,1.4.009l4.345,2.257,11.888-5.839a1.539,1.539,0,0,1,1.492.075,1.539,1.539,0,0,1,.725,1.306v14.74a1.54,1.54,0,0,1-.715,1.3A1.547,1.547,0,0,1-347.554,2285.551Z" fill="#af9874"/><path d="M-367.6,2295.576a1.546,1.546,0,0,1-.683-.16l-20.288-10.064a1.539,1.539,0,0,1-.854-1.4l.189-14.821a1.538,1.538,0,0,1,.733-1.291,1.54,1.54,0,0,1,1.483-.07l7.457,3.66a1.538,1.538,0,0,1,.7,2.059,1.538,1.538,0,0,1-2.058.7l-5.273-2.588-.145,11.42,18.735,9.294,9.058-4.511-4.809-2.423a1.538,1.538,0,0,1-.682-2.066,1.539,1.539,0,0,1,2.066-.682l7.552,3.8a1.541,1.541,0,0,1,.846,1.378,1.537,1.537,0,0,1-.852,1.373l-12.492,6.222A1.546,1.546,0,0,1-367.6,2295.576Z" fill="#af9874"/><path d="M-348.132,2265a1.541,1.541,0,0,1-.663-.151l-11.489-5.492-1.745.78a1.538,1.538,0,0,1-1.285-.014l-1.847-.872-6.941,3.408a1.54,1.54,0,0,1-2.059-.7,1.539,1.539,0,0,1,.7-2.059l7.606-3.734a1.536,1.536,0,0,1,1.335-.011l1.878.887,1.749-.781a1.541,1.541,0,0,1,1.291.016l12.131,5.8a1.539,1.539,0,0,1,.725,2.052A1.539,1.539,0,0,1-348.132,2265Z" fill="#5daf5d"/><path d="M-360.14,2269.062a1.54,1.54,0,0,1-.681-.159l-16.829-8.306-9.214,4.651a1.539,1.539,0,0,1-2.066-.681,1.538,1.538,0,0,1,.68-2.066l9.9-5a1.538,1.538,0,0,1,1.374-.006l16.852,8.317,1.846-.872a1.538,1.538,0,0,1,2.048.734,1.539,1.539,0,0,1-.735,2.048l-2.517,1.189A1.541,1.541,0,0,1-360.14,2269.062Z" fill="#5daf5d"/><path d="M-372.781,2270.132a1.534,1.534,0,0,1-.677-.158l-4.88-2.394a1.538,1.538,0,0,1-.7-2.059,1.537,1.537,0,0,1,2.058-.7l4.881,2.394a1.54,1.54,0,0,1,.7,2.059A1.538,1.538,0,0,1-372.781,2270.132Z" fill="#5daf5d"/></g></svg>