<svg xmlns="http://www.w3.org/2000/svg" width="78" height="51.359" viewBox="0 0 78 51.359"><defs><style>.a,.b,.c{fill:#fff;}.a{font-size:19px;}.a,.c{font-family:UTM Nokia;}.c{font-size:11px;}</style></defs><g transform="translate(-32 -18)"><g transform="translate(43 18)"><g transform="translate(34.167 3.793)"><text class="a" transform="translate(0 23)"><tspan x="0" y="0">R</tspan></text></g><g transform="translate(0)"><g transform="translate(0 0)"><path class="b" d="M373.922,251.1a31.214,31.214,0,0,0,1.762-3.266h-1.762Z" transform="translate(-363.191 -247.839)"/><path class="b" d="M318.6,247.839h-3.609v15.343a42.352,42.352,0,0,0,3.609-3.2Z" transform="translate(-314.991 -247.839)"/></g><g transform="translate(0 0)"><path class="b" d="M318.6,314.525a42.362,42.362,0,0,1-3.609,3.2v.137a15.4,15.4,0,0,0,2.288,8.1q.645-.345,1.321-.777Z" transform="translate(-314.991 -302.381)"/><path class="b" d="M373.922,259.078h4.464c2.573-3.664,4.424-7.477,4.68-10.6a15.48,15.48,0,0,0-4.4-.637h-2.986a31.214,31.214,0,0,1-1.762,3.266Z" transform="translate(-363.191 -247.839)"/></g><g transform="translate(2.288 0.637)"><path class="b" d="M373.922,348.672v9.436a47.042,47.042,0,0,0,9.4-9.436Z" transform="translate(-365.478 -330.947)"/><path class="b" d="M403.47,261.938V251.451c-.118-.038-.234-.079-.353-.115-.255,3.125-2.106,6.938-4.68,10.6Z" transform="translate(-385.529 -251.336)"/><path class="b" d="M328.876,373.06q-.675.431-1.321.778a15.486,15.486,0,0,0,1.321,1.826Z" transform="translate(-327.555 -350.894)"/></g><g transform="translate(10.731 5.556)"><path class="b" d="M465.19,278.348v16.758a29.135,29.135,0,0,0,3.605-6.994A15.409,15.409,0,0,0,465.19,278.348Z" transform="translate(-448.57 -278.348)"/><path class="b" d="M383.419,348.672h-.1a47.042,47.042,0,0,1-9.4,9.436v2.413a15.408,15.408,0,0,0,4.749.75h4.39c.12-.109.239-.225.359-.337Z" transform="translate(-373.922 -335.866)"/></g><g transform="translate(19.87 15.32)"><path class="b" d="M468.8,331.968a29.14,29.14,0,0,1-3.605,6.994v8.647H468.8v-15.48C468.8,332.074,468.8,332.022,468.8,331.968Z" transform="translate(-457.709 -331.968)"/><path class="b" d="M424.465,416.009c-.12.112-.239.228-.359.337h.359Z" transform="translate(-424.106 -400.705)"/></g></g></g><text class="c" transform="translate(32 67.359)"><tspan x="0" y="0">Sharing</tspan></text></g></svg>