<svg xmlns="http://www.w3.org/2000/svg" width="222.708" height="36.964" viewBox="0 0 222.708 36.964"><defs><style>.a,.c{fill:#2680eb;}.a{font-size:23px;font-family:UTM Nokia;}.b{fill:#646464;}.d{fill:#1260bd;}.e{fill:#014783;}.f{fill:#47bbea;}</style></defs><g transform="translate(-139.292 -220.023)"><g transform="translate(174.945 224.054)"><text class="a" transform="translate(0.055 27.933)"><tspan x="0" y="0">R</tspan><tspan class="b" y="0">Sharing</tspan></text></g><g transform="translate(139.292 220.023)"><g transform="translate(0 0)"><path class="c" d="M373.922,251.252a32.619,32.619,0,0,0,1.842-3.413h-1.842Z" transform="translate(-362.708 -247.839)"/><path class="c" d="M318.762,247.839h-3.771v16.033a44.261,44.261,0,0,0,3.771-3.343Z" transform="translate(-314.991 -247.839)"/></g><g transform="translate(0 0)"><path class="d" d="M318.762,314.525a44.262,44.262,0,0,1-3.771,3.343v.144a16.1,16.1,0,0,0,2.391,8.464q.674-.36,1.38-.812Z" transform="translate(-314.991 -301.835)"/><path class="d" d="M373.922,259.583h4.665c2.689-3.829,4.623-7.814,4.89-11.079a16.178,16.178,0,0,0-4.593-.665h-3.12a32.619,32.619,0,0,1-1.842,3.413Z" transform="translate(-362.708 -247.839)"/></g><g transform="translate(2.391 0.665)"><path class="c" d="M373.922,348.672v9.86a49.159,49.159,0,0,0,9.824-9.86Z" transform="translate(-365.099 -330.15)"/><path class="c" d="M403.7,262.415V251.456c-.123-.04-.245-.083-.369-.12-.267,3.265-2.2,7.25-4.89,11.079Z" transform="translate(-384.949 -251.336)"/><path class="c" d="M328.935,373.06q-.705.45-1.38.813a16.193,16.193,0,0,0,1.38,1.908Z" transform="translate(-327.555 -349.897)"/></g><g transform="translate(11.214 5.806)"><path class="e" d="M465.19,278.348v17.511a30.444,30.444,0,0,0,3.767-7.308A16.1,16.1,0,0,0,465.19,278.348Z" transform="translate(-447.823 -278.348)"/><path class="e" d="M383.846,348.672h-.1a49.159,49.159,0,0,1-9.824,9.86v2.521a16.1,16.1,0,0,0,4.962.784h4.587c.125-.114.249-.235.375-.352Z" transform="translate(-373.922 -335.29)"/></g><g transform="translate(20.763 16.009)"><path class="c" d="M468.957,331.968a30.444,30.444,0,0,1-3.767,7.308v9.036h3.771V332.136C468.961,332.079,468.958,332.024,468.957,331.968Z" transform="translate(-457.372 -331.968)"/><path class="f" d="M424.481,416.009c-.125.117-.249.238-.375.352h.375Z" transform="translate(-424.106 -400.017)"/></g></g></g></svg>