<svg xmlns="http://www.w3.org/2000/svg" width="214.358" height="35.925" viewBox="0 0 214.358 35.925"><defs><style>.a,.b{fill:#fff;}.a{font-size:22px;font-family:UTM Nokia;}</style></defs><g transform="translate(-139.292 -220.023)"><g transform="translate(174.65 223.948)"><text class="a" transform="translate(0 27)"><tspan x="0" y="0">RSharing</tspan></text></g><g transform="translate(139.292 220.023)"><g transform="translate(0 0)"><path class="b" d="M373.922,251.218a32.3,32.3,0,0,0,1.824-3.379h-1.824Z" transform="translate(-362.818 -247.839)"/><path class="b" d="M318.725,247.839h-3.734v15.876a43.823,43.823,0,0,0,3.734-3.31Z" transform="translate(-314.991 -247.839)"/></g><g transform="translate(0 0)"><path class="b" d="M318.725,314.525a43.829,43.829,0,0,1-3.734,3.31v.142a15.94,15.94,0,0,0,2.367,8.381q.667-.357,1.367-.8Z" transform="translate(-314.991 -301.96)"/><path class="b" d="M373.922,259.468h4.619c2.663-3.792,4.578-7.737,4.842-10.97a16.019,16.019,0,0,0-4.548-.659h-3.09a32.3,32.3,0,0,1-1.824,3.379Z" transform="translate(-362.818 -247.839)"/></g><g transform="translate(2.367 0.659)"><path class="b" d="M373.922,348.672v9.764a48.678,48.678,0,0,0,9.728-9.764Z" transform="translate(-365.185 -330.331)"/><path class="b" d="M403.645,262.306V251.455c-.122-.039-.242-.082-.366-.119-.264,3.233-2.179,7.179-4.842,10.97Z" transform="translate(-385.081 -251.336)"/><path class="b" d="M328.922,373.06q-.7.446-1.367.8a16.037,16.037,0,0,0,1.367,1.889Z" transform="translate(-327.555 -350.124)"/></g><g transform="translate(11.104 5.749)"><path class="b" d="M465.19,278.348v17.34a30.144,30.144,0,0,0,3.73-7.237A15.943,15.943,0,0,0,465.19,278.348Z" transform="translate(-447.993 -278.348)"/><path class="b" d="M383.749,348.672h-.1a48.678,48.678,0,0,1-9.728,9.764v2.5a15.942,15.942,0,0,0,4.913.776h4.543c.124-.113.247-.232.371-.348Z" transform="translate(-373.922 -335.421)"/></g><g transform="translate(20.56 15.852)"><path class="b" d="M468.92,331.968a30.146,30.146,0,0,1-3.73,7.237v8.947h3.734V332.134C468.924,332.078,468.921,332.023,468.92,331.968Z" transform="translate(-457.449 -331.968)"/><path class="b" d="M424.477,416.009c-.124.116-.247.236-.371.348h.371Z" transform="translate(-424.106 -400.173)"/></g></g></g></svg>