<svg xmlns="http://www.w3.org/2000/svg" width="165.109" height="97.5" viewBox="0 0 165.109 97.5">
  <g id="Group_456" data-name="Group 456" transform="translate(-405.173 -152.833)">
    <g id="Group_445" data-name="Group 445" transform="translate(452.204 152.833)">
      <g id="Group_439" data-name="Group 439" transform="translate(11.397 16.741)">
        <path id="Path_294" data-name="Path 294" d="M602.248,221.3a2.306,2.306,0,0,1-.987-.222l-11.314-5.343a2.311,2.311,0,1,1,1.974-4.179l8.016,3.786V200.61l-15.527,7.626a2.312,2.312,0,0,1-2.084-.023l-6.493-3.373-17.342,8.736,6.044,2.855,6.556-3.1a2.311,2.311,0,0,1,1.974,4.179l-7.542,3.562a2.309,2.309,0,0,1-1.974,0l-11.314-5.343a2.311,2.311,0,0,1-.053-4.154l22.628-11.4a2.311,2.311,0,0,1,2.105.013l6.507,3.38,17.808-8.747a2.312,2.312,0,0,1,3.33,2.074v22.085a2.311,2.311,0,0,1-2.311,2.311Z" transform="translate(-550.909 -194.59)" fill="#af9874"/>
      </g>
      <g id="Group_440" data-name="Group 440" transform="translate(0 16.563)">
        <path id="Path_295" data-name="Path 295" d="M555.188,236.05a2.309,2.309,0,0,1-1.027-.241l-30.395-15.078a2.311,2.311,0,0,1-1.284-2.1l.283-22.2a2.311,2.311,0,0,1,3.329-2.045l11.173,5.484a2.311,2.311,0,1,1-2.036,4.149l-7.891-3.872-.218,17.1,28.064,13.921,13.557-6.752-7.193-3.623a2.311,2.311,0,1,1,2.08-4.128l11.314,5.7a2.311,2.311,0,0,1-.01,4.132l-18.715,9.321A2.31,2.31,0,0,1,555.188,236.05Z" transform="translate(-522.482 -194.145)" fill="#af9874"/>
      </g>
      <g id="Group_444" data-name="Group 444" transform="translate(0.49 0)">
        <g id="Group_441" data-name="Group 441" transform="translate(22.139)">
          <path id="Path_296" data-name="Path 296" d="M618.165,166.321a2.3,2.3,0,0,1-.995-.227l-17.212-8.227-2.612,1.167a2.309,2.309,0,0,1-1.93-.02l-2.765-1.306-10.4,5.1a2.311,2.311,0,1,1-2.037-4.149l11.4-5.6a2.314,2.314,0,0,1,2.005-.015l2.811,1.327,2.617-1.169a2.313,2.313,0,0,1,1.94.025l18.176,8.688a2.311,2.311,0,0,1-1,4.4Z" transform="translate(-578.925 -152.833)" fill="#5daf5d"/>
        </g>
        <g id="Group_442" data-name="Group 442" transform="translate(0 2.007)">
          <path id="Path_297" data-name="Path 297" d="M567.093,175.414a2.309,2.309,0,0,1-1.023-.239l-25.212-12.443-13.8,6.966a2.311,2.311,0,1,1-2.083-4.126l14.831-7.486a2.312,2.312,0,0,1,2.064-.01l25.246,12.46,2.762-1.3a2.311,2.311,0,0,1,1.974,4.179l-3.771,1.781A2.31,2.31,0,0,1,567.093,175.414Z" transform="translate(-523.704 -157.839)" fill="#5daf5d"/>
        </g>
        <g id="Group_443" data-name="Group 443" transform="translate(14.827 12.974)">
          <path id="Path_298" data-name="Path 298" d="M570.308,193.405a2.3,2.3,0,0,1-1.016-.237l-7.312-3.588a2.311,2.311,0,0,1,2.036-4.15l7.312,3.588a2.312,2.312,0,0,1-1.02,4.386Z" transform="translate(-560.686 -185.194)" fill="#5daf5d"/>
        </g>
      </g>
    </g>
    <g id="Group_446" data-name="Group 446" transform="translate(406.842 244.69)">
      <path id="Path_299" data-name="Path 299" d="M410.395,383.287a.677.677,0,0,0,.591,1.018h1.8v.973h-1.8a1.642,1.642,0,0,1-.677-.145V387.6h-.973v-3.977a1.652,1.652,0,0,1,1.65-1.65h1.8v.973h-1.8A.676.676,0,0,0,410.395,383.287Z" transform="translate(-409.336 -381.966)" fill="#5daf5d"/>
      <path id="Path_300" data-name="Path 300" d="M441,382.972v3.671h.422v.973H439.6v-.973h.422v-3.671H439.6V382h.422v-.011H441V382h.422v.973Z" transform="translate(-427.469 -381.973)" fill="#5daf5d"/>
      <path id="Path_301" data-name="Path 301" d="M466.772,383.628a.677.677,0,0,0,.677.677h1.8v.973h-1.8a1.633,1.633,0,0,1-.677-.145v.822a.677.677,0,0,0,.677.677h1.8v.973h-1.8a1.652,1.652,0,0,1-1.65-1.65v-2.327a1.652,1.652,0,0,1,1.65-1.65h1.8v.973h-1.8A.677.677,0,0,0,466.772,383.628Z" transform="translate(-443.162 -381.966)" fill="#5daf5d"/>
      <path id="Path_302" data-name="Path 302" d="M499.319,386.643v.973h-3.253v-5.627h.973v4.654Z" transform="translate(-461.294 -381.973)" fill="#5daf5d"/>
      <path id="Path_303" data-name="Path 303" d="M529.451,383.781V385.8a1.8,1.8,0,0,1-1.8,1.8h-1.794v-4.654h-.423v-.973h2.217A1.8,1.8,0,0,1,529.451,383.781Zm-.973,0a.83.83,0,0,0-.83-.829h-.821v3.682h.821a.831.831,0,0,0,.83-.83Z" transform="translate(-478.887 -381.966)" fill="#5daf5d"/>
      <path id="Path_304" data-name="Path 304" d="M588.8,383.654v3.935h-.973v-3.935a.719.719,0,0,0-1.438,0v3.935h-.973v-3.935a.719.719,0,1,0-1.438,0v3.935H583v-4.644h-.465v-.973h.487a.946.946,0,0,1,.693.3,3.638,3.638,0,0,0,3.389-.312A1.694,1.694,0,0,1,588.8,383.654Z" transform="translate(-513.098 -381.956)" fill="#5daf5d"/>
      <path id="Path_305" data-name="Path 305" d="M623.542,383.846V387.6h-.973v-2h-1.791v2h-.973v-3.759a1.868,1.868,0,0,1,3.736,0Zm-.973.783v-.783a.9.9,0,0,0-1.791,0v.783Z" transform="translate(-535.425 -381.966)" fill="#5daf5d"/>
      <path id="Path_306" data-name="Path 306" d="M653.627,381.955v.973h-1.14v4.654h-.973v-4.654h-1.14v-.973Z" transform="translate(-553.738 -381.953)" fill="#5daf5d"/>
      <path id="Path_307" data-name="Path 307" d="M682.507,385.7h.973a1.871,1.871,0,1,1-3.742,0V383.82a1.871,1.871,0,0,1,3.742,0h-.973a.9.9,0,1,0-1.8,0V385.7a.9.9,0,1,0,1.8,0Z" transform="translate(-571.329 -381.949)" fill="#5daf5d"/>
      <path id="Path_308" data-name="Path 308" d="M714.472,381.989v5.621H713.5v-2.324h-1.8v2.331h-.973v-5.627h.973v2.324h1.8v-2.324Z" transform="translate(-589.895 -381.973)" fill="#5daf5d"/>
      <path id="Path_309" data-name="Path 309" d="M743.113,382.972v3.671h.422v.973h-1.817v-.973h.422v-3.671h-.422V382h.422v-.011h.973V382h.422v.973Z" transform="translate(-608.461 -381.973)" fill="#5daf5d"/>
      <path id="Path_310" data-name="Path 310" d="M771.55,383.747v3.841h-.973v-3.841a.813.813,0,1,0-1.627,0v3.841h-.973v-4.644h-.465v-.973H768a.949.949,0,0,1,.719.329,1.785,1.785,0,0,1,2.832,1.447Z" transform="translate(-623.914 -381.956)" fill="#5daf5d"/>
      <path id="Path_311" data-name="Path 311" d="M802.987,384.3v1.429a1.871,1.871,0,0,1-3.742,0v-1.885a1.871,1.871,0,0,1,3.195-1.323l-.688.688a.9.9,0,0,0-1.534.635v1.885a.9.9,0,0,0,1.8,0v-.456h-.9V384.3Z" transform="translate(-642.924 -381.965)" fill="#5daf5d"/>
    </g>
    <g id="Group_455" data-name="Group 455" transform="translate(405.173 222.247)">
      <g id="Group_450" data-name="Group 450" transform="translate(77.143)">
        <path id="Path_312" data-name="Path 312" d="M612.212,325.971H598.96a1.371,1.371,0,0,0,0,2.742h10.51v2.361a6.65,6.65,0,0,1-3.163,5.682l-.23.143-.161-.217a9.681,9.681,0,0,0-5.867-3.727,1.344,1.344,0,0,0-1.121.281,1.374,1.374,0,0,0,.618,2.416,6.952,6.952,0,0,1,3.18,1.594c.09.079.179.16.265.245a6.957,6.957,0,0,1,1.827,3.067c.049.173.093.35.128.526a1.322,1.322,0,0,0,1.295,1.085h.116a1.317,1.317,0,0,0,1.018-.48,1.3,1.3,0,0,0,.275-1.076,9.739,9.739,0,0,0-.263-1.043l-.07-.224.2-.118a9.466,9.466,0,0,0,4.693-8.151Z" transform="translate(-597.589 -325.971)" fill="#af9874"/>
        <path id="Path_313" data-name="Path 313" d="M683.419,333.711h1.96a1.372,1.372,0,0,0,1.371-1.371h0a1.372,1.372,0,0,0-1.371-1.371h-1.96v-2.254h.294a1.371,1.371,0,0,0,0-2.742h-8.55a1.371,1.371,0,0,0,0,2.742h5.513v2.254H673.5a1.371,1.371,0,1,0,0,2.742h7.179V335.8a3.629,3.629,0,0,1-3.625,3.625H673.5a1.371,1.371,0,1,0,0,2.742h3.554a6.374,6.374,0,0,0,6.367-6.367Z" transform="translate(-642.243 -325.972)" fill="#af9874"/>
        <g id="Group_447" data-name="Group 447" transform="translate(47.289)">
          <path id="Path_314" data-name="Path 314" d="M730.163,327.342a1.371,1.371,0,0,0-2.742,0v3.733a8.36,8.36,0,0,1-8.351,8.351h-2.159a1.371,1.371,0,0,0,0,2.742h2.159a11.106,11.106,0,0,0,11.093-11.093Z" transform="translate(-715.54 -325.971)" fill="#af9874"/>
          <path id="Path_315" data-name="Path 315" d="M716.912,328.713h5a1.371,1.371,0,1,0,0-2.742h-5a1.371,1.371,0,0,0,0,2.742Z" transform="translate(-715.541 -325.971)" fill="#af9874"/>
        </g>
        <path id="Path_316" data-name="Path 316" d="M771.474,338.671a9.381,9.381,0,0,0,2.1-5.925v-5.413l.05-1.36H761.451v3.036a2.789,2.789,0,0,1-1.706,2.573,1.259,1.259,0,0,0-.793,1.145v.1a1.339,1.339,0,0,0,.617,1.141,1.382,1.382,0,0,0,1.317.105,5.539,5.539,0,0,0,3.306-5.068v-.294h6.64v4.026a6.625,6.625,0,0,1-.6,2.765c-.046.1-.093.2-.144.3a6.726,6.726,0,0,1-2.192,2.466,6.641,6.641,0,0,1-3.749,1.155H760.32a1.371,1.371,0,0,0,0,2.742h3.828a9.329,9.329,0,0,0,4.2-.986A9.526,9.526,0,0,0,771.474,338.671Z" transform="translate(-694.259 -325.972)" fill="#af9874"/>
        <g id="Group_448" data-name="Group 448" transform="translate(16.031 3.461)">
          <path id="Path_317" data-name="Path 317" d="M648.645,335.974a1.371,1.371,0,0,0-2.742,0v3.332a5.3,5.3,0,0,1-5.291,5.29h-1.665a1.371,1.371,0,1,0,0,2.742h1.665a8.042,8.042,0,0,0,8.032-8.032Z" transform="translate(-637.576 -334.603)" fill="#af9874"/>
          <path id="Path_318" data-name="Path 318" d="M647.959,335.976v1.665a1.371,1.371,0,0,0,2.742,0v-1.665a1.371,1.371,0,1,0-2.742,0Z" transform="translate(-643.796 -334.604)" fill="#af9874"/>
          <path id="Path_319" data-name="Path 319" d="M637.576,335.976v1.665a1.371,1.371,0,0,0,2.742,0v-1.665a1.371,1.371,0,1,0-2.742,0Z" transform="translate(-637.576 -334.604)" fill="#af9874"/>
        </g>
        <g id="Group_449" data-name="Group 449" transform="translate(81.061)">
          <path id="Path_320" data-name="Path 320" d="M801.148,325.971a1.372,1.372,0,0,0-1.371,1.371v1.666a1.371,1.371,0,0,0,2.742,0v-1.666A1.372,1.372,0,0,0,801.148,325.971Z" transform="translate(-799.777 -325.971)" fill="#af9874"/>
          <path id="Path_321" data-name="Path 321" d="M811.532,325.971a1.372,1.372,0,0,0-1.371,1.371v1.666a1.371,1.371,0,0,0,2.742,0v-1.666A1.372,1.372,0,0,0,811.532,325.971Z" transform="translate(-805.998 -325.971)" fill="#af9874"/>
        </g>
      </g>
      <g id="Group_454" data-name="Group 454" transform="translate(0)">
        <path id="Path_322" data-name="Path 322" d="M420.777,325.971H406.544a1.371,1.371,0,0,0,0,2.742h11.491v4.026a6.693,6.693,0,0,1-6.686,6.686h-3.824a1.371,1.371,0,0,0,0,2.742h3.824a9.438,9.438,0,0,0,9.428-9.428Z" transform="translate(-405.173 -325.971)" fill="#5daf5d"/>
        <path id="Path_323" data-name="Path 323" d="M487.57,342.75h-8.936a1.371,1.371,0,0,0,0,2.742h8.936a1.371,1.371,0,1,0,0-2.742Z" transform="translate(-448.36 -336.023)" fill="#5daf5d"/>
        <g id="Group_451" data-name="Group 451" transform="translate(60.331 0.001)">
          <path id="Path_324" data-name="Path 324" d="M569.3,341.518h-9.172a1.407,1.407,0,1,0,0,2.814H569.3a1.407,1.407,0,1,0,0-2.814Z" transform="translate(-557.491 -335.286)" fill="#5daf5d"/>
          <path id="Path_325" data-name="Path 325" d="M558.471,327.38a1.407,1.407,0,0,0-2.815,0v13.809a1.407,1.407,0,0,0,2.815,0Z" transform="translate(-555.656 -325.973)" fill="#5daf5d"/>
        </g>
        <g id="Group_452" data-name="Group 452" transform="translate(67.701)">
          <path id="Path_326" data-name="Path 326" d="M576.779,329.008v-1.666a1.371,1.371,0,0,0-2.742,0v1.666a1.371,1.371,0,0,0,2.742,0Z" transform="translate(-574.037 -325.971)" fill="#5daf5d"/>
          <path id="Path_327" data-name="Path 327" d="M587.163,329.008v-1.666a1.371,1.371,0,0,0-2.742,0v1.666a1.371,1.371,0,0,0,2.742,0Z" transform="translate(-580.258 -325.971)" fill="#5daf5d"/>
        </g>
        <g id="Group_453" data-name="Group 453" transform="translate(40.36 0)">
          <path id="Path_328" data-name="Path 328" d="M511.634,327.343a1.371,1.371,0,0,0-2.742,0v12.083h-1.68a1.371,1.371,0,1,0,0,2.742h1.458a2.967,2.967,0,0,0,2.964-2.964Z" transform="translate(-505.841 -325.972)" fill="#5daf5d"/>
          <path id="Path_329" data-name="Path 329" d="M536.034,336.13a1.347,1.347,0,0,0-.245-1.167,1.369,1.369,0,0,0-1.088-.533,1.353,1.353,0,0,0-1.322,1.01,5.271,5.271,0,0,1-1.6,2.638l-.491.439V327.343a1.371,1.371,0,1,0-2.742,0v14.82a7.971,7.971,0,0,0,2.919-.665A8.089,8.089,0,0,0,536.034,336.13Z" transform="translate(-519.443 -325.972)" fill="#5daf5d"/>
        </g>
        <path id="Path_330" data-name="Path 330" d="M453.484,346.764a1.372,1.372,0,0,0,1.371-1.371V340a.3.3,0,0,1,.118-.236,8.023,8.023,0,0,0,2.972-4.423,1.341,1.341,0,0,0-.243-1.162,1.364,1.364,0,0,0-1.084-.531,1.348,1.348,0,0,0-1.317,1.005,5.259,5.259,0,0,1-1.5,2.541l-.016.014a4.427,4.427,0,0,1-2.794.989h-2.5a1.371,1.371,0,0,0,0,2.742h2.5a7.32,7.32,0,0,0,.8-.045l.032,0a.294.294,0,0,1,.295.294v4.211A1.373,1.373,0,0,0,453.484,346.764Z" transform="translate(-430.301 -330.568)" fill="#5daf5d"/>
      </g>
    </g>
  </g>
</svg>
