<svg width="171" height="171" viewBox="0 0 171 171" fill="none" xmlns="http://www.w3.org/2000/svg">
<rect width="171" height="171" rx="5" fill="#E0E3E8"/>
<path d="M93.7001 80.0341C93.7001 81.5437 92.4763 82.7674 90.9667 82.7674C89.4572 82.7674 88.2334 81.5437 88.2334 80.0341C88.2334 78.5245 89.4572 77.3008 90.9667 77.3008C92.4763 77.3008 93.7001 78.5245 93.7001 80.0341Z" fill="#1C274C"/>
<path fill-rule="evenodd" clip-rule="evenodd" d="M85.4214 70.8086H85.5782C88.733 70.8086 91.2053 70.8086 93.1344 71.0679C95.1088 71.3334 96.6669 71.8873 97.8898 73.1102C99.1127 74.3332 99.6667 75.8912 99.9321 77.8657C100.191 79.7947 100.191 82.267 100.191 85.4219V85.5425C100.191 88.1512 100.191 90.2867 100.05 92.0255C99.9074 93.7728 99.6156 95.2329 98.9627 96.4455C98.6746 96.9804 98.3207 97.4594 97.8898 97.8903C96.6669 99.1132 95.1088 99.6671 93.1344 99.9326C91.2053 100.192 88.733 100.192 85.5782 100.192H85.4214C82.2666 100.192 79.7942 100.192 77.8652 99.9326C75.8907 99.6671 74.3327 99.1132 73.1098 97.8903C72.0256 96.8061 71.4657 95.4567 71.168 93.7829C70.8755 92.1385 70.822 90.0927 70.8109 87.5523C70.8081 86.9061 70.8081 86.2227 70.8081 85.5016L70.8081 85.4218C70.8081 82.267 70.8081 79.7947 71.0674 77.8657C71.3329 75.8912 71.8869 74.3332 73.1098 73.1102C74.3327 71.8873 75.8907 71.3334 77.8652 71.0679C79.7942 70.8086 82.2666 70.8086 85.4214 70.8086ZM78.1383 73.0996C76.3912 73.3345 75.3379 73.7813 74.5593 74.5598C73.7808 75.3383 73.334 76.3917 73.0991 78.1388C72.8603 79.9155 72.8581 82.25 72.8581 85.5003C72.8581 86.2228 72.8581 86.902 72.8609 87.5433C72.8721 90.1046 72.9294 91.9791 73.1863 93.4239C73.4381 94.8391 73.8663 95.7477 74.5593 96.4407C75.3379 97.2192 76.3912 97.666 78.1383 97.9009C79.915 98.1397 82.2495 98.1419 85.4998 98.1419C88.75 98.1419 91.0846 98.1397 92.8612 97.9009C94.6084 97.666 95.6617 97.2192 96.4402 96.4407C96.7271 96.1538 96.9623 95.8365 97.1577 95.4736C97.611 94.6318 97.8723 93.5059 98.0065 91.859C98.1407 90.2129 98.1414 88.1596 98.1414 85.5003C98.1414 82.25 98.1393 79.9155 97.9004 78.1388C97.6655 76.3917 97.2187 75.3383 96.4402 74.5598C95.6617 73.7813 94.6084 73.3345 92.8612 73.0996C91.0846 72.8608 88.75 72.8586 85.4998 72.8586C82.2495 72.8586 79.915 72.8608 78.1383 73.0996Z" fill="#1C274C"/>
<path opacity="0.4" d="M73.8346 97.1653C75.836 99.1667 79.0573 99.1667 85.4998 99.1667C91.9423 99.1667 95.1636 99.1667 97.165 97.1653C97.5239 96.8064 97.8185 96.4082 98.0602 95.9593L97.7998 95.7501L93.3943 91.7851C91.9736 90.5065 89.8579 90.3792 88.2941 91.4782L87.8865 91.7646C86.7998 92.5283 85.3214 92.4002 84.3821 91.461L78.5195 85.5984C77.3494 84.4283 75.4724 84.3658 74.227 85.4555L71.8359 87.5476C71.8583 92.6493 72.0574 95.3882 73.8346 97.1653Z" fill="#1C274C"/>
</svg>
