<svg xmlns="http://www.w3.org/2000/svg" width="24.211" height="27" viewBox="0 0 24.211 27"><defs><style>.a{fill:#014783;}</style></defs><path class="a" d="M27.3,19.094,24.788,16.58V12.3a9.376,9.376,0,0,0-8.379-9.31V1.125H14.547V2.987A9.45,9.45,0,0,0,6.168,12.3V16.58L3.653,19.094a.847.847,0,0,0-.279.651v2.793a.875.875,0,0,0,.931.931h6.517a4.655,4.655,0,0,0,9.31,0H26.65a.875.875,0,0,0,.931-.931V19.746A.847.847,0,0,0,27.3,19.094ZM15.478,26.263a2.793,2.793,0,0,1-2.793-2.793h5.586a2.793,2.793,0,0,1-2.793,2.793Z" transform="translate(-3.373 -1.125)"/></svg>