<svg xmlns="http://www.w3.org/2000/svg" width="36.499" height="36.499" viewBox="0 0 36.499 36.499"><defs><style>.a{fill:#014783;}</style></defs><g transform="translate(-4.5 -4.5)"><path class="a" d="M9,20.25h9.125v3.042H9Z" transform="translate(1.583 5.541)"/><path class="a" d="M9,24.75H24.208v3.042H9Z" transform="translate(1.583 7.124)"/><path class="a" d="M37.957,4.5H7.542A3.044,3.044,0,0,0,4.5,7.542V37.957A3.044,3.044,0,0,0,7.542,41H37.957A3.044,3.044,0,0,0,41,37.957V7.542A3.044,3.044,0,0,0,37.957,4.5ZM25.791,7.542v6.083H19.708V7.542ZM7.542,37.957V7.542h9.125v9.125H28.833V7.542h9.125V37.957Z"/></g></svg>