<svg xmlns="http://www.w3.org/2000/svg" width="36.029" height="48.89" viewBox="0 0 36.029 48.89"><defs><style>.a{fill:#fcdc97;}.b{fill:#fce5ac;}.c{fill:#002541;}.d{fill:#1490bd;}.e{fill:#00609a;}.f{fill:#fff;}.g{fill:#96e0f4;}.h{fill:#fdc00e;}.i{fill:#f99c1d;}.j{fill:#004592;}.k{fill:#4fc2d9;}</style></defs><g transform="translate(-156.139 -44.013)"><g transform="translate(171.209 45.446)"><path class="a" d="M175.278,68.991a11.579,11.579,0,0,0,0-23.158Z" transform="translate(-175.278 -45.833)"/></g><g transform="translate(159.629 45.446)"><path class="b" d="M172.151,68.991a11.579,11.579,0,0,1,0-23.158Z" transform="translate(-160.572 -45.833)"/></g><g transform="translate(167.074 65.797)"><rect class="b" width="4.135" height="8.442" transform="translate(0)"/></g><g transform="translate(171.209 65.797)"><rect class="a" width="4.135" height="8.442" transform="translate(0)"/></g><g transform="translate(159.629 44.013)"><path class="c" d="M177.068,44.013h-9.834a6.662,6.662,0,0,0-6.662,6.662v6.35s5.593-3.284,7.194-5.612c3.742,4.1,15.964,5.612,15.964,5.612v-6.35A6.662,6.662,0,0,0,177.068,44.013Z" transform="translate(-160.572 -44.013)"/></g><g transform="translate(156.139 70.45)"><path class="d" d="M171.209,94.789h-15.07V86.078a8.49,8.49,0,0,1,8.489-8.489h6.581Z" transform="translate(-156.139 -77.589)"/></g><g transform="translate(171.209 70.45)"><path class="e" d="M175.278,94.789h15.07V86.078a8.49,8.49,0,0,0-8.489-8.489h-6.582Z" transform="translate(-175.278 -77.589)"/></g><g transform="translate(167.074 69.436)"><path class="f" d="M170.026,76.3l4.135,15.6V77.315Z" transform="translate(-170.026 -76.301)"/></g><g transform="translate(171.209 69.436)"><path class="g" d="M175.278,77.315V91.9l4.135-15.6Z" transform="translate(-175.278 -76.301)"/></g><g transform="translate(169.141 72.514)"><path class="h" d="M174.632,80.211l-1.98,9.374,2.068,3.144Z" transform="translate(-172.652 -80.211)"/></g><g transform="translate(171.121 72.514)"><path class="i" d="M175.166,80.211l2.287,9.174-2.2,3.344Z" transform="translate(-175.166 -80.211)"/></g><g transform="translate(169.057 70.45)"><rect class="h" width="4.128" height="4.128" rx="1.741" transform="translate(0 0)"/></g><g transform="translate(171.12 70.45)"><path class="i" d="M175.86,77.589h-.694v4.128h.694a1.371,1.371,0,0,0,1.371-1.371V78.96A1.371,1.371,0,0,0,175.86,77.589Z" transform="translate(-175.166 -77.589)"/></g><g transform="translate(161.911 69.436)"><path class="j" d="M172.767,91.9l-4.135-15.6-5.163,1.459Z" transform="translate(-163.469 -76.301)"/></g><g transform="translate(171.209 69.436)"><path class="c" d="M175.278,91.9l4.135-15.6,5.163,1.459Z" transform="translate(-175.278 -76.301)"/></g><g transform="translate(183.347 79.961)"><path class="h" d="M.849,0H.965a0,0,0,0,1,0,0V4.115a0,0,0,0,1,0,0H0a0,0,0,0,1,0,0V.849A.849.849,0,0,1,.849,0Z"/></g><g transform="translate(176.456 82.427)"><path class="g" d="M2.858,0h9.995a2.859,2.859,0,0,1,2.859,2.859V7.617a2.858,2.858,0,0,1-2.858,2.858h-10A2.858,2.858,0,0,1,0,7.617V2.858A2.858,2.858,0,0,1,2.858,0Z"/></g><g transform="translate(184.312 79.961)"><path class="i" d="M0,0H.965a0,0,0,0,1,0,0V4.115a0,0,0,0,1,0,0H.849A.849.849,0,0,1,0,3.267V0A0,0,0,0,1,0,0Z" transform="translate(0.965 4.115) rotate(180)"/></g><g transform="translate(184.312 82.427)"><path class="k" d="M197.525,92.8H191.92v10.475h5.605a2.25,2.25,0,0,0,2.25-2.251V95.051A2.25,2.25,0,0,0,197.525,92.8Z" transform="translate(-191.92 -92.801)"/></g><g transform="translate(178.452 84.534)"><g transform="translate(2.054)"><path class="c" d="M187.087,99.495a2.009,2.009,0,0,0,0-4.018Z" transform="translate(-187.087 -95.477)"/></g><g transform="translate(0.046)"><path class="j" d="M186.545,99.495a2.009,2.009,0,0,1,0-4.018Z" transform="translate(-184.537 -95.477)"/></g><g transform="translate(0 4.042)"><path class="j" d="M186.532,102.633V100.61h0a2.055,2.055,0,0,0-2.054,2.023Z" transform="translate(-184.478 -100.61)"/></g><g transform="translate(2.054 4.042)"><path class="c" d="M189.142,102.633a2.054,2.054,0,0,0-2.055-2.023v2.023Z" transform="translate(-187.087 -100.61)"/></g></g><g transform="translate(185.758 84.951)"><rect class="d" width="3.868" height="0.622"/></g><g transform="translate(185.758 86.316)"><rect class="d" width="4.988" height="0.622"/></g><g transform="translate(185.758 88.346)"><rect class="d" width="4.988" height="0.622"/></g><g transform="translate(185.758 89.692)"><rect class="d" width="4.988" height="0.622"/></g></g></svg>