<svg width="35" height="35" viewBox="0 0 35 35" fill="none" xmlns="http://www.w3.org/2000/svg">
<path opacity="0.5" fill-rule="evenodd" clip-rule="evenodd" d="M20.1586 6.01099C19.7265 5.83337 19.1788 5.83337 18.0833 5.83337C16.9879 5.83337 16.4401 5.83337 16.0081 6.01099C15.432 6.24781 14.9743 6.70205 14.7356 7.27378C14.6267 7.53477 14.5841 7.83829 14.5674 8.28103C14.5429 8.93167 14.2067 9.53392 13.6385 9.85946C13.0704 10.185 12.3767 10.1728 11.7967 9.86859C11.402 9.66156 11.1159 9.54643 10.8337 9.50956C10.2154 9.42879 9.59021 9.59505 9.09552 9.97177C8.72449 10.2543 8.45062 10.7251 7.90289 11.6666C7.35515 12.6082 7.08128 13.0789 7.02024 13.5391C6.93885 14.1526 7.10638 14.7731 7.48597 15.2641C7.65923 15.4882 7.90274 15.6766 8.28065 15.9122C8.83623 16.2587 9.19371 16.8489 9.19367 17.5001C9.19364 18.1512 8.83618 18.7413 8.28065 19.0877C7.90267 19.3234 7.65913 19.5118 7.48586 19.7359C7.10626 20.2269 6.93873 20.8474 7.02012 21.4609C7.08117 21.9211 7.35503 22.3918 7.90277 23.3334C8.45051 24.2749 8.72438 24.7457 9.0954 25.0282C9.5901 25.405 10.2153 25.5712 10.8335 25.4904C11.1157 25.4536 11.4019 25.3385 11.7966 25.1314C12.3766 24.8272 13.0703 24.815 13.6385 25.1406C14.2067 25.4662 14.5429 26.0684 14.5674 26.7191C14.5841 27.1618 14.6267 27.4653 14.7356 27.7263C14.9743 28.298 15.432 28.7523 16.0081 28.9891C16.4401 29.1667 16.9879 29.1667 18.0833 29.1667C19.1788 29.1667 19.7265 29.1667 20.1586 28.9891C20.7347 28.7523 21.1924 28.298 21.431 27.7263C21.5399 27.4653 21.5826 27.1618 21.5993 26.719C21.6238 26.0684 21.96 25.4662 22.5281 25.1406C23.0963 24.815 23.79 24.8271 24.37 25.1314C24.7647 25.3384 25.0508 25.4535 25.333 25.4904C25.9512 25.5711 26.5765 25.4049 27.0711 25.0281C27.4422 24.7456 27.716 24.2748 28.2638 23.3333C28.8115 22.3918 29.0854 21.921 29.1464 21.4608C29.2278 20.8473 29.0603 20.2268 28.6807 19.7358C28.5074 19.5117 28.2639 19.3233 27.8859 19.0876C27.3304 18.7412 26.973 18.1511 26.973 17.4999C26.973 16.8489 27.3305 16.2588 27.8859 15.9124C28.264 15.6767 28.5075 15.4883 28.6808 15.2642C29.0604 14.7732 29.2279 14.1527 29.1465 13.5392C29.0855 13.079 28.8116 12.6082 28.2639 11.6667C27.7162 10.7252 27.4423 10.2544 27.0713 9.97185C26.5766 9.59513 25.9513 9.42887 25.3331 9.50964C25.0509 9.54651 24.7648 9.66162 24.3701 9.86864C23.7901 10.1729 23.0964 10.1851 22.5282 9.8595C21.96 9.53393 21.6238 8.93164 21.5993 8.28097C21.5826 7.83826 21.5399 7.53476 21.431 7.27378C21.1924 6.70205 20.7347 6.24781 20.1586 6.01099Z" fill="white"/>
<path d="M21.6099 17.5C21.6099 19.433 20.031 21 18.0833 21C16.1356 21 14.5566 19.433 14.5566 17.5C14.5566 15.567 16.1356 14 18.0833 14C20.031 14 21.6099 15.567 21.6099 17.5Z" fill="white"/>
</svg>
