<svg xmlns="http://www.w3.org/2000/svg" width="23" height="23" viewBox="0 0 23 23"><defs><style>.a,.c{fill:none;}.a{stroke:#000;}.b{stroke:none;}</style></defs><g transform="translate(0 23) rotate(-90)"><g class="a"><circle class="b" cx="11.5" cy="11.5" r="11.5"/><circle class="c" cx="11.5" cy="11.5" r="11"/></g><path d="M1.677,5.03A1.677,1.677,0,1,0,3.353,6.707,1.682,1.682,0,0,0,1.677,5.03Zm0-5.03A1.677,1.677,0,1,0,3.353,1.677,1.682,1.682,0,0,0,1.677,0Zm0,10.06a1.677,1.677,0,1,0,1.677,1.677A1.682,1.682,0,0,0,1.677,10.06Z" transform="translate(9.936 4.247)"/></g></svg>