<svg xmlns="http://www.w3.org/2000/svg" xmlns:xlink="http://www.w3.org/1999/xlink" width="1818.365" height="853.907" viewBox="0 0 1818.365 853.907"><defs><style>.a{fill:#fdffe2;}.b{fill:#5c69a5;}.c{fill:#ffac5a;}.d{fill:#fff;}.e{fill:#68b6d8;}.f{fill:#f48462;}.g{fill:#e4f0ff;}.h{fill:#40507f;}.i{fill:#b26756;}.j{fill:#f7b369;}.k{fill:#f5f5f5;}.l{fill:#2680eb;}.m{fill:#0e6a41;}.n{fill:#201d40;}.o{fill:#2c2858;}.p{fill:#c4204a;}.q{fill:#e62552;}.r{fill:#f37a50;}.s{fill:#de623c;}.t{fill:#3f964f;}.u{fill:#7f99eb;}.v{fill:#cdd8fa;}.w{fill:#d48f65;}.ae,.x{fill:#022f50;}.y{fill:#0464ab;}.z{fill:#cc7d4e;}.aa{fill:#fc5b00;}.ab{fill:#db4200;}.ac{fill:#cfe7ee;}.ad{fill:#48bfd7;}.ae{opacity:0.5;mix-blend-mode:screen;isolation:isolate;}.af{fill:#95a6db;}.ag{fill:#494c7f;}.ah{fill:#699dcf;}.ai{fill:#e01d5e;}.aj{fill:#c21951;}.ak{fill:#f75289;}.al{fill:#e6e6e6;}.am{fill:#b3b3b3;}.an{fill:gray;}.ao{filter:url(#c);}.ap{filter:url(#a);}</style><filter id="a" x="1614" y="188.035" width="117.41" height="158.192" filterUnits="userSpaceOnUse"><feOffset dy="3" input="SourceAlpha"/><feGaussianBlur stdDeviation="3" result="b"/><feFlood flood-opacity="0.161"/><feComposite operator="in" in2="b"/><feComposite in="SourceGraphic"/></filter><filter id="c" x="1622" y="328.01" width="131.613" height="178.222" filterUnits="userSpaceOnUse"><feOffset dy="3" input="SourceAlpha"/><feGaussianBlur stdDeviation="3" result="d"/><feFlood flood-opacity="0.161"/><feComposite operator="in" in2="d"/><feComposite in="SourceGraphic"/></filter></defs><g transform="translate(-73 -56.667)"><g transform="translate(1715.177 125.242)"><g transform="translate(79.823 197.758)"><path class="a" d="M8.132,0h80.1a8.132,8.132,0,0,1,8.132,8.132V127.766a8.132,8.132,0,0,1-8.132,8.132H8.132A8.132,8.132,0,0,1,0,127.766V8.132A8.132,8.132,0,0,1,8.132,0Z"/></g><g transform="translate(92.056 305.611)"><path class="b" d="M161.6,271.333H88.416a.321.321,0,1,1,0-.642H161.6a.321.321,0,1,1,0,.642Z" transform="translate(-88.095 -270.691)"/></g><g transform="translate(91.091 315.691)"><path class="b" d="M142.385,278.148H87.762a.32.32,0,0,1,0-.64h54.622a.32.32,0,0,1,0,.64Z" transform="translate(-87.443 -277.508)"/></g><g transform="translate(118.672 280.292)"><path class="c" d="M115.212,253.57l2.818,5.709,6.3.916-4.559,4.444,1.076,6.275-5.636-2.963-5.636,2.963,1.076-6.275-4.559-4.444,6.3-.916Z" transform="translate(-106.094 -253.57)"/></g><g transform="translate(103.822 284.531)"><path class="c" d="M101.648,256.437l3.129,3.744,4.858-.455-2.594,4.133,1.934,4.48-4.732-1.19-3.663,3.224-.331-4.868-4.2-2.487,4.528-1.819Z" transform="translate(-96.052 -256.437)"/></g><g transform="translate(137.956 284.531)"><path class="c" d="M127.121,256.437l-3.129,3.744-4.858-.455,2.594,4.133-1.934,4.48,4.732-1.19,3.663,3.224.331-4.868,4.2-2.487L128.19,261.2Z" transform="translate(-119.134 -256.437)"/></g><g transform="translate(93.601 208.13)"><path class="d" d="M157.518,238.96a33.924,33.924,0,0,1-6.013,19.36,32.768,32.768,0,0,1-3.2,3.982c-.072.087-.146.169-.226.248l-.089.089c-.072.081-.154.161-.228.235a34.116,34.116,0,0,1-6.32,5.081c-.089.052-.169.1-.243.148-.117.072-.243.146-.359.219-.154.1-.315.191-.476.28-.22.124-.441.248-.668.374s-.432.234-.652.345a3.1,3.1,0,0,1-.293.154c-.25.132-.5.248-.748.367a1.274,1.274,0,0,1-.206.095c-.315.154-.63.294-.954.433-.293.132-.593.256-.895.374-.087.037-.176.072-.271.1-.25.1-.5.2-.748.279-.095.035-.191.072-.285.1-.169.067-.339.124-.515.176-.256.089-.513.169-.769.25-.33.1-.668.2-1.006.293-.058.015-.117.03-.169.044-.322.087-.645.169-.967.241-1.041.25-2.106.448-3.176.595-.38.052-.769.1-1.158.139s-.785.074-1.182.1q-.428.033-.858.044c-.506.022-1.012.035-1.517.035a35.638,35.638,0,0,1-3.873-.211c-.176-.015-.345-.037-.513-.059a34.2,34.2,0,0,1-4.781-.976,33.5,33.5,0,0,1-5.236-1.928c-.257-.117-.513-.243-.77-.367a32.938,32.938,0,0,1-4.694-2.823,34.259,34.259,0,0,1-7.949-7.957c-.044-.065-.1-.132-.139-.2-.235-.33-.463-.66-.683-1a32.011,32.011,0,0,1-1.8-3.1,34.189,34.189,0,1,1,64.629-15.569Z" transform="translate(-89.14 -204.772)"/></g><g transform="translate(108.149 226.085)"><path d="M111.253,217.537S99.6,222,99,235.188C98.142,254.257,121,249.837,121,249.837s12.944,1.343,16.524-8.2-7.928-15.3-7.928-15.3S115.638,214.048,111.253,217.537Z" transform="translate(-98.978 -216.913)"/></g><g transform="translate(99.836 244.619)"><path class="e" d="M149.486,246.506a32.768,32.768,0,0,1-3.2,3.982c-.072.087-.146.169-.226.248l-.089.089c-.072.081-.154.161-.228.235a34.117,34.117,0,0,1-6.32,5.081c-.089.052-.169.1-.243.148-.117.072-.243.146-.359.219-.154.1-.315.191-.476.28-.22.124-.441.248-.668.374s-.432.234-.652.345a3.091,3.091,0,0,1-.293.154c-.25.132-.5.248-.748.367a1.273,1.273,0,0,1-.206.095c-.315.154-.63.294-.954.433-.293.132-.593.256-.895.374-.087.037-.176.072-.271.1-.25.1-.5.2-.748.279-.095.035-.191.072-.285.1-.169.067-.339.124-.515.176-.256.089-.513.169-.769.25-.33.1-.668.2-1.006.293-.058.015-.117.03-.169.044-.322.087-.645.169-.967.241-1.041.25-2.106.448-3.176.595-.38.052-.769.1-1.158.139s-.785.074-1.182.1c-.285.022-.571.037-.858.044-.506.022-1.011.035-1.517.035a35.646,35.646,0,0,1-3.873-.211c-.176-.015-.345-.037-.513-.059a34.207,34.207,0,0,1-4.781-.976,33.5,33.5,0,0,1-5.236-1.928c-.257-.117-.513-.243-.77-.367a32.939,32.939,0,0,1-4.694-2.823,34.258,34.258,0,0,1-7.949-7.957c-.044-.065-.1-.132-.139-.2,4.253-6.724,14.615-15.289,26.047-17.079a.372.372,0,0,0,.089-.015,25.263,25.263,0,0,1,2.764-.257C135.229,228.987,145.438,238.806,149.486,246.506Z" transform="translate(-93.356 -229.447)"/></g><g transform="translate(107.821 246.721)"><path class="e" d="M136.237,255.831a33.973,33.973,0,0,1-17.512,4.825,35.583,35.583,0,0,1-3.871-.211c-.176-.015-.346-.037-.515-.059a34.291,34.291,0,0,1-4.781-.976,33.507,33.507,0,0,1-5.236-1.928c-.256-.117-.513-.243-.769-.367a32.853,32.853,0,0,1-4.694-2.823c-.067-5.038-.1-9.013-.1-9.013l13.025-9.665,6.394-4.745c.081,0,.161,0,.243.007a27.011,27.011,0,0,1,8.828,1.658c.374.146.733.287,1.078.433a20.048,20.048,0,0,1,5.01,2.925S134.859,246,136.237,255.831Z" transform="translate(-98.756 -230.868)"/></g><g transform="translate(125.788 238.398)"><path class="f" d="M121.042,235.272s-1.093.872-4.277.741c-4.275-.176-5.646-2.493-5.646-2.493l-.213-8.2v-.08l1.3.256,8.147,1.519.316,3.755Z" transform="translate(-110.906 -225.24)"/></g><g transform="translate(125.679 238.076)"><path d="M120.7,230.874c-2.186-.2-7.841-1.519-9.622-5.118-.05-.118-.1-.228-.139-.331a1.65,1.65,0,0,1-.109-.4l9.554,2.1Z" transform="translate(-110.832 -225.022)"/></g><g transform="translate(120.062 219.905)"><path class="f" d="M123.267,215.422s4.393,9.483,3,14.9-6.31,4.671-9.265,3.7a9.7,9.7,0,0,1-4.357-2.746,4.134,4.134,0,0,1-4.606-1.517c-1.888-2.508-.824-5.458.726-6.162a4.3,4.3,0,0,1,3.434.383l-1.519-2.751S116.509,206.947,123.267,215.422Z" transform="translate(-107.034 -212.735)"/></g><g transform="translate(135.472 225.523)"><path d="M119.7,217.544c-.055,0-1.93-.282-1.93-.282a.364.364,0,0,1-.309-.416.371.371,0,0,1,.416-.309l1.875.278a.366.366,0,0,1-.052.729Z" transform="translate(-117.454 -216.533)"/></g><g transform="translate(130.353 225.66)"><path d="M114.36,218.275a.366.366,0,0,1-.142-.7l2.175-.914a.362.362,0,0,1,.481.2.365.365,0,0,1-.2.479l-2.177.915A.373.373,0,0,1,114.36,218.275Z" transform="translate(-113.993 -216.626)"/></g><g transform="translate(134.848 228.838)"><path d="M118.423,224.249a.375.375,0,0,1-.365-.405,6.237,6.237,0,0,0-.939-4.463.367.367,0,0,1,.556-.479,6.8,6.8,0,0,1,1.112,5.018A.368.368,0,0,1,118.423,224.249Z" transform="translate(-117.032 -218.775)"/></g><g transform="translate(131.442 235.262)"><path d="M116.533,225.375a1.633,1.633,0,0,1-.45-.064,2.091,2.091,0,0,1-1.353-1.8.365.365,0,0,1,.129-.312.382.382,0,0,1,.328-.075l2.844.738a.368.368,0,0,1,.2.578A2.407,2.407,0,0,1,116.533,225.375ZM115.618,224a1.075,1.075,0,0,0,.667.608,1.092,1.092,0,0,0,.914-.2Z" transform="translate(-114.729 -223.119)"/></g><g transform="translate(121.016 232.613)"><path d="M111.907,223.817a.347.347,0,0,1-.152-.034l-3.861-1.754a.366.366,0,0,1,.3-.667l3.861,1.754a.367.367,0,0,1-.151.7Z" transform="translate(-107.679 -221.328)"/></g><g transform="translate(121.437 233.578)"><path d="M108.331,224.4a.367.367,0,0,1-.259-.627l1.7-1.683a.367.367,0,1,1,.516.522l-1.7,1.683A.367.367,0,0,1,108.331,224.4Z" transform="translate(-107.964 -221.981)"/></g><g transform="translate(120.538 217.449)"><path d="M117.538,216.776a7.325,7.325,0,0,1,4.493,1.053,6.2,6.2,0,0,1,2.765,2.737,6.521,6.521,0,0,0-1.69-6.739c-3.11-3.16-9.078-4.036-12.518-.3s-3.23,7.036-3.23,7.036l4.691,4.2S119.293,223.375,117.538,216.776Z" transform="translate(-107.355 -211.074)"/></g><g transform="translate(112.262 215.78)"><path d="M112.43,215.674s-4.426-8.405-8.913-4.853.51,10.721,4.966,11.243S112.43,215.674,112.43,215.674Z" transform="translate(-101.759 -209.945)"/></g><g transform="translate(118.624 244.844)"><path class="e" d="M111.357,261.053c-.176-.015-.346-.037-.515-.059a34.281,34.281,0,0,1-4.781-.976l2.223-23.8.072-.756,4.966-5.8.058-.067a10.14,10.14,0,0,0,1.541,1.884,7.642,7.642,0,0,0,8.815,1.665c.682-.293,1.019-.117,1.091.426C125.208,236.566,117.3,250.83,111.357,261.053Z" transform="translate(-106.061 -229.599)"/></g><g transform="translate(143.053 258.234)"><path class="d" d="M125.19,251.883c-.117.074-.241.148-.359.22-.154.1-.315.191-.476.28,1.591-8.309-1.665-13.068-1.7-13.12a.4.4,0,0,1,.074-.535.358.358,0,0,1,.513.08C123.385,239.013,126.569,243.633,125.19,251.883Z" transform="translate(-122.581 -238.654)"/></g><g transform="translate(125.625 244.527)"><path class="d" d="M118.056,234.3c-4.757,0-7.193-4.389-7.222-4.444a.32.32,0,0,1,.563-.3c.136.251,3.41,6.118,9.951,3.4a.323.323,0,0,1,.419.173.32.32,0,0,1-.173.419A9.192,9.192,0,0,1,118.056,234.3Z" transform="translate(-110.795 -229.385)"/></g><g transform="translate(123.802 237.052)"><path class="b" d="M111.6,225.35a1.02,1.02,0,1,1-1.02-1.02A1.021,1.021,0,0,1,111.6,225.35Z" transform="translate(-109.563 -224.33)"/></g><g transform="translate(131.442 228.08)"><path d="M115.1,221.438a.367.367,0,0,1-.367-.367v-1.684a.366.366,0,0,1,.105-.256l.745-.757a.366.366,0,1,1,.522.513l-.639.651v1.533A.368.368,0,0,1,115.1,221.438Z" transform="translate(-114.729 -218.263)"/></g><g transform="translate(136.974 228.08)"><path d="M118.837,221.438a.367.367,0,0,1-.367-.367v-1.684a.366.366,0,0,1,.1-.256l.747-.757a.361.361,0,0,1,.518,0,.365.365,0,0,1,0,.518l-.64.651v1.533A.367.367,0,0,1,118.837,221.438Z" transform="translate(-118.47 -218.263)"/></g></g><g transform="translate(1467.98 52.495)"><g transform="translate(228.019 198.207)"><g class="ap" transform="matrix(1, 0, 0, 1, -1623, -194.04)"><rect class="g" width="99.41" height="140.192" rx="8.132" transform="translate(1623 194.04)"/></g></g><g transform="translate(239.645 309.468)"><path class="b" d="M312.465,271.8h-76.5a.33.33,0,0,1,0-.661h76.5a.33.33,0,0,1,0,.661Z" transform="translate(-235.64 -271.14)"/></g><g transform="translate(239.645 319.866)"><path class="b" d="M292.316,278.618H235.97a.331.331,0,0,1,0-.662h56.346a.331.331,0,0,1,0,.662Z" transform="translate(-235.64 -277.956)"/></g><g transform="translate(268.096 283.349)"><path class="c" d="M263.7,254.019l2.907,5.89,6.5.944-4.7,4.585,1.11,6.474-5.814-3.057-5.814,3.057,1.11-6.474-4.7-4.585,6.5-.944Z" transform="translate(-254.29 -254.019)"/></g><g transform="translate(252.777 287.721)"><path class="c" d="M250.021,256.885l3.228,3.862,5.012-.47-2.676,4.264,2,4.621-4.882-1.227-3.779,3.326-.341-5.022-4.33-2.566,4.671-1.877Z" transform="translate(-244.248 -256.885)"/></g><g transform="translate(287.989 287.721)"><path class="c" d="M275.57,256.885l-3.228,3.862-5.012-.47,2.676,4.264-2,4.621,4.882-1.227,3.779,3.326.341-5.022,4.33-2.566-4.671-1.877Z" transform="translate(-267.331 -256.885)"/></g><g transform="translate(236.227 202.258)"><circle class="d" cx="35.27" cy="35.27" r="35.27" transform="translate(0 68.615) rotate(-76.582)"/></g><g transform="translate(250.833 252.613)"><path class="b" d="M253.762,256.861a35.208,35.208,0,0,1-10.788-9.222c3.376-4.9,12.135-11.989,16.9-13.573C265.928,232.056,257.007,245.982,253.762,256.861Z" transform="translate(-242.974 -233.871)"/></g><g transform="translate(271.818 230.336)"><path d="M271.756,219.331a7.23,7.23,0,0,1,5.1,1.2,7.378,7.378,0,0,1,2.961,4.976c1.062,6.085-1.118,7.768,2.36,10.058s5.446.888,7.643,6.554-1.181,13.257-8.213,11.722-24.086-6.186-24.086-6.186l-.792-25.2,8.535-2.3Z" transform="translate(-256.73 -219.268)"/></g><g transform="translate(253.481 250.6)"><path class="b" d="M289.193,256.253a35.177,35.177,0,0,1-19.261,5.719c-1.066,0-2.125-.044-3.169-.143a35.359,35.359,0,0,1-22.053-10.47,43.763,43.763,0,0,1,3.229-7.278c5.258-8.821,12.936-9.653,12.936-9.653,8.224-2.413,15.244-2.845,22.7.787C286.932,236.84,288.55,246.274,289.193,256.253Z" transform="translate(-244.71 -232.552)"/></g><g transform="translate(256.485 250.735)"><path class="h" d="M284.466,254.588l-.22,3.828a34.792,34.792,0,0,1-8.094,2.761,35.207,35.207,0,0,1-7.255.749c-1.066,0-2.125-.044-3.169-.143a35.217,35.217,0,0,1-13.913-4.275c-.151-.082-.3-.166-.447-.258a32.447,32.447,0,0,1-4.689-3.207,167.631,167.631,0,0,1,11.249-19.33l9.948-2.073,12.663,2.165Z" transform="translate(-246.679 -232.64)"/></g><g transform="translate(256.242 252.808)"><path class="b" d="M258.012,234s-3.957,12.869-6.56,22.536a33.886,33.886,0,0,1-4.932-3.4l8.4-16.735Z" transform="translate(-246.52 -233.999)"/></g><g transform="translate(261.509 219.639)"><path d="M253.111,228.118s-3.388-5.493-3.124-7.858c.651-5.829,8.831-9.87,17-7.124s9.838,12.894,8.563,17.312c-3.286,11.377-13.216,7.428-13.216,7.428S246.9,235,253.111,228.118Z" transform="translate(-249.972 -212.256)"/></g><g transform="translate(267.377 244.972)"><path class="i" d="M253.819,231.535l.017.211.459,3.977.346,3.118s-.215.746,3.408.253c4.856-.679,6.281-2.885,6.281-2.885l-.308-7.347-1.46.386Z" transform="translate(-253.819 -228.862)"/></g><g transform="translate(267.394 245.373)"><path d="M253.83,231.607l.459,3.977c2.349-.456,6.593-1.786,8.073-5.638a3.009,3.009,0,0,0,.2-.821l-8.717,2.421Z" transform="translate(-253.83 -229.125)"/></g><g transform="translate(262.137 225.504)"><path class="i" d="M252.749,219.471s-3.806,10.7-1.76,16.424,7.3,4.427,10.4,3.075a10.555,10.555,0,0,0,4.439-3.407,4.5,4.5,0,0,0,4.834-2.105c1.793-2.9.346-5.989-1.4-6.6s-3.678.76-3.678.76l1.368-3.13S259.217,209.622,252.749,219.471Z" transform="translate(-250.384 -216.101)"/></g><g transform="translate(265.251 236.974)"><path d="M253.059,228.729a.38.38,0,0,1-.352-.241c-.865-2.186.535-4.583.6-4.685a.378.378,0,0,1,.65.387c-.012.021-1.271,2.183-.543,4.021a.38.38,0,0,1-.351.517Z" transform="translate(-252.426 -223.62)"/></g><g transform="translate(277.747 237.945)"><path d="M260.994,228.218a.38.38,0,0,1-.293-.618l2.589-3.2a.379.379,0,0,1,.589.476l-2.59,3.205A.379.379,0,0,1,260.994,228.218Z" transform="translate(-260.617 -224.256)"/></g><g transform="translate(278.697 239.973)"><path d="M263.591,226.488l-2-.146a.378.378,0,0,1-.349-.406.37.37,0,0,1,.4-.348l1.972.145a.378.378,0,0,1-.026.755Z" transform="translate(-261.239 -225.585)"/></g><g transform="translate(267.248 241.932)"><path d="M255.772,229.964a3.268,3.268,0,0,1-1.91-.77.388.388,0,0,1-.124-.346.378.378,0,0,1,.227-.287l3.954-1.661a.378.378,0,0,1,.517.426,3.918,3.918,0,0,1-1.645,2.357A1.943,1.943,0,0,1,255.772,229.964Zm-.854-.984a1.535,1.535,0,0,0,1.486.052,2.757,2.757,0,0,0,.992-1.094Z" transform="translate(-253.734 -226.869)"/></g><g transform="translate(269.218 232.494)"><path d="M257.613,222.192a.381.381,0,0,1-.323-.18c-.52-.848-1.727-.5-1.779-.494a.377.377,0,1,1-.215-.723,2.368,2.368,0,0,1,2.639.821.378.378,0,0,1-.322.577Z" transform="translate(-255.026 -220.683)"/></g><g transform="translate(263.339 231.973)"><path d="M251.55,221.793a.373.373,0,0,1-.262-.107.378.378,0,0,1-.009-.535,2.605,2.605,0,0,1,1.765-.807,1.612,1.612,0,0,1,1.191.65.378.378,0,0,1-.59.473.86.86,0,0,0-.636-.368,2.04,2.04,0,0,0-1.187.58A.378.378,0,0,1,251.55,221.793Z" transform="translate(-251.172 -220.341)"/></g><g transform="translate(263.463 234.27)"><path d="M252.3,225.409a.386.386,0,0,1-.38-.406l.125-1.786-.693-.732a.378.378,0,1,1,.549-.519l.807.853a.376.376,0,0,1,.1.287l-.134,1.951A.381.381,0,0,1,252.3,225.409Z" transform="translate(-251.253 -221.847)"/></g><g transform="translate(269.591 234.149)"><path d="M256.711,225.456a.383.383,0,0,1-.378-.4l.088-1.765-1.016-.859a.378.378,0,1,1,.487-.578l1.161.979a.376.376,0,0,1,.133.308l-.1,1.953A.38.38,0,0,1,256.711,225.456Z" transform="translate(-255.27 -221.767)"/></g><g transform="translate(282.478 215.582)"><path d="M263.805,220.964s-1.413-12.442,7.132-11.292c9.051,1.219.891,15.817-4.892,15.168C263.469,224.552,263.805,220.964,263.805,220.964Z" transform="translate(-263.718 -209.597)"/></g><g transform="translate(267.111 252.822)"><path class="j" d="M254.445,237.032c-.281,0-.45-.009-.487-.011a.328.328,0,0,1-.313-.345.315.315,0,0,1,.345-.313,19.549,19.549,0,0,0,9.576-2.308.329.329,0,1,1,.336.566A19.563,19.563,0,0,1,254.445,237.032Z" transform="translate(-253.645 -234.008)"/></g><g transform="translate(275.534 251.136)"><path class="b" d="M287.255,251.484a35.2,35.2,0,0,1-24.921,10.3c-1.066,0-2.125-.044-3.169-.143.65-3.631,1.353-6.12,1.353-6.12l8.943-22.62s8.9.2,14.859,9.321C285.606,244.2,286.634,247.5,287.255,251.484Z" transform="translate(-259.166 -232.903)"/></g><g transform="translate(270.562 250.746)"><path class="b" d="M271.3,261.173a35.2,35.2,0,0,1-7.255.749c-1.066,0-2.125-.044-3.169-.143a34.73,34.73,0,0,1-4.972-.81c3.17-13.4,7.326-28.321,7.326-28.321l7.942.391Z" transform="translate(-255.907 -232.647)"/></g><g transform="translate(282.129 222.429)"><path class="d" d="M268.2,222.386a.331.331,0,0,1-.328-.3c-.535-5.411-4.172-7.361-4.21-7.38a.331.331,0,0,1,.3-.587c.162.084,3.992,2.119,4.564,7.9a.33.33,0,0,1-.3.36Z" transform="translate(-263.489 -214.085)"/></g><g transform="translate(268.167 224.464)"><path d="M255.98,215.419a8.486,8.486,0,0,0-1.468,4.343l-.175,2.68,11.1,3.234.226-5.37Z" transform="translate(-254.337 -215.419)"/></g><g transform="translate(263.36 223.007)"><path d="M256.716,217.7a5.792,5.792,0,0,0-1.416,1.989,29.047,29.047,0,0,0-.9,3.4l-3.213-.36.366-5.608,4.334-2.654,2.618.293-.4,3.612Z" transform="translate(-251.186 -214.464)"/></g></g><g transform="translate(1550.309 192.733)"><g transform="translate(153.691 197.944)"><g class="ao" transform="matrix(1, 0, 0, 1, -1631, -334.01)"><rect class="k" width="113.613" height="160.222" rx="8.132" transform="translate(1631 334.01)"/></g></g><g transform="translate(166.978 325.1)"><path class="b" d="M249.113,271.632H161.689a.377.377,0,0,1,0-.755h87.424a.377.377,0,0,1,0,.755Z" transform="translate(-161.312 -270.877)"/></g><g transform="translate(166.978 336.984)"><path class="b" d="M226.085,278.45h-64.4a.378.378,0,0,1,0-.757h64.4a.378.378,0,0,1,0,.757Z" transform="translate(-161.312 -277.693)"/></g><g transform="translate(199.494 295.25)"><path class="c" d="M190.713,253.756l3.322,6.731,7.429,1.079-5.375,5.24,1.269,7.4-6.644-3.493-6.644,3.493,1.269-7.4-5.375-5.24,7.428-1.079Z" transform="translate(-179.962 -253.756)"/></g><g transform="translate(181.986 300.247)"><path class="c" d="M176.518,256.622l3.689,4.414,5.728-.537-3.058,4.873,2.28,5.281-5.579-1.4-4.318,3.8-.39-5.739-4.949-2.933,5.338-2.145Z" transform="translate(-169.92 -256.622)"/></g><g transform="translate(222.229 300.247)"><path class="c" d="M202.419,256.622l-3.689,4.414L193,260.5l3.058,4.873-2.28,5.281,5.579-1.4,4.318,3.8.39-5.739,4.949-2.933-5.338-2.145Z" transform="translate(-193.003 -256.622)"/></g><g transform="translate(169.933 211.419)"><path class="d" d="M243.63,245.98A40.274,40.274,0,0,1,226.3,279.1a40.055,40.055,0,0,1-22.981,7.194c-.312,0-.631,0-.952-.009a40.134,40.134,0,0,1-25.394-9.788,40.624,40.624,0,0,1-3.381-3.285A40.309,40.309,0,1,1,243.63,245.98Z" transform="translate(-163.007 -205.673)"/></g><g transform="translate(180.523 257.027)"><path class="j" d="M221.788,259.647a40.055,40.055,0,0,1-22.981,7.194c-.312,0-.631,0-.952-.009a40.134,40.134,0,0,1-25.394-9.788,40.624,40.624,0,0,1-3.381-3.285c2.837-6.147,9.416-17.741,19.7-20.526.122-.035.242-.061.356-.1,11.9-3.009,28.056-.2,31.273,2.214C221.735,236.442,221.969,247.257,221.788,259.647Z" transform="translate(-169.081 -231.832)"/></g><g transform="translate(198.433 221.758)"><path d="M183.931,226.693s-6.7-8.285-3.888-11.571,7.157,0,7.157,0a3.836,3.836,0,0,1,4.575-3.489c4.334.4,6.946,5.019,6.946,5.019s3.813-3.815,6.425,0,.8,10.041.8,10.041,3.011-.445,2.209,3.091-5.541,7.181-5.541,7.181Z" transform="translate(-179.354 -211.603)"/></g><g transform="translate(205.18 249.892)"><path class="f" d="M195.718,227.74l.126,9.345s-1.649,2.708-7.11,3.225c-4.068.387-5.509-.514-5.509-.514l.5-4.74.5-4.622,9.842-2.3Z" transform="translate(-183.224 -227.74)"/></g><g transform="translate(205.684 250.281)"><path d="M193.852,227.963a3.077,3.077,0,0,1-.26.9c-2.028,4.7-7.731,5.78-10.079,6.022l.5-4.622Z" transform="translate(-183.513 -227.963)"/></g><g transform="translate(200.584 227.775)"><path class="f" d="M183.814,218.6s-4.746,11.782-2.725,18.265,7.947,5.281,11.474,3.914a11.8,11.8,0,0,0,5.115-3.6,5.027,5.027,0,0,0,5.5-2.129c2.137-3.159.663-6.674-1.261-7.432s-4.144.678-4.144.678l1.674-3.433S191.494,207.894,183.814,218.6Z" transform="translate(-180.588 -215.054)"/></g><g transform="translate(217.743 242.643)"><path d="M190.861,227.052a.432.432,0,0,1-.256-.779l3.52-2.6a.432.432,0,1,1,.514.694l-3.52,2.6A.421.421,0,0,1,190.861,227.052Z" transform="translate(-190.43 -223.582)"/></g><g transform="translate(218.796 244.468)"><path d="M194.249,226.17a.415.415,0,0,1-.1-.012l-2.783-.676a.432.432,0,0,1,.2-.84l2.783.675a.433.433,0,0,1-.1.854Z" transform="translate(-191.034 -224.629)"/></g><g transform="translate(208.178 234.1)"><path d="M188.156,221.378a.432.432,0,0,1-.406-.288,2.094,2.094,0,0,0-2.3-1.522.439.439,0,0,1-.5-.35.433.433,0,0,1,.347-.5,2.954,2.954,0,0,1,3.267,2.083.434.434,0,0,1-.408.577Z" transform="translate(-184.943 -218.682)"/></g><g transform="translate(202.197 234.221)"><path d="M181.945,220.412a.432.432,0,0,1-.279-.762c.413-.352,1.515-1.287,2.015-.722a.432.432,0,0,1-.448.7,3.408,3.408,0,0,0-1.009.683A.433.433,0,0,1,181.945,220.412Z" transform="translate(-181.513 -218.751)"/></g><g transform="translate(203.543 239.175)"><path d="M183.064,227.169a.431.431,0,0,1-.343-.171c-1.517-1.989,1.4-5.136,1.524-5.269a.433.433,0,0,1,.631.593c-.711.757-2.359,2.983-1.468,4.153a.433.433,0,0,1-.343.694Z" transform="translate(-182.285 -221.593)"/></g><g transform="translate(203.128 237.516)"><path d="M182.48,223.7a.444.444,0,0,1-.429-.493l.316-2.2a.432.432,0,0,1,.856.124l-.316,2.2A.431.431,0,0,1,182.48,223.7Z" transform="translate(-182.047 -220.641)"/></g><g transform="translate(209.568 237.5)"><path d="M186.174,223.72a.438.438,0,0,1-.432-.459l.141-2.218a.393.393,0,0,1,.459-.4.43.43,0,0,1,.4.457l-.141,2.218A.43.43,0,0,1,186.174,223.72Z" transform="translate(-185.741 -220.632)"/></g><g transform="translate(201.946 225.276)"><path d="M182.286,222.314a3.943,3.943,0,0,1,3.32-1.939,5.039,5.039,0,0,1,3.714,1.576s-.969,3.938,2.228,5.98,5.642,1.426,5.642,1.426l2.287-.851,1.642-3.382-6.749-7.077-8.669-4.427-4.333,4.041Z" transform="translate(-181.369 -213.621)"/></g><g transform="translate(206.258 245.797)"><path d="M184.424,228.038c-.106,0-.171-.005-.187-.007a.432.432,0,0,1,.07-.861,2.744,2.744,0,0,0,2.624-1.524.433.433,0,0,1,.79.357A3.538,3.538,0,0,1,184.424,228.038Z" transform="translate(-183.842 -225.391)"/></g><g transform="translate(225.664 260.547)"><path class="j" d="M213.562,246.681a40.516,40.516,0,0,1-18.589,15.606l6.191-28.436A53.709,53.709,0,0,1,213.562,246.681Z" transform="translate(-194.973 -233.851)"/></g><g transform="translate(203.664 258.86)"><path class="d" d="M188,236.914a21.38,21.38,0,0,1-5.373-.683.377.377,0,0,1,.207-.725,20.967,20.967,0,0,0,6.517.6c3.982-.295,7.776-3.123,7.814-3.15a.377.377,0,1,1,.453.6,17.853,17.853,0,0,1-8.21,3.3C188.928,236.9,188.456,236.914,188,236.914Z" transform="translate(-182.354 -232.883)"/></g></g><g transform="translate(2955.668 3697.499) rotate(-118)"><path class="l" d="M3746.8,659.326a3.482,3.482,0,0,1-1.508-.344,163.546,163.546,0,0,1-17.652-9.934,3.484,3.484,0,0,1,3.784-5.851,156.391,156.391,0,0,0,16.887,9.505,3.484,3.484,0,0,1-1.512,6.624ZM3713.643,637.8a3.47,3.47,0,0,1-2.264-.837,122.3,122.3,0,0,1-14.357-14.44,3.484,3.484,0,1,1,5.35-4.464,115.194,115.194,0,0,0,13.538,13.61,3.484,3.484,0,0,1-2.267,6.13Zm-24.962-30.417a3.483,3.483,0,0,1-3.093-1.876,80.149,80.149,0,0,1-6.446-16.6c-.261-1-.474-2-.63-2.989a3.484,3.484,0,1,1,6.881-1.093c.121.759.285,1.538.489,2.313a73.181,73.181,0,0,0,5.888,15.153,3.485,3.485,0,0,1-3.088,5.093Zm-2.017-37.143a3.485,3.485,0,0,1-2.852-5.481c3.338-4.772,8.237-9.509,14.976-14.477a3.484,3.484,0,1,1,4.135,5.608c-6.121,4.513-10.5,8.719-13.4,12.862A3.481,3.481,0,0,1,3686.663,570.24Zm30.8-24.472a3.485,3.485,0,0,1-1.8-6.472c2.27-1.361,4.57-2.718,6.874-4.078,3.345-1.974,6.805-4.016,10.13-6.049a3.484,3.484,0,0,1,3.635,5.945c-3.371,2.062-6.854,4.117-10.223,6.1-2.29,1.351-4.575,2.7-6.831,4.052A3.473,3.473,0,0,1,3717.463,545.768Zm33.435-21.233a3.484,3.484,0,0,1-2.145-6.232c5.866-4.573,10.1-8.918,12.94-13.285a3.484,3.484,0,0,1,5.84,3.8c-3.27,5.024-8.011,9.924-14.5,14.979A3.464,3.464,0,0,1,3750.9,524.535Zm18.541-32.828a3.485,3.485,0,0,1-3.462-3.132,35.058,35.058,0,0,0-4.319-12.973c-.72-1.331-1.469-2.632-2.226-3.868a3.484,3.484,0,1,1,5.941-3.64c.822,1.343,1.634,2.753,2.414,4.194a41.914,41.914,0,0,1,5.122,15.583,3.484,3.484,0,0,1-3.114,3.819Q3769.616,491.707,3769.439,491.708Zm-64.536-2.68c-1,0-2.038-.051-3.083-.15-12.031-1.153-15.264-7.491-16.12-11.167a3.484,3.484,0,1,1,6.785-1.581c.957,4.1,5.965,5.425,10,5.811.825.079,1.639.119,2.418.119l.286,0a3.484,3.484,0,0,1,.087,6.967Zm17.1-8.843a3.484,3.484,0,0,1-2.857-5.473c2.852-4.1,4.776-9.829,5.719-17.025a3.484,3.484,0,0,1,6.909.906c-1.09,8.312-3.414,15.074-6.909,20.1A3.478,3.478,0,0,1,3722,480.185Zm-25.713-17.442a3.484,3.484,0,0,1-2.538-5.869,47.724,47.724,0,0,1,17.669-11.731,3.484,3.484,0,1,1,2.449,6.524,40.613,40.613,0,0,0-15.041,9.979A3.472,3.472,0,0,1,3696.288,462.742Zm53.451-4.427a3.471,3.471,0,0,1-2.223-.8,34.208,34.208,0,0,0-16.021-7.677,3.484,3.484,0,1,1,1.2-6.864,41.074,41.074,0,0,1,19.273,9.179,3.484,3.484,0,0,1-2.227,6.165Zm-21.087-16.451a3.484,3.484,0,0,1-3.47-3.217,135.762,135.762,0,0,0-2.877-19.072,3.484,3.484,0,0,1,6.8-1.516,142.731,142.731,0,0,1,3.023,20.054,3.483,3.483,0,0,1-3.207,3.74C3728.831,441.861,3728.74,441.864,3728.651,441.864Zm-8.654-38.5a3.486,3.486,0,0,1-3.242-2.206c-2.821-7.151-6.05-12.785-9.092-15.866a3.484,3.484,0,1,1,4.958-4.9c3.741,3.788,7.412,10.083,10.616,18.2a3.487,3.487,0,0,1-3.24,4.763Z" transform="translate(0 0)"/></g><g transform="translate(-1580.598 -308.426)"><g transform="translate(3096.006 610.747)"><g transform="translate(33.599 292.375)"><path class="m" d="M3245.238,1810.73c-9.149,38.422-41.855,17.29-35.016,41.573a4.351,4.351,0,0,0,4.065,3.057l19.2.734a8.634,8.634,0,0,0,5.209-1.506c10.132-6.936,17.006-16.707,38.888-17.893-.166-9.343.258-22.682-2.829-27.451Z" transform="translate(-3209.289 -1541.106)"/><path class="n" d="M3319.622,1235.906s-55.853,85.186-63.563,111.683,8.419,71.4,5.5,161.881c17.456,4.532,40.732.636,40.732.636s14.008-113.5-2.47-140.3c24.689-37.674,86.7-119.919,86.7-119.919Z" transform="translate(-3233.063 -1235.906)"/></g><g transform="translate(102.829 275.155)"><path class="m" d="M3405.62,1838.9c-14.211,19.345-49.685,7.9-48.262,33.869,53.766-.856,76.116-.74,76.116-.74-.128-5.965-1.329-20.115-2.623-25.647Z" transform="translate(-3357.316 -1539.672)"/><path class="o" d="M3408.685,1199.086s-17.81,138.978-13.7,166.266,16.849,48.647,17.3,139.178c17.613,3.88,44.529,7.367,44.529,7.367s11.35-109.192-12-139.256c6.616-44.554,38.146-156.618,38.146-156.618Z" transform="translate(-3377.041 -1199.086)"/></g><path class="p" d="M3180.679,1039.475l-21.712-24.347a2.549,2.549,0,0,0-1.85-.843l-17.878-.107c-.509-.008-2.086,2.818-1.744,3.2l15.315,13.61a.579.579,0,0,0,.262.166l26.265,9.745C3179.9,1041.065,3181.074,1039.912,3180.679,1039.475Z" transform="translate(-3137.447 -825.501)"/><path class="q" d="M3179.038,1044.294l-20.685-22.955a2.551,2.551,0,0,0-1.85-.843l-18.431-.331a.581.581,0,0,0-.441.972L3152.2,1037.2a.58.58,0,0,0,.262.166l25.979,7.878A.581.581,0,0,0,3179.038,1044.294Z" transform="translate(-3137.464 -828.688)"/><path class="r" d="M3235.042,1077.255l-14.959-7.333s-14.756-14.934-16.947-18.271c-3.283-1.661-9.492-5.843-10.889-6a23.011,23.011,0,0,0-4.257.273l6.927,7.878s-3.29.653-7.487-2.013-11.611-9.815-15.242-8.429l-1.288,1.139s-2.292-2.449-4.454-1.538,2.137,11.691,14.335,23.116c.809,3.051,4.828,8.4,4.828,8.4l24.665,8.663Z" transform="translate(-3152.598 -840.712)"/><path class="p" d="M3174.02,1026.4a1.793,1.793,0,1,0-.359-2.814A2.04,2.04,0,0,0,3174.02,1026.4Z" transform="translate(-3156.501 -830.287)"/><path class="r" d="M3462.234,830.335c-4.438,5.753,30.328,12.009,34.989.053s-3.343-44.841-3.343-44.841l-31.7,6.729S3468.011,822.848,3462.234,830.335Z" transform="translate(-3310.13 -703.796)"/><g transform="translate(90.935)"><path class="r" d="M3462.464,679.876c2.669,25.433-11.361,47.749-31.335,49.845s-38.331-16.822-41-42.255,11.36-47.749,31.335-49.845S3459.795,654.443,3462.464,679.876Z" transform="translate(-3362.716 -624.968)"/><path d="M3407.365,754.626a3.786,3.786,0,1,1-2.284-4.842A3.785,3.785,0,0,1,3407.365,754.626Z" transform="translate(-3368.152 -684.64)"/><path d="M3459.757,742.556a4.1,4.1,0,1,1-2.473-5.242A4.1,4.1,0,0,1,3459.757,742.556Z" transform="translate(-3395.718 -677.992)"/><path class="s" d="M3429,758.7c-.8,5.96-1.919,13.294-1.919,13.294s3.917,4.131,10.413,1.276c-3.249.107-6.787-.511-7.322-4.662S3429,758.7,3429,758.7Z" transform="translate(-3382.563 -689.507)"/><g transform="translate(28.272 58.009)"><path class="n" d="M3402.166,738.115a1.452,1.452,0,0,1-1.437.034,4.224,4.224,0,0,0-3.1-.265,4.747,4.747,0,0,0-2.477,3.041,1.453,1.453,0,0,1-2.723-1.012,7.441,7.441,0,0,1,4.2-4.758,7.165,7.165,0,0,1,5.483.44,1.452,1.452,0,0,1,.051,2.519Z" transform="translate(-3392.336 -734.782)"/></g><g transform="translate(55.833 52.586)"><path class="n" d="M3452.424,727.8a1.452,1.452,0,0,0,1.368-.441,4.229,4.229,0,0,1,2.841-1.271,4.75,4.75,0,0,1,3.341,2.056,1.452,1.452,0,0,0,2.238-1.852,7.44,7.44,0,0,0-5.536-3.109,7.165,7.165,0,0,0-5.032,2.22,1.452,1.452,0,0,0,.781,2.4Z" transform="translate(-3451.268 -723.186)"/></g><path class="n" d="M3424.207,681.808c-13.159-11.016-9.525-27.848-9.525-27.848-6.382.418-8.169,3.146-8.169,3.146-5.132-5.892-3.882-11.441-3.882-11.441-13.83-1.506-17.878,8.276-28.435,14.049-14.456,7.9-35.216,6.881-42.09-11.513a3.339,3.339,0,0,1,4.226-4.329,14.713,14.713,0,0,0,9.086.194,15.719,15.719,0,0,1-5.751-7.792,3.335,3.335,0,0,1,4.645-3.942c3.935,1.809,10.581,2.731,20.677-2.125,6.72-3.232,19.868-18.931,30.556-19.437,8.739-.413,17.176,4.846,22.7,14.136,0,0,20.845-3.36,28.891,18.41,7.9,21.388-21.725,54.431-21.725,54.431S3427.685,685.195,3424.207,681.808Z" transform="translate(-3331.885 -610.747)"/><path class="d" d="M3434.044,799.836a1.113,1.113,0,0,1,.334-2.019,78.978,78.978,0,0,0,19.63-7.359,1.112,1.112,0,0,1,1.579,1.3,13.892,13.892,0,0,1-21.543,8.076Z" transform="translate(-3385.992 -706.342)"/><g transform="translate(79.249 52.487)"><path class="r" d="M3505.04,726.567c-4.281,4.223-4.949,10.487-1.493,13.99s9.729,2.92,14.009-1.3,4.949-10.487,1.492-13.99S3509.32,722.344,3505.04,726.567Z" transform="translate(-3501.336 -722.974)"/><g transform="translate(5.35 4.977)"><path class="s" d="M3515.288,744.419a1.3,1.3,0,0,1-.506-.33c-2.094-2.194-2.583-4.879-1.309-7.183a6.334,6.334,0,0,1,6.614-3.179,1.315,1.315,0,1,1-.527,2.576,3.751,3.751,0,0,0-3.786,1.876c-.709,1.282-.386,2.736.911,4.1a1.315,1.315,0,0,1-1.4,2.145Z" transform="translate(-3512.775 -733.617)"/></g></g></g><path class="t" d="M3380.059,1040.029c24.8,5.06,69.378,13.8,92.958,4.6,8.922-12.811,11.183-85.252,11.183-85.252,2.582-74.564-6.361-85.627-26.526-110.61-8.461,3.888-29.642,7.2-38.954,7.275,0,0-21.1,29.3-25.217,50.568-4.174,21.57-4.647,59.922-5.034,81.889C3388.037,1012.9,3383.217,1024.662,3380.059,1040.029Z" transform="translate(-3266.594 -737.451)"/><path class="m" d="M3476.856,888.4c14.5,28.236,11.22,59.5-30.954,121.063-29.535-2.576-35.327-27.192-35.327-27.192s8.115-30.564,18.656-69.01S3470.509,876.045,3476.856,888.4Z" transform="translate(-3282.838 -754.448)"/><path class="m" d="M3267.381,1085.278l63.238,5.046s27.121-4.946,34.748,28.04c-13.574,10.568-48.612,14.532-106.083-6.8C3265.365,1103.282,3267.381,1085.278,3267.381,1085.278Z" transform="translate(-3202.303 -863.349)"/><path class="d" d="M3462.444,843.133l-.6,17.009,42.786-17.939-5.182-13.759Z" transform="translate(-3310.13 -726.631)"/></g><path class="u" d="M3108.743,899.441a24.573,24.573,0,1,1-24.572-24.573A24.573,24.573,0,0,1,3108.743,899.441Z" transform="translate(0 -140.597)"/><g transform="translate(3068.474 745.087)"><path class="d" d="M3092.291,927.251h-.017a3.609,3.609,0,0,1-2.977-1.6l-10.107-15.065a3.606,3.606,0,1,1,5.989-4.018l7.145,10.648,12.1-17.655a3.606,3.606,0,0,1,5.95,4.076l-15.1,22.043A3.608,3.608,0,0,1,3092.291,927.251Z" transform="translate(-3078.577 -897.996)"/></g><path class="u" d="M3153.383,979.795a7.041,7.041,0,1,1-7.041-7.041A7.041,7.041,0,0,1,3153.383,979.795Z" transform="translate(-42.428 -192.704)"/></g><g transform="translate(-1025.594 2539.036) rotate(-45)"><path class="u" d="M3439.571,233.72l-4.764,13.646-75.315-22.1Z" transform="translate(0 -44.937)"/><path class="u" d="M3436.989,264.508l-13.428,5.934-51.27-41.649Z" transform="translate(-9.393 -47.524)"/><path class="v" d="M3359.492,225.269l98.141,60.929-13.69-37.677Z" transform="translate(0 -44.937)"/><path class="v" d="M3439.571,188.782l-80.079-8.451,72.772-16.289Z"/></g><g transform="translate(-219.512 39.189)"><g transform="translate(346 384.929)"><g transform="translate(26.395 331.286)"><path class="w" d="M331,419.873H400.17c-16.191-2.192-33.009-14.008-33.009-14.008l.088-15.127H330.788c.867,7.853,1.441,12.99,1.62,14.588A45.074,45.074,0,0,0,331,419.873Z" transform="translate(-330.155 -390.739)"/><path class="x" d="M332.077,400.12s-3.3,15.344-.389,20.977h10.1l.583-4.468,2.914,4.468H412.1s-.583-5.633-2.72-7.964-28.939-4.855-41.565-16.12c0,0-14.956-1.165-16.509,0s-2.137,8.74-5.827,8.351-8.74-6.02-8.74-6.02Z" transform="translate(-330.487 -384.387)"/></g><g transform="translate(128.032 331.286)"><path class="w" d="M380.486,419.873h69.155c-16.972-2.2-36.333-14.363-36.333-14.363-.225-2.867-.627-7.937-1.18-14.771H378.8L382,404.98A44.74,44.74,0,0,0,380.486,419.873Z" transform="translate(-378.803 -390.739)"/><path class="x" d="M380.459,400.12s-3.3,15.344-.389,20.977h10.1l.583-4.468,2.913,4.468h66.816s-.583-5.633-2.72-7.964-28.939-4.855-41.565-16.12c0,0-14.956-1.165-16.509,0s-2.137,8.74-5.827,8.351-8.74-6.02-8.74-6.02Z" transform="translate(-378.73 -384.387)"/></g><path class="x" d="M481.883,572.377l-40.01-304.16s-5.5-24.559-10.087-33.8H322.523a146.851,146.851,0,0,0-4.567,31.076c-.776,22.142,26.028,308.432,26.028,308.432H383.6l-.387-292.117,64.094,290.565Z" transform="translate(-317.939 -231.962)"/><g transform="translate(8.351)"><path class="y" d="M332.09,233.252a210.39,210.39,0,0,0-6.023,20.533,121.084,121.084,0,0,0-3.332,21.071c-.225,7.087.642,14.205,1.1,21.322l1.818,21.337,7.611,85.327,7.573,85.336,3.717,42.673,3.589,42.686L343.8,530.92l-4.148-42.635-7.928-85.3c-2.482-28.449-5.013-56.9-7.251-85.367l-1.607-21.362c-.387-7.123-1.2-14.247-.886-21.438a121.621,121.621,0,0,1,3.721-21.12A210.217,210.217,0,0,1,332.09,233.252Z" transform="translate(-321.909 -233.252)"/><path class="y" d="M345.462,262.635a43.7,43.7,0,0,1,7.728-4.081,43.02,43.02,0,0,1,8.328-2.65,49.252,49.252,0,0,1-16.057,6.731Z" transform="translate(-295.917 -208.254)"/><path class="y" d="M416.657,545.38,408.067,509.4l-8.434-36.013-16.621-72.083-16.271-72.163-8.01-36.11-7.852-36.146,8.593,35.977,8.434,36.013,16.619,72.083,16.268,72.163,8.011,36.11Z" transform="translate(-289.939 -207.167)"/></g></g><g transform="translate(292.512 95.811)"><g transform="translate(27.09 83.494)"><g transform="translate(56.634)"><path class="w" d="M332.376,188.832l-.063,0a125.647,125.647,0,0,1,7.716,12.2c3.221,3.713,6.664,7.266,9.935,10.93q1.555,1.742,3.092,3.5a181.5,181.5,0,0,0,32.1,1.393q2.228-3.285,4.447-6.574c2.64-3.911,5.316-7.794,7.96-11.7.585-1,1.182-2,1.775-2.993-5.1-2.72-9.026-4.79-12.06-8.452-.473-1.7-1.613-6.014-2.468-10.886a50.731,50.731,0,0,1-.9-12.741V163.5a11.055,11.055,0,0,1,1.258-4.586L343.527,135.5c.031.139.046.263.078.4.66,3.868,5.684,34.227.526,50.315A30.463,30.463,0,0,1,332.376,188.832Z" transform="translate(-332.313 -135.502)"/><path class="z" d="M375.383,168.091c-22.639,2.859-34.105-24.178-34.526-25.188a26.708,26.708,0,0,0,16.16,11.593,44.37,44.37,0,0,0,17.325.886c.046-.017.093-.017.141-.032A50.731,50.731,0,0,0,375.383,168.091Z" transform="translate(-322.884 -127.334)"/></g><g transform="translate(0 48.351)"><path class="aa" d="M434.745,166.846c-3.885-2.066-18.381-6.214-18.381-6.214v.006l-.006,0-13.465,23.825s-10.36-19.94-13.467-23.308-15.8-2.589-15.8-2.589-22.4,2.72-32.5,7.768-35.738,33.8-35.738,33.8l32.183,30.651,5.238,49.76-10.617,43.765H394.6l2.589-4.4,1.555,4.4h49.2l-8.065-84.061,5.469,7.152c.343-.109.669-.248,1.01-.372,14.328-5.922,19.7-31.465,20.962-38.815.217-1.258.309-1.988.309-1.988S438.63,168.929,434.745,166.846Z" transform="translate(-305.39 -158.487)"/><g transform="translate(32.048 27.27)"><path class="ab" d="M353.275,171.451c.019,11.056-.133,22.111-.311,33.163l-.726,33.154-1.083,33.142-.671,16.57c-.28,5.52-.507,11.044-.833,16.564-.025-5.53.051-11.056.072-16.585l.238-16.58.728-33.152,1.088-33.144C352.2,193.536,352.653,182.491,353.275,171.451Z" transform="translate(-288.599 -171.451)"/><path class="ab" d="M369.641,216.416c-.578-6.252-.688-12.5-.679-18.747.055-6.248.225-12.5.873-18.739.583,6.25.69,12.5.68,18.745C370.457,203.923,370.284,210.17,369.641,216.416Z" transform="translate(-267.283 -163.197)"/><path class="ab" d="M320.625,211.222l.846.915-.133-.006c2.747-3.2,5.6-6.3,8.454-9.407s5.787-6.121,8.73-9.134c2.962-3,5.922-5.993,8.972-8.9,3.033-2.924,6.088-5.829,9.258-8.62-2.722,3.231-5.56,6.346-8.419,9.443-2.842,3.111-5.772,6.138-8.7,9.161s-5.915,6-8.942,8.928-6.077,5.84-9.22,8.658l-.01.008a.084.084,0,0,1-.118-.008l-.006-.008Z" transform="translate(-320.625 -166.357)"/></g></g></g><g transform="translate(0 175.679)"><path class="w" d="M373.458,301.564a107.947,107.947,0,0,0-7.289-10.053c-1.538-3.326-14.885-32.212-30.376-66.49,5.438-6.168,10.705-12.087,15.646-17.573l-29.522-28.123c-1.477,1.538-2.968,3.122-4.491,4.739-6.635,7.053-13.658,14.916-20.743,23.478a18.231,18.231,0,0,0-1.647,20.867c4.9,8.343,10.223,16.7,16.019,24.892,12,16.936,25.964,33.144,42.172,47.065-.187,3.854,1.973,7.63,3.774,10.053-1.647-.467-8,2.175-8.25,3.029-.28.949,1.927,10.785,9.883,9.169S376.5,306.534,373.458,301.564Zm-14.87,12.99-1.757-1.367a2.758,2.758,0,0,0,.7-2.083,21.715,21.715,0,0,0,1.786,2.019Z" transform="translate(-292.512 -179.325)"/><g transform="translate(36.607 42.48)"><path class="z" d="M309.914,199.521a7.143,7.143,0,0,1,3.368.862,7.068,7.068,0,0,1,2.655,2.245,7.057,7.057,0,0,1-3.368-.865A7.151,7.151,0,0,1,309.914,199.521Z" transform="translate(-309.914 -199.519)"/><g transform="translate(23.373 91.545)"><path class="z" d="M321.025,244.464a4.958,4.958,0,0,1,2.019-1.151,7.126,7.126,0,0,1,2.253-.273,2.5,2.5,0,0,1-1.8,1.761A2.871,2.871,0,0,1,321.025,244.464Z" transform="translate(-321.025 -243.038)"/><path class="z" d="M321.887,244.007c1.2.549,2.177.984,2.855.791a3.468,3.468,0,0,0,1.17-.591c.419-.332.848-.719,1.414-1.106a3.571,3.571,0,0,1-.5,1.9,2.91,2.91,0,0,1-1.769,1.319,2.571,2.571,0,0,1-2.173-.6A2.884,2.884,0,0,1,321.887,244.007Z" transform="translate(-320.074 -242.97)"/></g></g></g><g transform="translate(168.068)"><g transform="translate(0 126.796)"><path class="w" d="M429.65,253.634c-.56,3.078-1.165,6.138-1.786,9.153a20.859,20.859,0,0,1-35.91,9.79q-3.215-3.543-6.246-7.024c-4.771-5.455-9.2-10.783-13.3-15.88,14.327-5.922,19.7-31.465,20.962-38.815q2.89,3.5,6.044,7.257c9.836-34.526,17.449-62.028,17.449-62.028l15.291.511C437.606,189.446,435.261,223.086,429.65,253.634Z" transform="translate(-372.408 -156.087)"/><path class="z" d="M386.4,185.762c-.088,5.619-.461,11.174-.7,16.734-.154,2.779-.244,5.556-.3,8.33a69.572,69.572,0,0,0,.225,8.343,32.24,32.24,0,0,1-1.437-8.313,74.236,74.236,0,0,1-.038-8.433A92.879,92.879,0,0,1,386.4,185.762Z" transform="translate(-359.565 -123.338)"/></g><g transform="translate(17.021)"><path class="x" d="M382.922,131.167s-8.275,10.688,5.768,15.209Z" transform="translate(-380.5 -56.792)"/><path class="x" d="M390.008,142.607s3.515,32.077,16.582,48.418a2.883,2.883,0,0,0,2.648,1.056,58.545,58.545,0,0,0,14.977-4.3,2.879,2.879,0,0,0,1.363-4c-4.617-8.562-16.627-37.683-18.3-49.667Z" transform="translate(-370.007 -53.536)"/><path class="aa" d="M404.076,124.017l-21.2,8.038a2.076,2.076,0,0,0-1.325,1.653c-.549,3.978-1.34,16.69,9.333,24.61a2.1,2.1,0,0,0,1.931.305l21.755-7.428Z" transform="translate(-379.638 -64.683)"/><path class="ac" d="M436.69,97.926s-.107,31.989-43.973,54.037a1.63,1.63,0,0,0-.869,1.149c-.665,3.469-2.7,17.1,11.1,27.641a1.607,1.607,0,0,0,1.683.156c5.055-2.491,19.62-8.41,68.534,10.118l-11.229-51.849Z" transform="translate(-368.533 -93.476)"/><path class="d" d="M448.817,138.9c9.908,26.124,11.875,49.6,4.4,52.432-6.384,2.421-17.575-10.97-26.879-31.179-1.6-3.477-3.143-7.152-4.6-10.983-1.5-3.957-2.817-7.851-3.948-11.624-6.342-21.139-6.8-38.4-.452-40.811C424.817,93.9,438.911,112.779,448.817,138.9Z" transform="translate(-344.851 -95.102)"/><path class="ad" d="M431.423,123.62c2.425,6.395-.023,13.246-5.467,15.312a8.943,8.943,0,0,1-2.236.532c-1.6-3.477-3.143-7.152-4.6-10.983-1.5-3.957-2.817-7.851-3.948-11.624a8.909,8.909,0,0,1,2-1.064C422.624,113.727,429,117.234,431.423,123.62Z" transform="translate(-342.233 -74.413)"/><g transform="translate(66.567)"><path class="x" d="M454.417,193.3c-9.607,3.643-24.277-19.405-33.2-42.942s-13.229-50.517-3.62-54.161,24.277,19.405,33.2,42.942S464.024,189.652,454.417,193.3ZM418.543,98.7c-5.812,2.2-5.114,23.568,5.177,50.7s23.936,43.59,29.747,41.388,5.112-23.571-5.179-50.7S424.353,96.5,418.543,98.7Z" transform="translate(-412.144 -95.811)"/></g><g transform="translate(17.914 96.511)"><path class="w" d="M398.783,176.322s-8.934-14.372-9.71-16.315c-.553-1.38,3.01-8.244,5.122-12.108a2.468,2.468,0,0,1,3.986-.475,6.971,6.971,0,0,1,2.156,4.426,9.082,9.082,0,0,1-2.137,5.778s9.372,8.982,5.633,16.364Z" transform="translate(-389.016 -136.249)"/><path class="w" d="M413.037,166.031s-5.438,3.3-6.6,2.913.193-3.883.193-3.883-4.466,2.331-5.438,1.748,1.748-6.605,1.748-6.605-3.5,1.555-4.468,1.361,3.692-9.906,3.692-9.906-4.857.97-5.44-1.555,7.381-9.13,8.936-8.351,2.718,4.855,2.718,4.855,2.526,3.3,2.72,6.6c0,0,2.913,3.5,3.107,5.633a21.092,21.092,0,0,0,3.107,6.41c1.944,2.331-.435,7.623-.435,7.623S414.543,168.41,413.037,166.031Z" transform="translate(-380.545 -141.69)"/><g transform="translate(21.714 5.112)"><path class="z" d="M399.338,148.685a9.064,9.064,0,0,1,2.648-2.907,8.973,8.973,0,0,1,3.566-1.658,8.976,8.976,0,0,1-2.646,2.909A9.1,9.1,0,0,1,399.338,148.685Z" transform="translate(-399.338 -144.12)"/><path class="z" d="M399.8,153.955a15.186,15.186,0,0,1,3.33-3.89,15.008,15.008,0,0,1,4.344-2.714,15,15,0,0,1-3.33,3.889A15.157,15.157,0,0,1,399.8,153.955Z" transform="translate(-398.829 -140.553)"/><path class="z" d="M401.369,156.112a22.656,22.656,0,0,1,3.5-3.343l1.839-1.435c.61-.486,1.226-.938,1.847-1.536a4.491,4.491,0,0,1-.968,2.371,9.443,9.443,0,0,1-1.744,1.811A10.177,10.177,0,0,1,401.369,156.112Z" transform="translate(-397.097 -137.853)"/><path class="z" d="M404.6,154.581a2.474,2.474,0,0,1,.5-1.6,2.551,2.551,0,0,1,1.443-.829,1.693,1.693,0,0,1-.238,1.807A1.733,1.733,0,0,1,404.6,154.581Z" transform="translate(-393.53 -135.255)"/></g></g></g></g></g><g transform="translate(374.839 111.738)"><g transform="translate(0.657 8.553)"><path class="w" d="M400.319,120.732c-5.438-13.985-31.076-19.422-48.944-3.883-8.3,7.217-10.061,20.3-9.569,32.244a5.954,5.954,0,0,0-1.06-.427c-3.639-.907-7.293,1.834-8.383,5.255a9.855,9.855,0,0,0,1.275,8.2,12.4,12.4,0,0,0,5.636,4.708,15.941,15.941,0,0,0,4.849.48,36.091,36.091,0,0,0,11.9,20.26,32.653,32.653,0,0,0,27.757,7.026c7.737-1.607,19.187-6.563,22.029-14.595a20.31,20.31,0,0,0,.835-6.565C406.852,156.509,406.537,136.721,400.319,120.732Z" transform="translate(-331.961 -107.449)"/><g transform="translate(3.084 23.736)"><g transform="translate(38.726 12.913)"><g transform="translate(19.872)"><path class="x" d="M361.284,129.568c0,2.594,1.027,4.7,2.295,4.7s2.293-2.1,2.293-4.7-1.027-4.7-2.293-4.7S361.284,126.975,361.284,129.568Z" transform="translate(-361.284 -124.871)"/></g><path class="x" d="M356.427,129.568c0,2.594-1.027,4.7-2.295,4.7s-2.295-2.1-2.295-4.7,1.029-4.7,2.295-4.7S356.427,126.975,356.427,129.568Z" transform="translate(-351.837 -124.871)"/></g><g transform="translate(42.538 30.099)"><path class="x" d="M361.335,137.818a3.763,3.763,0,0,1-2.415.818,3.944,3.944,0,0,1-2.417-.818,12.385,12.385,0,0,0,2.417.271A10.369,10.369,0,0,0,361.335,137.818Z" transform="translate(-350.499 -127.769)"/><path class="d" d="M353.649,133.041s10.488,2.459,14.5.9c0,0-1.424,6.347-7.123,6.475S353.649,133.041,353.649,133.041Z" transform="translate(-353.649 -133.041)"/></g><g transform="translate(32.134)"><path class="x" d="M361.793,120.053a5.441,5.441,0,0,0-3.555-1.317,10.952,10.952,0,0,0-3.786.539,9.182,9.182,0,0,0-3.334,1.91,9.684,9.684,0,0,0-2.276,2.916,1.1,1.1,0,0,0,1.7,1.344l.095-.086a13.632,13.632,0,0,1,2.266-1.8,8.007,8.007,0,0,1,2.5-1.027,9.754,9.754,0,0,1,2.709-.263,10.381,10.381,0,0,0,2.9-.168l.288-.069a1.15,1.15,0,0,0,.492-1.977Z" transform="translate(-348.703 -118.732)"/><path class="x" d="M360.58,120.053a5.441,5.441,0,0,1,3.555-1.317,10.959,10.959,0,0,1,3.786.539,9.183,9.183,0,0,1,3.334,1.91,9.686,9.686,0,0,1,2.276,2.916,1.1,1.1,0,0,1-1.7,1.344l-.093-.086a13.624,13.624,0,0,0-2.266-1.8,8.006,8.006,0,0,0-2.5-1.027,9.762,9.762,0,0,0-2.711-.263,10.362,10.362,0,0,1-2.9-.168l-.29-.069a1.15,1.15,0,0,1-.49-1.977Z" transform="translate(-336.023 -118.732)"/></g><path class="x" d="M361.973,123.485c.406,1.769.7,3.528,1.033,5.267s.658,3.469,1.153,5.114c.114.414.242.82.389,1.214a4.308,4.308,0,0,1,.4,1.515,3.05,3.05,0,0,1-1.647,2.785,3.7,3.7,0,0,1-2.993.16,7.284,7.284,0,0,1-2.373-1.418c1.647.618,3.572,1.1,4.731.227a1.815,1.815,0,0,0,.814-1.677,3.375,3.375,0,0,0-.345-1.041c-.177-.44-.332-.883-.465-1.327a24.911,24.911,0,0,1-.86-5.4A28.762,28.762,0,0,1,361.973,123.485Z" transform="translate(-306.384 -113.487)"/><path class="x" d="M333.429,132.506a3.9,3.9,0,0,1,1.224-3.109,3.629,3.629,0,0,1,3.542-.341,6.678,6.678,0,0,1,2.861,2.087,10.65,10.65,0,0,1,1.78,3,.784.784,0,0,1-1.285.844l-.05-.053a6.9,6.9,0,0,0-2.632-1.862,1.218,1.218,0,0,0-1.1.122,2.936,2.936,0,0,0-.789,1.218c-.4,1.031-.642,2.234.238,2.711a5.868,5.868,0,0,0,3.475.238,5.466,5.466,0,0,1-3.82.513,2.153,2.153,0,0,1-1.348-1.8,5.626,5.626,0,0,1,.223-2.08,3.92,3.92,0,0,1,1.113-1.918,2.631,2.631,0,0,1,2.4-.5,7.566,7.566,0,0,1,3.425,2.3l-1.336.791a8.392,8.392,0,0,0-3.608-4.512A2.937,2.937,0,0,0,335.07,130,3.918,3.918,0,0,0,333.429,132.506Z" transform="translate(-333.427 -107.67)"/></g></g><path class="x" d="M417.42,128.448a17.758,17.758,0,0,0-7.4-7.909c-3.511-2.034-7.583-3.124-10.783-5.608-2.688-2.083-4.584-5.019-7.18-7.211-5.236-4.413-12.834-5.251-19.437-3.448s-12.089,6.121-17.094,10.8a9.427,9.427,0,0,0-7.861,1.1c-2.657,1.74-4.226,4.691-5.532,7.6-1.289,2.905-2.143,6.153-4.335,8.467a8,8,0,0,0-6,9.184c.372,1.74,1.336,3.294,1.757,5,.667,2.72-.063,5.547-.219,8.345a12.244,12.244,0,0,0,.046,2.112,7.253,7.253,0,0,1,7.463-3.763,44.941,44.941,0,0,1,7.83,7.331,8.495,8.495,0,0,0,8.059-5.145,52.556,52.556,0,0,0,1.311-5.354c.814-2.821,2.617-5.24,3.8-7.926s1.649-6.044-.109-8.393c5.053,4.319,10.421,8.465,17.066,8.334a62.3,62.3,0,0,0,6.938-.991,10.333,10.333,0,0,1,6.8.987c3.627,2.245,4.708,7.775,8.793,9a6.248,6.248,0,0,0,4.8-.7c.179,1.811.337,3.624.454,5.44,2.579-.621,5.034-2.268,5.919-4.739.574-1.584.465-3.326.932-4.941.73-2.564,2.8-4.537,3.978-6.929A12.675,12.675,0,0,0,417.42,128.448Z" transform="translate(-331.649 -103.382)"/><path class="ae" d="M411.043,112.919l-1.18-.2c-5.518-.947-10.457-2.064-16.094-1.792-8.736.421-16.74,3.09-25.148,5.126-7.693,1.864-18.057,2.516-26.936.442-1.077,2.629-1.969,5.415-3.913,7.468a8.039,8.039,0,0,0-6.094,7.135,139.8,139.8,0,0,1,23.419,1.529c2.316.33,4.561.677,6.763,1.012,1.149-2.667,1.584-5.964-.151-8.284,5.053,4.319,10.421,8.465,17.066,8.334a62.294,62.294,0,0,0,6.938-.991,10.333,10.333,0,0,1,6.8.987c.09.057.172.122.259.183a49.885,49.885,0,0,0,7.777-2.693,53.411,53.411,0,0,1,17.971-4.767,13.428,13.428,0,0,0-1.132-6.237A17.363,17.363,0,0,0,411.043,112.919Z" transform="translate(-331.618 -95.105)"/></g></g><g transform="translate(-1434.301 -410.978)"><g transform="translate(1892.69 654.76)"><path class="r" d="M2185.458,691.366c-4.441,3.069-10.729,4.813-11.754,10.023l-13.6-4.383c.245-17.258,16.063-32.624,17.85-33.93,4.643-3.395,6.615-5.277,7.394-4.853s4.62,4.064-1.979,9.219c-8.281,6.47,1.962,10.025,15.969-7.72,3.507-4.444,13.378-7.395,12.295-2.214C2210.438,663.217,2205.668,677.4,2185.458,691.366Z" transform="translate(-2160.104 -654.76)"/></g><path d="M1915.746,1836.7c14.582,19.449,50.39,7.515,49.206,33.822-54.455-.338-77.087,0-77.087,0,.071-6.042,1.149-20.383,2.4-26Z" transform="translate(-137.83 -562.596)"/><path d="M1760.263,1837.674c14.582,19.45,50.391,7.515,49.205,33.822-54.455-.338-77.086,0-77.086,0,.071-6.042,1.148-20.384,2.4-26Z" transform="translate(-63.821 -563.059)"/><path class="n" d="M1925.362,1270.039s8.842,124.66,5.249,152.374-16.31,63.245-14.869,154.916c-17.751,4.3-43.469,0-43.469,0s-3.813-103.655,14.952-149.952c-7.63-44.971-32.117-147.975-32.117-147.975Z" transform="translate(-122.238 -292.869)"/><path class="o" d="M1829.844,1276.542s-17.853,139.951-26.592,166.5-19.269,45.952-35.091,136.259c-18.243.882-43.135,3.037-43.135,3.037s3.854-114.55,32.266-140.6c.962-45.6-4.594-164.293-4.594-164.293Z" transform="translate(-60.32 -295.964)"/><path class="n" d="M1964.723,901.644s2.72-1.188,71.51-17.823a.07.07,0,0,1,.057.012s26.061,19.408,26.037,19.438c-16.994,21.519-91.986,44.546-91.986,44.546l-5.616-46.166Z" transform="translate(-174.414 -109.031)"/><path class="af" d="M1860.288,914.137l-24.716-2.307L1811.66,918.5l26.942,27.726Z" transform="translate(-101.557 -122.364)"/><path class="r" d="M1854.737,910.8c-10.071,8.27-21.4,9.8-33.529,2.932l-3.209-32.9,34.835-2.746Z" transform="translate(-104.575 -106.302)"/><path class="af" d="M1776.9,933.838h0l7.325-2.9-.979-10.345,20.317,16.318,5.738.913,5.484-1.919,17.089-19.672.877,10.355,6.463,1.3h0l23.307,3.774,2.774,129.365,9.2,44.013c-30.927,10.286-65.513,12.854-99.513,8.168l1.142-44.184-24.151-126.43Z" transform="translate(-73.146 -124.459)"/><path class="o" d="M1863,982.377l14.6,98.773-8.085,11.232-10.54-8.1L1855.384,983.2Z" transform="translate(-122.369 -155.944)"/><path class="o" d="M1861.783,958.844l-5.338-1.406-5.436,2.372,2.3,11.711,7.653-.686Z" transform="translate(-120.287 -144.073)"/><g transform="translate(1758.731 791.774)"><path class="o" d="M1904.461,916.233l4,120.143,15.792,76.829s30.319,1.744,45.663-12.857l-19.157-62.282-14.72-120.986Z" transform="translate(-1904.461 -916.233)"/><path class="ag" d="M1904.461,916.233l3.981,118.541,18.179-90.212Z" transform="translate(-1904.461 -916.233)"/></g><g transform="translate(1671.974 800.234)"><path class="o" d="M1775.155,932.378l32.086,193.431s-50.471,4.821-68.347-4.277l11.563-58.363-6.084-115.249Z" transform="translate(-1738.895 -932.378)"/><path class="ag" d="M1794.48,932.378l18.954,113.374-33.94-85.538Z" transform="translate(-1758.22 -932.378)"/></g><g transform="translate(1598.302 1034.32)"><path class="af" d="M5.551,0h98.44a5.549,5.549,0,0,1,5.549,5.549V60.374a5.549,5.549,0,0,1-5.549,5.549H5.55A5.55,5.55,0,0,1,0,60.373V5.551A5.551,5.551,0,0,1,5.551,0Z" transform="translate(0 0)"/><path class="ag" d="M1788.121,1392.614a5.83,5.83,0,1,1-5.83-5.831A5.83,5.83,0,0,1,1788.121,1392.614Z" transform="translate(-1683.104 -1382.758)"/><path class="ag" d="M1783.705,1417.4a2.915,2.915,0,1,1,.539,4.087A2.915,2.915,0,0,1,1783.705,1417.4Z" transform="translate(-1686.266 -1396.789)"/></g><path class="n" d="M2149.2,734.018c-10.8-3.6-16.48-5.218-24.875-5.218-19.85,59.15-34,81.436-28.1,98.418,4.918,14.157,20.486,13.025,28.1,2.417C2134.367,815.642,2143.255,762.477,2149.2,734.018Z" transform="translate(-236.367 -35.243)"/><g transform="translate(1623.419 1013.504)"><path class="r" d="M1669.058,1339.377l-.326,14.157s10.1-.3,10.456,6.6l-9.487.294s-5.773,7.458,2.5,22.008c3.3,14.255-7.147,8.224-7.864,12.961-1.057,6.988-14.855-4.993-17.046-19.234-2.836-18.426.926-20.64.926-20.64l4.173-13.991Z" transform="translate(-1646.234 -1339.377)"/></g><path class="n" d="M1692.069,962.038c-16.451,1.714-63.786,97.832-63.786,97.832l9.406,107.769,26.652-4.3,7.9-91.09,26.1-51.562Z" transform="translate(-14.271 -146.262)"/><g transform="translate(1672.319 677.591)"><path class="r" d="M1782.472,785.393c9.677,24.181,32.917,37.622,51.908,30.021s26.543-33.363,16.866-57.544-32.916-37.622-51.908-30.021S1772.8,761.213,1782.472,785.393Z" transform="translate(-1757.977 -711.37)"/><path d="M1901.208,797.139a3.557,3.557,0,1,0,.889-4.952A3.556,3.556,0,0,0,1901.208,797.139Z" transform="translate(-1816.197 -742.702)"/><path d="M1850.311,817.474a3.851,3.851,0,1,0,.963-5.36A3.851,3.851,0,0,0,1850.311,817.474Z" transform="translate(-1791.945 -752.162)"/><path class="s" d="M1890.242,811.424c4.811,3.792,10.824,8.366,10.824,8.366s.061,5.8-6.714,8.312c2.452-2.224,4.6-5.183,2.052-8.6S1890.242,811.424,1890.242,811.424Z" transform="translate(-1811.28 -752.162)"/><g transform="translate(49.578 53.248)"><path class="o" d="M1835.945,809.7a1.775,1.775,0,0,0,1.725-1.363c.047-.19,1.239-4.815,5.2-4.835a1.775,1.775,0,1,0-.017-3.55c-5.413.026-8.019,4.956-8.64,7.559a1.775,1.775,0,0,0,1.315,2.138A1.755,1.755,0,0,0,1835.945,809.7Z" transform="translate(-1834.168 -799.948)"/></g><g transform="translate(79.807 41.327)"><path class="o" d="M1893.334,782.783a1.476,1.476,0,0,0,1.272-.724,4.313,4.313,0,0,1,2.57-1.855,4.836,4.836,0,0,1,3.757,1.358,1.479,1.479,0,1,0,1.848-2.31c-2.084-1.667-4.158-2.324-6.165-1.953a7.3,7.3,0,0,0-4.558,3.257,1.481,1.481,0,0,0,1.275,2.228Z" transform="translate(-1891.856 -777.198)"/></g><path class="o" d="M1769.741,770.66c-.006-9.455,8.231-7.453,9.1-19.924s2.052-21.929,13.885-19.879,15.632.474,19.438-3.549,18.677,13.094,18.677,13.094,12.8-18.34.2-28.368c-13.963-11.116-16.682-2.084-29.391-9.873s-30.981-2.514-34.689,5.245c-3.908,8.18-4.6,14.033-15.668,19.772s-16.6,15.284-6.262,27.114-6.674,20.431,10.669,31.338c6.728,4.231,16.176,5.288,18.027,2.867C1776.206,785.256,1769.744,776.754,1769.741,770.66Z" transform="translate(-1739.554 -698.331)"/><path class="o" d="M1863.164,808.719s1.117,14.013-.9,18.345c-2.1-5.62-6.617.336-10.857.9-10.247,1.355-28.734-2.061-30.566,13.309-12.523,3.963-24.253-22.842-24.253-22.842-1.566,31.3,21.194,46.951,52.73,41.969C1870.089,857.116,1872.017,828.186,1863.164,808.719Z" transform="translate(-1766.663 -750.875)"/><path class="d" d="M1891.161,859.182a1.133,1.133,0,0,0-1.2-1.707,80.467,80.467,0,0,1-21.267,1.9,1.133,1.133,0,0,0-.876,1.891,14.149,14.149,0,0,0,23.339-2.083Z" transform="translate(-1800.469 -774.07)"/><g transform="translate(15.555 67.768)"><path class="r" d="M1784.389,828.99c5.718,2.724,8.546,8.724,6.318,13.4s-8.671,6.265-14.389,3.542-8.546-8.725-6.317-13.4S1778.671,826.267,1784.389,828.99Z" transform="translate(-1769.239 -827.658)"/><g transform="translate(6.076 5.077)"><path class="s" d="M1789.979,847.164a1.366,1.366,0,0,0,.389-.5c1.326-2.907.885-5.747-1.179-7.6a6.671,6.671,0,0,0-7.679-.878,1.385,1.385,0,0,0,1.414,2.382,3.951,3.951,0,0,1,4.415.558c1.149,1.031,1.329,2.59.509,4.389a1.385,1.385,0,0,0,2.13,1.652Z" transform="translate(-1780.833 -837.347)"/></g></g></g><path class="d" d="M1834.437,941.786a44.32,44.32,0,0,1-15.3,14.62l-14.364-24,3.609-7.852Z" transform="translate(-98.279 -128.421)"/><path class="d" d="M1861.383,937.825s9.2,9.288,17.657,11.664l10.092-26.639-5.176-6.617Z" transform="translate(-125.225 -124.459)"/></g><g transform="translate(-19.262 368.02)"><path class="ah" d="M438.437,250.421c-28.238-27.954-64.029,3.512-92.175-24.351l13.761-52.09c28.146,27.863,63.937-3.6,92.175,24.351Z"/><path class="ai" d="M438.437,250.421c-28.238-27.954-64.029,3.512-92.175-24.351l13.761-52.09c28.146,27.863,63.937-3.6,92.175,24.351Z"/><path class="aj" d="M381.708,223.581c2.255-8.51,4.78-16.952,6.888-25.5.952-3.862,1.877-7.733,2.934-11.565-11-.333-21.717-2.844-31.507-12.536l-13.761,52.09c9.817,9.718,20.564,12.216,31.6,12.538Q379.733,231.083,381.708,223.581Z"/><path class="ak" d="M409.654,237.963c4.632-17.453,9.887-34.739,15.315-51.963a104.812,104.812,0,0,0-14.673-.1c-4.8,17.375-10.05,34.649-14.454,52.123A116.629,116.629,0,0,1,409.654,237.963Z"/><path class="ak" d="M423.384,224.673c2.263-7.02,4.618-14.018,6.756-21.077,1.6-5.266,3.041-10.581,5.591-15.462a44.725,44.725,0,0,0-5.147-1.34c-4.909,17.337-10.27,34.541-15.548,51.769q1.855.3,3.692.746Q421.029,231.983,423.384,224.673Z"/><path class="d" d="M363.718,199.43a23.809,23.809,0,0,0,2.02,1.478c1.039,3.944,1.593,5.8,2.753,9.339l2.027-6.778c.881.369,1.327.535,2.229.834l-3.135,10.487c-.9-.3-1.349-.464-2.23-.834-1.16-3.538-1.714-5.395-2.753-9.338-.81,2.711-1.216,4.067-2.026,6.778a23.622,23.622,0,0,1-2.021-1.479Z"/><path class="d" d="M376.656,207.485l-.625,2.092a37.808,37.808,0,0,0,5.58.669c-.243.812-.365,1.218-.607,2.03a37.673,37.673,0,0,1-5.58-.669c-.276.922-.413,1.384-.689,2.306a38.467,38.467,0,0,0,6.173.7c-.243.812-.365,1.218-.607,2.03a35.755,35.755,0,0,1-8.5-1.214l3.136-10.487a35.857,35.857,0,0,0,8.5,1.214c-.243.811-.364,1.218-.607,2.03A38.367,38.367,0,0,1,376.656,207.485Z"/><path class="d" d="M384.5,206.2c1.062.034,1.6.039,2.671.03.011,2.809.019,4.207.037,6.993,1.87-2.849,2.808-4.282,4.687-7.157,1.09-.063,1.638-.1,2.735-.187.2,2.735.3,4.1.508,6.819,1.716-2.893,2.575-4.342,4.292-7.24,1.1-.1,1.655-.158,2.758-.264-2.689,4.333-4.034,6.5-6.722,10.83-1.02.1-1.529.141-2.547.227-.251-2.788-.376-4.185-.622-6.991-1.977,2.959-2.964,4.434-4.933,7.366-1.013.046-1.517.064-2.521.082C384.693,212.538,384.623,210.439,384.5,206.2Z"/><path class="d" d="M404.873,213.648c.848-.639,1.271-.957,2.117-1.589a1.545,1.545,0,0,0,1.649,1.041,2.582,2.582,0,0,0,2.284-1.816c.824-2.754,1.235-4.131,2.059-6.885,1-.034,1.5-.044,2.493-.048l-2.113,7.068a5.509,5.509,0,0,1-5.08,3.714A3.63,3.63,0,0,1,404.873,213.648Z"/><path class="d" d="M415.7,209.6a7.477,7.477,0,0,1,7.6-4.96,5.183,5.183,0,0,1,4.119,6.675c-.881,2.947-4.164,4.627-7.364,4.179C416.883,215.056,414.818,212.55,415.7,209.6Zm9.374,1.085a3.061,3.061,0,0,0-2.389-4,4.423,4.423,0,0,0-4.472,3.023,2.862,2.862,0,0,0,2.45,3.74A4.115,4.115,0,0,0,425.073,210.689Z"/><path class="d" d="M430.731,206.68a24.055,24.055,0,0,1,5.086,2.487,4.375,4.375,0,0,1,2.09,4.664,1.688,1.688,0,0,1-2.009,1.34,4.844,4.844,0,0,1,.911,4.014c-.5,1.679-2.1,1.748-3.944.585a23.993,23.993,0,0,0-5.269-2.6Zm3.3,6.4c.783.462,1.471.343,1.672-.329a1.855,1.855,0,0,0-.983-1.976,23.756,23.756,0,0,0-2.373-1.252l-.69,2.306A23.556,23.556,0,0,1,434.028,213.079Zm-.969,4.531c.836.509,1.576.386,1.8-.362a2.053,2.053,0,0,0-1.034-2.2,23.7,23.7,0,0,0-2.7-1.447l-.767,2.565A23.8,23.8,0,0,1,433.059,217.61Z"/><rect class="al" width="3.557" height="117.889" transform="matrix(-0.97, -0.243, 0.243, -0.97, 426.548, 309.334)"/><rect class="am" width="2.373" height="117.889" transform="translate(426.548 309.334) rotate(-165.941)"/><path class="an" d="M433.463,267.077l-3.1,12.386c.013,0,.029,0,.041.006a2.524,2.524,0,0,1,.975.9,2.055,2.055,0,0,0,.954.612,3.144,3.144,0,0,0,1.278.152l2.8-11.183Q434.958,268.5,433.463,267.077Z"/></g></g></svg>