<svg width="19" height="18" viewBox="0 0 19 18" fill="none" xmlns="http://www.w3.org/2000/svg">
<path fill-rule="evenodd" clip-rule="evenodd" d="M0.541626 1.16663C0.541626 0.821448 0.821448 0.541626 1.16663 0.541626H17.8333C18.1785 0.541626 18.4583 0.821448 18.4583 1.16663C18.4583 1.5118 18.1785 1.79163 17.8333 1.79163H16.7916V9.72495C16.7916 9.76897 16.7916 9.81241 16.7917 9.85528C16.7922 10.8443 16.7925 11.5321 16.5123 12.1493C16.2321 12.7664 15.7139 13.219 14.9687 13.8699C14.9364 13.8981 14.9037 13.9266 14.8705 13.9556L13.1722 15.4406C12.4147 16.1029 11.8017 16.639 11.2591 17.0041C10.6943 17.3841 10.1413 17.625 9.49996 17.625C8.85857 17.625 8.30558 17.3841 7.74082 17.0041C7.19826 16.639 6.58519 16.1029 5.82774 15.4406L4.12937 13.9556C4.09622 13.9266 4.06349 13.8981 4.03119 13.8698C3.28603 13.219 2.76787 12.7664 2.48763 12.1493C2.20738 11.5321 2.20773 10.8443 2.20825 9.85527C2.20827 9.8124 2.20829 9.76897 2.20829 9.72495V1.79163H1.16663C0.821448 1.79163 0.541626 1.5118 0.541626 1.16663ZM3.45829 1.79163V9.72495C3.45829 10.8973 3.47136 11.2924 3.62579 11.6324C3.78024 11.9726 4.06929 12.2427 4.95217 13.0146L6.61883 14.4719C7.41555 15.1685 7.96955 15.6514 8.43867 15.967C8.89313 16.2729 9.20201 16.375 9.49996 16.375C9.79791 16.375 10.1068 16.2729 10.5612 15.967C11.0304 15.6514 11.5844 15.1685 12.3811 14.4719L14.0478 13.0146C14.9306 12.2427 15.2197 11.9726 15.3741 11.6324C15.5286 11.2924 15.5416 10.8973 15.5416 9.72495V1.79163H3.45829ZM5.95829 6.16663C5.95829 5.82145 6.23811 5.54163 6.58329 5.54163H12.4166C12.7618 5.54163 13.0416 5.82145 13.0416 6.16663C13.0416 6.5118 12.7618 6.79163 12.4166 6.79163H6.58329C6.23811 6.79163 5.95829 6.5118 5.95829 6.16663ZM5.95829 10.3333C5.95829 9.98812 6.23811 9.70829 6.58329 9.70829H12.4166C12.7618 9.70829 13.0416 9.98812 13.0416 10.3333C13.0416 10.6785 12.7618 10.9583 12.4166 10.9583H6.58329C6.23811 10.9583 5.95829 10.6785 5.95829 10.3333Z" fill="#2475C0"/>
</svg>
